<?xml version="1.0" standalone="no"?>
<!DOCTYPE svg PUBLIC "-//W3C//DTD SVG 1.1//EN" "http://www.w3.org/Graphics/SVG/1.1/DTD/svg11.dtd" >
<svg xmlns="http://www.w3.org/2000/svg">
<metadata>
This is a custom SVG webfont generated by Font Squirrel.
Copyright   : Copyright c 1985 1987 1990 1991 Adobe Systems Incorporated  All Rights ReservedITC American Typewriter is a registered trademark of International Typeface Corporation
Foundry     : Adobe Systems Incorporated
</metadata>
<defs>
<font id="webfontcGjlIksU" horiz-adv-x="1351" >
<font-face units-per-em="2048" ascent="1638" descent="-410" />
<missing-glyph horiz-adv-x="778" />
<glyph unicode=" "  horiz-adv-x="778" />
<glyph unicode="&#x09;" horiz-adv-x="778" />
<glyph unicode="&#xa0;" horiz-adv-x="778" />
<glyph unicode="!" horiz-adv-x="696" d="M254 1321q0 45 17.5 79t70.5 34t70.5 -34t17.5 -79l-8 -901q0 -41 -12.5 -73t-63.5 -32q-29 0 -46 9.5t-25.5 23.5t-10.5 32.5t-2 39.5zM338 240q53 0 92 -39t39 -92q0 -55 -39 -94.5t-92 -39.5q-55 0 -94 39t-39 95q0 53 39 92t94 39z" />
<glyph unicode="&#x22;" d="M788 1370q0 25 11.5 44.5t50.5 19.5t50 -19.5t11 -44.5l-4 -498q0 -23 -8 -40t-49 -17t-49 17.5t-8 39.5zM440 1370q0 25 11.5 44.5t50.5 19.5t50 -19.5t11 -44.5l-4 -498q0 -23 -8 -40t-49 -17t-49.5 17.5t-8.5 39.5z" />
<glyph unicode="#" d="M575 868l-126 -336h323l125 336h-322zM1300 993q16 0 33 -5t17 -30q0 -41 -31 -65.5t-66 -24.5h-237l-125 -333h293q16 0 32.5 -5.5t16.5 -29.5q0 -41 -29.5 -65.5t-62.5 -24.5h-297l-127 -347q-12 -31 -31.5 -52t-50.5 -21q-16 0 -30.5 6t-14.5 29q0 14 8 35l12 32 l119 316h-323l-130 -345q-12 -31 -30.5 -52t-50.5 -21q-16 0 -30.5 6t-14.5 29q0 14 9 35l13 32l119 316h-244q-14 0 -29.5 5t-15.5 29q0 41 28.5 67t63.5 26h244l121 333h-291q-16 0 -30.5 5.5t-14.5 27.5q0 43 27.5 67.5t62.5 24.5h293l129 338q10 33 29.5 53.5t54.5 20.5 q16 0 27.5 -6t11.5 -29q0 -8 -3 -18.5t-7 -16.5l-125 -342h323l123 338q14 33 34.5 53.5t53.5 20.5q14 0 27.5 -6t13.5 -29q0 -14 -9 -36l-13 -31l-115 -310h239z" />
<glyph unicode="$" d="M756 96q57 -2 114.5 16.5t102.5 54.5t72.5 86t27.5 109q0 72 -26.5 119t-71.5 75t-101.5 42t-117.5 23v-525zM629 1288q-53 0 -103.5 -16.5t-91.5 -47t-65.5 -75.5t-24.5 -100q0 -59 26.5 -98.5t67.5 -64t91.5 -38.5l99.5 -27v467zM756 795l53 -13q76 -16 153.5 -37.5 t141.5 -68.5q72 -53 107.5 -127t35.5 -160q0 -100 -47 -187t-131 -143q-63 -45 -149 -69.5t-164 -40.5v-160q0 -33 -11.5 -58.5t-52.5 -25.5q-43 0 -53 24.5t-10 59.5v160q-88 2 -181.5 25.5t-170 70.5t-126 120t-49.5 173q0 37 10.5 71.5t30 62.5t50 45.5t73.5 17.5 q51 0 85 -31t34 -82q0 -47 -36 -73.5t-81 -24.5q2 -61 39 -104.5t91.5 -71t115.5 -40t115 -12.5v553l-13 4q-80 18 -159.5 39t-143 60t-102.5 101t-39 163q0 92 40 173t114 140q63 47 144 68.5t159 36.5v149q0 35 9 63.5t54 28.5q41 0 52.5 -28.5t11.5 -63.5v-149 q66 -4 142.5 -27t142 -62.5t108.5 -99t43 -135.5q0 -53 -32 -95t-91 -42q-45 0 -76.5 27.5t-31.5 72.5q0 27 13 43.5t36 28.5q-12 39 -39 66.5t-63 45t-75.5 24.5t-76.5 7v-493z" />
<glyph unicode="%" horiz-adv-x="1761" d="M412 1323q-74 0 -119 -35t-69.5 -89t-34 -118.5t-9.5 -124.5q0 -55 10.5 -113.5t36 -105.5t68.5 -77.5t108 -30.5q72 0 119 33.5t74 86t37 116t10 124.5q0 59 -10 118.5t-36 108t-70.5 78t-114.5 29.5zM424 1434q92 0 157.5 -38t107.5 -100.5t61.5 -141.5t19.5 -161 q0 -76 -16.5 -164t-55.5 -153q-47 -76 -124.5 -117t-167.5 -41q-96 0 -163 37t-109 99.5t-61.5 143.5t-19.5 169q0 92 20.5 176t64.5 148.5t115 103.5t171 39zM514 -10l-15 -25q-5 -8 -10.5 -12t-14.5 -4h-28q-6 0 -15 -1t-19.5 -1t-17.5 4t-7 14t6 19.5t10 17.5l852 1405 l15.5 25.5t11.5 13.5t16.5 5t28.5 1h32q13 0 19 -3t5 -12.5t-13 -29.5zM1372 864q90 0 155.5 -38t107.5 -99t61.5 -140t19.5 -161q0 -78 -15 -165t-56 -150q-47 -78 -125 -120t-168 -42q-96 0 -163 38t-109 101.5t-61.5 144t-19.5 166.5q0 92 20.5 177.5t65.5 148.5t116 101 t171 38zM1360 754q-74 0 -120 -35t-70.5 -89.5t-34 -119t-9.5 -123.5q0 -55 10.5 -112.5t36 -105.5t68.5 -79t109 -31q72 0 119 34t73.5 86t36.5 115.5t10 125.5q0 61 -10 120.5t-35.5 106.5t-69.5 77t-114 30z" />
<glyph unicode="&#x26;" horiz-adv-x="1761" d="M735 393q-55 74 -102 151l-98 154q-113 -39 -181.5 -121.5t-68.5 -205.5q0 -125 74.5 -198t197.5 -73q86 0 158.5 42t120.5 114zM623 901q39 18 75.5 42t64.5 55.5t44 70.5t16 86q0 61 -42 100t-103 39q-66 0 -108 -33.5t-42 -103.5q0 -66 32 -132.5t63 -123.5zM924 420 l14 -19l23 60l63 168q27 74 62.5 146.5t86 132t118 96t157.5 36.5q59 0 112.5 -17t92.5 -50t61.5 -82t22.5 -113q0 -53 -19.5 -101t-53.5 -84t-80 -57.5t-101 -21.5q-33 0 -66 8t-59.5 24.5t-44 44t-17.5 64.5q0 43 22.5 73t70.5 30q27 0 49 -18.5t22 -45.5q0 -20 -8 -37 q20 -4 33 -4q45 0 71.5 36t26.5 77q0 66 -41 101.5t-106 35.5q-74 0 -119 -47t-78 -106l-119 -287l-37 -95q-18 -48 -45 -94l66 -70q31 -32 65.5 -54.5t76.5 -35t97 -12.5q29 0 56.5 4.5t56.5 4.5q33 0 58.5 -19.5t25.5 -54.5t-23.5 -55.5t-58.5 -20.5h-147q-35 0 -63.5 2 t-54.5 6t-52.5 14.5t-59.5 28.5q-41 25 -75 57l-70 66q-74 -94 -179.5 -140t-221.5 -46q-92 0 -171 29.5t-136.5 84t-90.5 131t-33 171.5q0 92 26 160.5t72 122.5t110.5 97t142.5 84q-41 88 -72 167t-31 173q0 57 28 108.5t69 86.5q45 37 102 53.5t117 16.5 q63 0 122.5 -15.5t104.5 -48.5t71.5 -84t26.5 -123q0 -70 -26.5 -128t-69.5 -106t-97.5 -88t-109.5 -71z" />
<glyph unicode="'" horiz-adv-x="901" d="M389 1370q0 25 11.5 44.5t50.5 19.5t50 -19.5t11 -44.5l-4 -498q0 -23 -8 -40t-49 -17t-49.5 17.5t-8.5 39.5z" />
<glyph unicode="(" horiz-adv-x="942" d="M864 1405q10 0 20.5 -8t10.5 -21q0 -18 -19.5 -29.5t-33.5 -17.5q-104 -47 -208 -124t-173 -163q-82 -102 -124 -227t-42 -254q0 -123 37 -237.5t108 -214.5q33 -43 78 -88.5t97.5 -86t106.5 -75.5t103 -58l42 -17q28 -11 28 -32q0 -12 -15.5 -19t-27.5 -7q-27 0 -69 14 t-87 33.5t-86 41t-63 35.5q-92 57 -167 135t-128 169.5t-82 194t-29 212.5q0 160 62.5 308.5t173.5 263.5q113 115 256 190q16 8 48 22.5t65.5 27.5t66.5 22.5t51 9.5z" />
<glyph unicode=")" horiz-adv-x="942" d="M74 1405q18 0 51 -9.5t66.5 -22.5t64.5 -27l49 -23q145 -76 254 -190q111 -117 174.5 -264.5t63.5 -307.5q0 -111 -29 -213t-82 -193.5t-128 -169t-167 -135.5q-23 -14 -63.5 -35.5t-85.5 -41t-87 -33.5t-69 -14q-12 0 -22.5 7t-10.5 19q0 20 22.5 31.5t37.5 17.5 q49 20 103 56.5t106.5 77t98.5 86t77 88.5q72 100 108.5 214.5t36.5 237.5q0 129 -42 254t-124 227q-72 86 -175 163t-206 124q-14 6 -28.5 17.5t-14.5 29.5q1 29 21 29z" />
<glyph unicode="*" horiz-adv-x="983" d="M422 1282q-4 16 -6 28.5t-2 28.5q0 35 15 65t56 30t56.5 -27t15.5 -64q0 -16 -3 -29l-7 -30l-35 -172l18 -12l132 123q23 23 46 39t58 16q27 0 47.5 -15.5t20.5 -43.5q0 -47 -35 -68t-72 -35l-168 -63v-23l178 -57q33 -10 67 -29.5t34 -60.5q0 -29 -19.5 -48.5 t-48.5 -19.5q-31 0 -57.5 18.5t-48.5 36.5l-132 111l-16 -10l35 -168q2 -12 5 -25.5t3 -25.5q0 -35 -15.5 -69t-56.5 -34q-37 0 -54 26.5t-17 61.5q0 16 2 32.5t6 33.5l33 166l-15 12l-137 -119q-23 -18 -45 -32.5t-51 -14.5t-49.5 19.5t-20.5 48.5q0 20 11.5 35.5t29 27.5 t36.5 20l36 13l158 51v23l-168 57q-35 12 -68 32.5t-33 63.5q0 29 19.5 45.5t46.5 16.5q33 0 55.5 -13.5t44.5 -35.5l133 -119l17 12z" />
<glyph unicode="+" horiz-adv-x="1269" d="M543 1069h155v-436h439v-156h-439v-442h-155v442h-439v156h439v436z" />
<glyph unicode="," horiz-adv-x="696" d="M317 -47q-63 0 -100 28.5t-37 98.5q0 66 43 103.5t107 37.5q41 0 72.5 -18.5t52 -49t31 -67.5t10.5 -74q0 -70 -26 -146.5t-64 -135.5l-23 -34q-14 -22 -31.5 -42.5t-37 -35.5t-38.5 -15q-16 0 -28 12t-12 29q0 12 20 43l46 69q26 39 46.5 82t20.5 82q0 27 -14.5 30 t-37.5 3z" />
<glyph unicode="-" horiz-adv-x="655" d="M477 627q39 0 74 -13.5t35 -60.5q0 -49 -35 -62.5t-74 -13.5h-299q-18 0 -37.5 2t-35 10.5t-25.5 23.5t-10 40q0 49 34.5 61.5t73.5 12.5h299z" />
<glyph unicode="." horiz-adv-x="696" d="M338 240q53 0 92 -39t39 -92q0 -55 -39 -94.5t-92 -39.5q-55 0 -94 39t-39 95q0 53 39 92t94 39z" />
<glyph unicode="/" horiz-adv-x="1064" d="M297 -100q-12 -41 -28.5 -47.5t-55.5 -6.5q-6 0 -18.5 -1t-24.5 1t-20.5 6.5t-8.5 16.5q0 8 5.5 21.5t9.5 19.5l327 823l197 512l86 236q8 25 14 37t15.5 18t23.5 6h39q8 0 18.5 1t20.5 0t17.5 -7t7.5 -18q0 -6 -6.5 -23.5l-14.5 -37.5l-16 -38q-8 -18 -11 -24z" />
<glyph unicode="0" d="M287 668q0 -43 3 -91.5t11 -97.5t21.5 -96t35.5 -86q47 -88 124 -139.5t180 -51.5q123 0 201.5 59.5t122.5 150t60.5 198t16.5 205.5q0 94 -16.5 193.5t-59.5 180.5t-117.5 132t-193.5 51q-123 0 -199 -59.5t-119 -150.5t-57 -197.5t-14 -200.5zM98 676q0 59 6.5 124.5 t20.5 132t37.5 130t58.5 119.5q78 125 200 188.5t267 63.5q154 0 261.5 -63.5t174 -165t97 -231.5t30.5 -261q0 -57 -7 -124t-21.5 -134.5t-37 -133t-55.5 -116.5q-78 -125 -200.5 -190.5t-270.5 -65.5q-131 0 -242.5 56t-187.5 167q-74 109 -102.5 245t-28.5 259z" />
<glyph unicode="1" d="M764 328q0 -66 5 -108t17.5 -66.5t34 -33.5t53.5 -9q25 0 49.5 5t49.5 5q29 0 47 -20.5t18 -49.5q0 -37 -26.5 -55.5t-61.5 -18.5q-74 0 -137 11.5t-141 11.5t-143.5 -11.5t-131.5 -11.5q-31 0 -57.5 18.5t-26.5 55.5q0 29 18.5 49.5t47.5 20.5q25 0 49.5 -5t48.5 -5 q70 0 90.5 44t20.5 160v627v59v71q0 36 -2 69t-8 55q-18 76 -101 76q-25 0 -49.5 -5t-48.5 -5q-29 0 -47.5 20.5t-18.5 48.5q0 41 16.5 57.5t45.5 16.5q41 0 83 -11.5t85 -11.5q41 0 81 11.5t81 11.5q35 0 50 -14.5t15 -49.5q0 -20 -3 -39.5t-3 -37.5v-936z" />
<glyph unicode="2" d="M735 743q53 18 103.5 41t88.5 53.5t61.5 72.5t23.5 98q0 76 -29 130t-76 88t-108.5 49t-128.5 15q-59 0 -123 -13t-115 -48q-14 -10 -31.5 -24.5t-32 -32t-24.5 -37t-10 -39.5q0 -16 17.5 -21.5l38 -12.5t37.5 -24.5t17 -60.5q0 -53 -42 -91t-95 -38q-78 0 -119 52 t-41 126q0 98 50.5 176t128.5 131q74 49 170 75t184 26t178 -21.5t164 -73.5q82 -59 126 -142t44 -185q0 -76 -33 -148.5t-102 -130.5q-66 -53 -152 -84l-166 -57l-140 -48q-79 -28 -151.5 -68t-125 -95t-58.5 -131l4 -4q43 53 102.5 77.5t127.5 24.5q82 0 144.5 -36 t117.5 -80t108.5 -79.5t118.5 -35.5q63 0 97 44t34 103q0 12 -3 21l-7 18q-25 -35 -70 -35q-41 0 -67.5 23.5t-26.5 66.5q0 53 38 83t89 30q92 0 133 -62.5t41 -148.5q0 -57 -20.5 -113.5t-57.5 -100.5t-88 -70.5t-112 -26.5q-57 0 -104.5 17.5t-89.5 44t-80 58t-79 58.5 t-86 44t-100 17q-23 0 -47.5 -4t-45 -13t-35.5 -26.5t-21 -42.5q6 0 11 1t11 1q25 0 44.5 -15t19.5 -44q0 -43 -30 -69.5t-71 -26.5q-47 0 -77.5 20.5t-49 52t-27 71.5t-8.5 81q0 117 46.5 204t121 150.5t170 107.5t191.5 75z" />
<glyph unicode="3" d="M788 862h35q92 0 170 -28.5t133.5 -82t86 -129t30.5 -169.5q0 -111 -45 -207t-129 -166q-86 -72 -194.5 -101.5t-217.5 -29.5q-90 0 -187 23.5t-177 73.5t-132 127t-52 183q0 43 13 85t38.5 74t63.5 52.5t85 20.5q53 0 87 -34t34 -87t-31.5 -76.5t-79.5 -23.5 q-16 0 -26 -4.5t-10 -24.5t10 -44t25.5 -45.5t33 -40t33.5 -30.5q59 -45 134 -64.5t149 -19.5q82 0 154.5 24.5t125.5 71t85 114t32 153.5q0 59 -19.5 108t-60.5 88q-47 45 -108.5 58.5t-120.5 13.5l-119 -10l-45 -8q-23 -4 -45 -5q-25 0 -37 17.5t-12 40.5t19.5 41t31.5 33 l385 395h-428h-61q-32 0 -60.5 -7.5t-47 -27.5t-18.5 -61q0 -29 3.5 -59t3.5 -62q0 -29 -12.5 -59.5t-63.5 -30.5q-37 0 -52.5 28.5t-15.5 61.5v284q0 53 20.5 75t73.5 22h809q18 0 41 -2t42.5 -10.5t31.5 -23t12 -40.5q0 -23 -23.5 -50.5t-45.5 -49.5z" />
<glyph unicode="4" d="M784 1243h-4l-512 -686h516v686zM961 557h206q35 0 65 -12.5t30 -59.5q0 -49 -29 -62t-70 -13h-202v-109q0 -109 20 -145.5t74 -36.5q27 0 57.5 4t77.5 4q29 0 47 -23.5t18 -52.5q0 -37 -26.5 -55.5t-57.5 -18.5q-41 0 -73.5 3.5t-64.5 8.5t-64.5 8t-71.5 3t-72.5 -3 t-66.5 -8t-66 -8.5t-69 -3.5q-139 0 -140 74q0 29 18.5 52.5t47.5 23.5q49 0 79.5 -4t59.5 -4q96 0 96 174v117h-598h-40q-22 0 -40 8q-20 10 -33.5 30.5t-13.5 43.5t14.5 46t28.5 42l494 659l49 65q27 34 58.5 62.5t66.5 48t74 19.5q41 0 64.5 -15.5t34.5 -40t14.5 -55.5 t3.5 -63v-703z" />
<glyph unicode="5" d="M231 1155q0 16 1 42l2 53q1 28 3.5 52.5t6.5 40.5q8 31 35.5 40.5t54.5 9.5h680q33 0 51 -7.5t28.5 -25t13.5 -47t3 -72.5q0 -31 4 -52.5t8 -40t8.5 -34.5t4.5 -35q0 -31 -21.5 -50t-50.5 -19q-43 0 -56.5 32.5t-13.5 67.5q0 66 -30.5 92.5t-98.5 26.5h-389 q-49 0 -62.5 -9.5t-17.5 -43.5l-28 -345q88 63 173 89t191 26q90 0 183.5 -24.5t164.5 -81.5q78 -63 118 -159.5t40 -197.5q0 -131 -47 -230t-128 -167t-189.5 -102.5t-231.5 -34.5q-84 0 -170 20.5t-158 63.5q-74 47 -128 116.5t-54 161.5q0 37 11.5 70t33 58.5t52 41 t67.5 15.5q53 0 89 -30t36 -83q0 -35 -22.5 -63.5t-57.5 -30.5h-15q-9 0 -10 -8q0 -27 18.5 -52.5t35.5 -42.5q25 -23 61.5 -40t77.5 -28.5t82 -17.5t76 -6q150 0 266 92q133 102 133 277q0 162 -95.5 250t-256.5 88q-84 0 -167 -26.5t-145 -86.5l-56 -52q-26 -24 -69 -24 q-27 0 -42 12.5t-23 31t-9 40t-1 41.5z" />
<glyph unicode="6" d="M686 776q-80 0 -145.5 -22.5t-113.5 -65.5t-73.5 -105.5t-25.5 -142.5q0 -78 26.5 -142.5t73.5 -110.5t112.5 -70.5t145.5 -24.5q76 0 144.5 22.5t121.5 80.5q47 49 74 114.5t27 130.5q0 162 -101.5 249t-265.5 87zM723 930q106 0 199.5 -34t163 -95.5t109.5 -148.5 t40 -195q0 -119 -44 -213t-119 -160t-176 -100.5t-214 -34.5q-127 0 -234.5 45t-189.5 143t-113.5 225t-31.5 246q0 145 31.5 293t105.5 265.5t192.5 192.5t290.5 75q70 0 140.5 -16.5t130.5 -53.5q63 -37 108 -95.5t45 -135.5q0 -59 -39 -102.5t-98 -43.5q-45 0 -76 33 t-31 78q0 29 14.5 52.5t43.5 31.5q-14 31 -44 52t-65 34.5t-72.5 19.5t-68.5 6q-117 0 -197 -56t-130 -142t-75.5 -190.5t-31.5 -200.5l4 -5q31 61 77 105.5t103 72t121.5 40t130.5 12.5z" />
<glyph unicode="7" d="M1241 1237q0 -74 -19.5 -133.5t-60.5 -120.5q-23 -33 -42 -56.5t-39.5 -44t-44.5 -40.5l-52 -45q-59 -53 -116.5 -117t-90.5 -137q-16 -35 -27.5 -79t-19.5 -90t-12 -92t-4 -83q0 -29 2 -57.5t2 -57.5q0 -49 -22.5 -92t-82.5 -43q-37 0 -58.5 16.5t-32.5 41t-14 55 t-3 59.5q0 49 6 108.5t19.5 121t32 121.5t42.5 110q59 119 154.5 209t195.5 174l75 64q40 36 48 83l-4 4q-29 -33 -77 -47t-93 -14q-92 0 -156.5 30.5t-114.5 68.5l-92 69q-42 31 -91 30q-41 0 -68 -14t-43 -38.5t-22.5 -57.5t-6.5 -68q0 -53 12.5 -103t12.5 -104 q0 -35 -25.5 -59.5t-60.5 -24.5t-59.5 26t-20.5 60q6 59 10 117l8 117q0 59 -8 119.5t-10 119.5q2 39 17.5 65t58.5 26q33 0 47 -24t14 -52q0 -20 -4 -41t-8 -37l4 -4q35 59 77 101t120 42q82 0 135 -30.5t114 -77.5l51.5 -39t60.5 -39.5t63.5 -30.5t62.5 -12q14 0 31.5 3 t34 11t28.5 20.5t17 28.5q-37 -10 -66 15.5t-29 64.5t32 68t69 29q41 0 68.5 -16.5t44 -44.5t23.5 -61.5t7 -70.5z" />
<glyph unicode="8" d="M666 707q-66 0 -135.5 -18.5t-122.5 -61.5q-47 -41 -77 -97.5t-30 -113.5q0 -84 33 -144.5t86 -99.5t122.5 -56.5t143.5 -17.5q70 0 135.5 19.5t114.5 59.5t78.5 98.5t29.5 138.5q0 78 -33.5 133t-87 91t-120.5 52.5t-137 16.5zM670 868q49 0 101 11.5t94 36t69 64.5 t27 97q0 55 -27 94t-69 65t-92 37t-95 11q-49 0 -100.5 -12t-93.5 -40t-68.5 -70t-26.5 -99q0 -53 26.5 -90t67.5 -59.5t90.5 -34t96.5 -11.5zM408 786q-86 43 -141.5 107.5t-55.5 163.5q0 98 44 168.5t112.5 117t153.5 69t169 22.5q82 0 162 -20.5t144.5 -64.5t104.5 -112 t40 -162q0 -111 -58.5 -178.5t-158.5 -110.5q66 -20 122 -57t98 -86t65.5 -109.5t23.5 -130.5q0 -104 -48 -192t-128 -148q-82 -59 -187.5 -86.5t-203.5 -27.5q-100 0 -198.5 27.5t-176.5 84t-126 141.5t-48 201q0 141 78 238.5t213 144.5z" />
<glyph unicode="9" d="M322 934q0 -147 89 -235.5t240 -88.5q154 0 252 83t98 241q0 76 -23.5 140.5t-67.5 110.5t-107.5 72.5t-143.5 26.5t-142 -26.5t-105 -74.5t-66.5 -111.5t-23.5 -137.5zM133 924q0 113 41 206t112.5 160.5t168 105.5t209.5 38q150 0 255 -57.5t171.5 -153t97.5 -218 t31 -253.5q0 -150 -33 -294.5t-106.5 -257t-193.5 -182t-292 -69.5q-68 0 -143.5 18.5t-141 56t-108.5 96t-43 138.5q0 59 39 100t98 41q41 0 74.5 -30.5t33.5 -73.5q0 -31 -16 -55.5t-45 -34.5q14 -33 46 -55.5t70 -37t77.5 -20.5t70.5 -6q119 0 202 53.5t133 138t73.5 188 t25.5 204.5l-4 4q-29 -57 -73.5 -98t-101 -67t-119 -38t-124.5 -12q-104 0 -192 33.5t-153.5 94t-102.5 147t-37 190.5z" />
<glyph unicode=":" horiz-adv-x="696" d="M338 932q53 0 92 -39t39 -94t-39 -93t-92 -38q-55 0 -94 37.5t-39 93.5q0 55 39 94t94 39zM338 240q53 0 92 -39t39 -92q0 -55 -39 -94.5t-92 -39.5q-55 0 -94 39t-39 95q0 53 39 92t94 39z" />
<glyph unicode=";" horiz-adv-x="696" d="M324 930q53 0 92 -38t39 -93t-39 -94t-92 -39q-55 0 -94.5 38.5t-39.5 94.5q0 53 39.5 92t94.5 39zM317 -47q-63 0 -100 28.5t-37 98.5q0 66 43 103.5t107 37.5q41 0 72.5 -18.5t52 -49t31 -67.5t10.5 -74q0 -70 -26 -146.5t-64 -135.5l-23 -34q-14 -22 -31.5 -42.5 t-37 -35.5t-38.5 -15q-16 0 -28 12t-12 29q0 12 20 43l46 69q26 39 46.5 82t20.5 82q0 27 -14.5 30t-37.5 3z" />
<glyph unicode="&#x37e;" horiz-adv-x="696" d="M324 930q53 0 92 -38t39 -93t-39 -94t-92 -39q-55 0 -94.5 38.5t-39.5 94.5q0 53 39.5 92t94.5 39zM317 -47q-63 0 -100 28.5t-37 98.5q0 66 43 103.5t107 37.5q41 0 72.5 -18.5t52 -49t31 -67.5t10.5 -74q0 -70 -26 -146.5t-64 -135.5l-23 -34q-14 -22 -31.5 -42.5 t-37 -35.5t-38.5 -15q-16 0 -28 12t-12 29q0 12 20 43l46 69q26 39 46.5 82t20.5 82q0 27 -14.5 30t-37.5 3z" />
<glyph unicode="&#x3c;" horiz-adv-x="1269" d="M1143 162v-150l-1043 475v131l1043 476v-150l-848 -391z" />
<glyph unicode="=" horiz-adv-x="1269" d="M1137 276h-1033v154h1033v-154zM1137 676h-1033v153h1033v-153z" />
<glyph unicode="&#x3e;" horiz-adv-x="1269" d="M946 553l-848 391v150l1043 -476v-131l-1043 -475v150z" />
<glyph unicode="?" horiz-adv-x="1228" d="M539 240q53 0 92 -39t39 -92q0 -55 -39 -94.5t-92 -39.5q-55 0 -94 39t-39 95q0 53 39 92t94 39zM78 1030q0 98 47 176t125 131q76 51 174 74t188 23q84 0 179.5 -19.5t166.5 -64.5q82 -51 128.5 -133t46.5 -179q0 -78 -26 -137t-69 -103t-101 -78t-124 -61l-80 -36 q-39 -18 -68.5 -43t-47 -61t-17.5 -87q0 -41 -11 -74.5t-65 -33.5q-53 0 -72.5 27.5t-19.5 74.5q0 70 22.5 123t61.5 94t90 74t109 63l88 47q43 23 76.5 53.5t54 70.5t20.5 98q0 70 -31.5 117.5t-80.5 77.5t-110.5 43t-121.5 13q-59 0 -119.5 -12t-111.5 -41 q-55 -31 -99 -82t-44 -118q0 -59 53 -89l-2 19q0 35 25.5 52.5t58.5 17.5q41 0 64.5 -29t23.5 -66q0 -35 -15.5 -60.5t-40 -43t-55.5 -26.5t-61 -9q-47 0 -85 17.5t-65.5 47t-43 69.5t-15.5 83z" />
<glyph unicode="@" horiz-adv-x="1515" d="M997 932q-33 16 -66.5 26.5t-70.5 10.5q-78 0 -139.5 -36t-105.5 -93.5t-67.5 -129t-23.5 -141.5q0 -66 34 -108.5t106 -42.5q63 0 109 29.5t79 74.5t53.5 100.5t34.5 106.5zM1153 958l-121 -438q-4 -14 -8 -32.5t-4 -34.5q0 -45 45 -45q23 0 47.5 12t48 30.5t42 40 t30.5 37.5q47 72 71.5 163t24.5 175q0 96 -32.5 179t-91 143.5t-140.5 95.5t-182 35q-143 0 -266 -61.5t-214.5 -162t-143.5 -229.5t-52 -264q0 -111 38 -208t105.5 -168.5t162.5 -112.5t210 -41q121 0 225.5 42t200.5 109q12 8 35.5 22.5t40.5 14.5q45 0 45 -43 q0 -20 -16.5 -41.5t-39 -41t-47.5 -36.5l-41 -26q-94 -57 -203.5 -90t-220.5 -33q-139 0 -258.5 48t-209 134t-139.5 203t-50 256q0 172 67.5 325.5t184.5 269t271.5 182.5t330.5 67q123 0 229.5 -38t186.5 -110t125 -173t45 -226q0 -104 -35 -203.5t-96 -185.5 q-29 -41 -65 -79t-78 -67.5t-91 -48t-100 -18.5q-25 0 -48.5 6t-44 19.5t-32.5 34t-12 46.5q0 6 2 13.5t4 11.5l-4 4q-18 -31 -49 -56.5t-68 -42t-77 -25.5t-75 -9q-61 0 -108 21.5t-79 58t-48 87t-16 107.5q0 98 40.5 192.5t109.5 168t161 118.5t194 45q39 0 65 -4t62 -14 q10 -4 24.5 -8t27.5 -4q23 0 45 13t45 13q14 0 25.5 -6t11.5 -22q0 -8 -3.5 -20.5t-5.5 -22.5z" />
<glyph unicode="A" horiz-adv-x="1597" d="M582 672q-14 -41 -6 -47.5t51 -6.5h276h30q19 0 19 17q0 10 -2 18.5t-6 18.5l-178 553h-4zM602 479q-25 0 -42 -1t-30.5 -8t-22.5 -21.5t-20 -40.5l-61 -162l-11 -34q-5 -15 -5 -36q0 -37 21.5 -51t55.5 -14q29 0 60 5t71 5q29 0 47.5 -20.5t18.5 -49.5 q0 -37 -26.5 -55.5t-61.5 -18.5q-41 0 -119 11.5t-155 11.5q-78 0 -156 -11.5t-119 -11.5q-16 0 -40.5 18.5t-24.5 55.5q0 29 18 49.5t47 20.5q31 0 52.5 -4t39.5 -4q25 0 39.5 11t24.5 32q16 23 30 61l25 68l375 1009q20 57 48 84t93 27q63 0 89 -27.5t46 -83.5l363 -997 q10 -33 25.5 -70t31.5 -63q23 -33 44.5 -43t58.5 -10q20 0 43.5 3t60.5 7q29 0 47.5 -20.5t18.5 -49.5q0 -37 -27 -55.5t-62 -18.5q-41 0 -118.5 11.5t-155.5 11.5t-155.5 -11.5t-118.5 -11.5q-55 0 -86 18.5t-31 55.5q0 29 18.5 49.5t46.5 20.5q49 -2 80 -6t60 -4 q25 0 45 13t20 42q0 10 -10 39l-14 41l-56 155q-12 33 -20 49.5t-19.5 22.5t-28.5 6h-50h-318z" />
<glyph unicode="B" horiz-adv-x="1474" d="M655 678q-63 0 -97 -5t-49 -22.5t-18.5 -52.5t-5.5 -92v-166q0 -18 -1 -47t2 -56.5t10.5 -52t23.5 -37.5q20 -16 56 -25t75 -13.5t76 -4.5h64q68 0 146.5 11.5t135.5 52.5q61 43 88 104.5t27 135.5q0 88 -38 141t-97.5 81.5t-131 38t-141.5 9.5h-125zM485 1040 q0 -86 1 -133t18.5 -68.5t59.5 -24.5t124 -3q66 0 141.5 5t141 29.5t108.5 74t43 137.5q0 70 -28.5 112.5t-74.5 65t-103.5 31t-112.5 8.5q-53 0 -122 -5t-122 -16q-29 -6 -45 -17t-25 -40q-2 -12 -3 -33.5t-1 -45.5v-45v-32zM309 942v59v71q0 36 -2 69t-8 55 q-18 76 -100 76q-25 0 -49.5 -5t-49.5 -5q-29 0 -47 20.5t-18 48.5q0 35 22.5 54.5t65.5 19.5q33 0 61.5 -3t62.5 -8t74.5 -8.5t96.5 -3.5q63 0 118.5 3.5t105.5 8.5t98 8t98 3q76 0 162.5 -13.5t152.5 -52.5q76 -47 114 -118.5t38 -159.5q0 -117 -69 -192.5t-175 -104.5v-4 q137 -37 226 -126t89 -239q0 -100 -48 -181t-126 -140q-82 -59 -181 -78t-198 -19q-57 0 -107 3.5t-99.5 8.5t-101.5 8t-112 3q-92 0 -168.5 -11.5t-125.5 -11.5q-35 0 -52.5 20.5t-21.5 53.5q0 29 18.5 49.5t46.5 20.5q25 0 49.5 -5t49.5 -5q82 0 100 75q6 23 8 55.5 t2 68.5v71v59v502z" />
<glyph unicode="C" d="M717 92q86 0 170 33t137 104q41 53 54.5 109.5t13.5 118.5q0 41 16 68.5t63 27.5t66.5 -25.5t19.5 -68.5q0 -117 -44 -212t-118.5 -161t-176 -101.5t-216.5 -35.5q-160 0 -277.5 59.5t-195 159.5t-115.5 231t-38 273q0 129 32.5 266t110.5 248q86 121 212 184.5t274 63.5 q119 0 215 -40t165 -132l5 4q-2 23 -5.5 47t-3.5 47q0 29 17.5 49.5t48.5 20.5q37 0 54.5 -27t17.5 -62q0 -61 -7.5 -124.5t-7.5 -124.5q0 -66 7.5 -117t7.5 -98q0 -41 -21.5 -60.5t-56.5 -19.5q-53 0 -66.5 26.5t-13.5 100.5q0 55 -8.5 109t-42.5 110q-47 76 -129 111.5 t-168 35.5q-129 0 -215 -53t-138.5 -138t-74 -191.5t-21.5 -213.5q0 -104 22.5 -211.5t75 -194.5t139.5 -141.5t216 -54.5z" />
<glyph unicode="D" horiz-adv-x="1515" d="M485 279q0 -41 2 -66t6.5 -39t10.5 -20.5t16 -12.5q27 -14 79 -20t157 -6q63 0 118.5 6t103.5 24.5t91 51t82 86.5q59 84 84 189.5t25 207.5q0 117 -28 231.5t-106 202.5q-39 45 -85 71.5t-97 42t-105.5 20.5t-109.5 5q-61 0 -100 -2t-63.5 -6t-38 -9t-21.5 -13 q-10 -10 -15.5 -33t-5.5 -94v-817zM309 942q0 119 -1 172t-9 82q-18 76 -100 76q-25 0 -49.5 -5t-49.5 -5q-29 0 -47 20.5t-18 48.5q0 29 23.5 51.5t64.5 22.5q33 0 61.5 -3t58 -8t64.5 -8.5t82 -3.5q53 0 99.5 3.5t90.5 8.5t90 8t99 3q145 0 273 -41t229 -152 q45 -51 78.5 -112.5t56 -129t33 -138t10.5 -138.5q0 -137 -38 -272t-126 -244q-47 -55 -105.5 -94t-125 -62.5t-137 -34t-140.5 -10.5q-55 0 -100 3.5t-88 8.5t-89 8t-102 3q-86 0 -143 -11.5t-123 -11.5q-41 0 -68.5 18.5t-27.5 55.5q0 29 18.5 49.5t46.5 20.5 q25 0 49.5 -5t49.5 -5q82 0 100 75q6 23 8 55.5t2 68.5v71v59v502z" />
<glyph unicode="E" horiz-adv-x="1392" d="M485 383l7 -143q2 -41 8 -64.5t24.5 -36t51 -16.5t88.5 -4h241q66 0 113 6t77.5 24.5t45 53.5t14.5 94q0 47 -6 92t-6 92q0 37 17.5 67t60.5 30q45 0 62 -27t17 -68q0 -53 -4 -103t-4 -104q0 -51 4 -102t4 -102q0 -94 -133 -95q-166 0 -334.5 11.5t-357.5 11.5 q-117 0 -196.5 -11.5t-155.5 -11.5q-41 0 -64.5 18.5t-23.5 55.5q0 29 18.5 49.5t46.5 20.5q25 0 49.5 -5t49.5 -5q82 0 100 75q4 16 6 36t3 48.5t1 69.5v100v502v59v71q0 36 -2 69t-8 55q-18 76 -100 76q-25 0 -49.5 -5t-49.5 -5q-29 0 -47 20.5t-18 48.5q0 37 26.5 55.5 t61.5 18.5q76 0 155.5 -11.5t196.5 -11.5q188 0 357 11.5t335 11.5q53 0 81 -21.5t28 -76.5q0 -57 -8 -112.5t-8 -113.5q0 -53 8 -102t8 -100q0 -35 -21.5 -56.5t-56.5 -21.5q-47 0 -61.5 32.5t-14.5 118.5q0 59 -1 100.5t-5 71t-13 50t-26 38.5q-12 12 -28.5 20.5t-51 13.5 t-93 7t-152.5 2q-55 0 -93 -1t-64 -4t-43 -9t-30 -14q-10 -8 -17 -17.5t-11.5 -26t-6.5 -41t-2 -61.5v-166q0 -43 1 -61t18 -29q16 -12 43.5 -13t75.5 -1q98 0 137 19.5t39 72.5q0 33 -6.5 65.5t-6.5 65.5q0 35 17.5 60.5t56.5 25.5q41 0 59.5 -27.5t18.5 -66.5 q0 -41 -12 -118q-9 -58 -10 -133q0 -25 2 -52q-1 -21 -1 -41q0 -29 2 -54q3 -42 7 -77t8 -64.5t4 -56.5q0 -35 -21.5 -53.5t-54.5 -18.5q-43 0 -59.5 24t-16.5 64q0 35 6.5 68t6.5 68q0 53 -33 71.5t-131 18.5q-53 0 -82 -1t-47 -16q-10 -10 -15.5 -31.5t-5.5 -88.5v-152z " />
<glyph unicode="F" horiz-adv-x="1310" d="M485 287q0 -86 21.5 -129t83.5 -43q27 0 52.5 4t53.5 4q37 0 63.5 -16.5t26.5 -57.5q0 -72 -106 -72q-57 0 -112.5 11.5t-133.5 11.5q-53 0 -93 -3t-75 -8t-66.5 -8.5t-68.5 -3.5q-41 0 -68.5 19.5t-27.5 52.5q0 41 26.5 57.5t63.5 16.5q29 0 51.5 -4t46.5 -4 q23 0 44.5 15t31.5 56q8 29 9 84.5t1 169.5v502v100q0 39 -1 66t-3 46.5t-6 41.5q-6 41 -32.5 58.5t-67.5 17.5q-25 0 -49.5 -5t-49.5 -5q-29 0 -47 20.5t-18 48.5q0 29 23.5 51.5t64.5 22.5q76 0 155.5 -11.5t196.5 -11.5q188 0 357 11.5t335 11.5q45 0 72 -21.5t27 -76.5 q0 -57 -8.5 -112.5t-8.5 -113.5q0 -53 8.5 -102t8.5 -100q0 -35 -21.5 -56.5t-56.5 -21.5q-47 0 -61.5 31.5t-14.5 119.5v138q0 66 -15.5 96.5t-58.5 44.5q-29 8 -91 16t-202 8h-106q-55 -4 -86 -10t-46 -22.5t-18.5 -49t-3.5 -90.5v-186q0 -37 2 -58.5t10.5 -33.5t23 -16.5 t36.5 -4.5h119q25 0 47 4.5t39.5 15.5t28 30.5t10.5 52.5t-4 63.5t-4 63.5q0 31 19 54.5t52 23.5q74 0 74 -95q0 -72 -8 -141.5t-8 -140.5q0 -74 8 -150t8 -151q0 -35 -21.5 -57.5t-56.5 -22.5q-29 0 -49 23.5t-20 62.5q0 35 4 67.5t4 65.5q0 59 -31 77.5t-72 18.5h-116 q-61 0 -78 -18.5t-17 -71.5v-272z" />
<glyph unicode="G" horiz-adv-x="1474" d="M698 1290q-121 0 -203.5 -54t-134 -139t-74 -189.5t-22.5 -205.5q0 -102 21.5 -209.5t73 -196.5t137.5 -146.5t213 -57.5q176 0 259 101.5t83 265.5q0 25 -3.5 47t-13.5 39.5t-28.5 29t-47.5 11.5q-31 0 -60.5 -4t-59.5 -4q-29 0 -47.5 21.5t-18.5 49.5q0 33 25.5 53.5 t62.5 20.5q61 0 125 -11.5t129 -11.5q66 0 129.5 11.5t124.5 11.5q35 0 61.5 -18.5t26.5 -55.5q0 -29 -18.5 -50t-46.5 -21q-16 0 -34 5t-36 5q-53 0 -74.5 -53.5t-21.5 -196.5q0 -76 7 -147.5t7 -153.5q0 -35 -21.5 -56.5t-56.5 -21.5t-54.5 20.5t-19.5 53.5q0 29 4.5 58.5 t4.5 60.5h-4q-31 -55 -76 -93.5t-99.5 -63t-115 -35.5t-119.5 -11q-154 0 -268.5 61.5t-189 162.5t-111.5 231.5t-37 265.5q0 61 8 130.5t25.5 137.5t44 132.5t63.5 117.5q84 121 212 183.5t271 62.5q117 0 209 -37t170 -123l4 4q-4 16 -6 37.5t-2 42.5q0 68 74 67 q31 0 50.5 -21.5t19.5 -60.5q0 -59 -7.5 -115.5t-7.5 -113.5q0 -74 7.5 -121t7.5 -90q0 -49 -24 -68.5t-58 -19.5q-47 0 -64.5 26.5t-17.5 76.5v63q0 76 -29 133t-77 96t-112.5 59.5t-138.5 20.5z" />
<glyph unicode="H" horiz-adv-x="1638" d="M1147 807v135v59v71q0 36 -2 69t-8 55q-18 76 -101 76q-25 0 -49 -5t-49 -5q-29 0 -47.5 20.5t-18.5 48.5q0 37 27 55.5t62 18.5q61 0 128.5 -11.5t145.5 -11.5t147.5 11.5t126.5 11.5q35 0 61.5 -18.5t26.5 -55.5q0 -29 -18 -49t-47 -20q-25 0 -49.5 5t-48.5 5 q-82 0 -101 -76q-4 -23 -6 -55.5t-3 -68.5t-1 -71v-59v-502v-59v-71q0 -36 2 -68.5t8 -55.5q20 -76 101 -75q25 0 49 5t49 5q29 0 47 -20.5t18 -49.5q0 -37 -26.5 -55.5t-61.5 -18.5q-74 0 -135 11.5t-139 11.5q-39 0 -70.5 -3t-63.5 -8t-64.5 -8.5t-75.5 -3.5 q-35 0 -62 18.5t-27 55.5q0 29 18.5 49.5t47.5 20.5q25 0 49.5 -5t48.5 -5q82 0 101 75q6 23 8 55.5t2 68.5v71v59v222h-662v-222v-59q0 -35 1 -71t3.5 -68.5t6.5 -55.5q18 -76 100 -75q25 0 49.5 5t48.5 5q29 0 47.5 -20.5t18.5 -49.5q0 -37 -26.5 -55.5t-61.5 -18.5 q-74 0 -135.5 11.5t-139.5 11.5t-139 -11.5t-135 -11.5q-39 0 -63.5 18.5t-24.5 55.5q0 29 18.5 49.5t46.5 20.5q25 0 49.5 -5t49.5 -5q82 0 100 75q6 23 8 55.5t2 68.5v71v59v502v59v71q0 36 -2 69t-8 55q-18 76 -100 76q-25 0 -49.5 -5t-49.5 -5q-29 0 -47 20.5t-18 48.5 q0 37 26.5 55.5t61.5 18.5q68 0 132 -11.5t142 -11.5t146.5 11.5t128.5 11.5q35 0 61.5 -18.5t26.5 -55.5q0 -29 -18.5 -49t-47.5 -20q-25 0 -49 5t-49 5q-82 0 -100 -76q-4 -23 -6.5 -55.5t-3.5 -68.5t-1 -71v-59v-135h662z" />
<glyph unicode="I" horiz-adv-x="778" d="M309 942v59v71q0 36 -2 69t-8 55q-18 76 -100 76q-25 0 -49.5 -5t-49.5 -5q-29 0 -47 20.5t-18 48.5q0 37 26.5 55.5t61.5 18.5q70 0 133 -11.5t141 -11.5t144.5 11.5t130.5 11.5q35 0 61.5 -18.5t26.5 -55.5q0 -29 -18.5 -49t-47.5 -20q-25 0 -49 5t-49 5 q-82 0 -100 -76q-4 -23 -6.5 -55.5t-3.5 -68.5t-1 -71v-59v-502v-59v-71q0 -36 2 -68.5t9 -55.5q20 -76 100 -75q25 0 49.5 5t48.5 5q29 0 47.5 -20.5t18.5 -49.5q0 -37 -26.5 -55.5t-61.5 -18.5q-74 0 -135.5 11.5t-139.5 11.5q-39 0 -72.5 -3t-66.5 -8t-65.5 -8.5 t-69.5 -3.5q-35 0 -61.5 18.5t-26.5 55.5q0 29 18.5 49.5t46.5 20.5q25 0 49.5 -5t49.5 -5q82 0 100 75q6 23 8 55.5t2 68.5v71v59v502z" />
<glyph unicode="J" horiz-adv-x="1269" d="M819 942v59v71q0 36 -2 69t-8 55q-18 76 -100 76q-25 0 -49.5 -5t-49.5 -5q-29 0 -47 20.5t-18 48.5q0 37 25.5 55.5t54.5 18.5q66 0 131 -11.5t143 -11.5q39 0 73 3.5t65.5 8.5t65.5 8t71 3q41 0 68.5 -18.5t27.5 -55.5q0 -29 -18.5 -49t-47.5 -20q-25 0 -49.5 5 t-48.5 5q-82 0 -100 -76q-6 -23 -8.5 -55.5t-2.5 -68.5v-71v-59v-127q0 -59 2 -138q1 -32 1 -64q0 -48 -2 -97q-3 -82 -12 -157.5t-34 -127.5q-33 -72 -85 -124t-116.5 -87.5t-138 -53t-149.5 -17.5q-96 0 -186.5 25.5t-160 76.5t-112.5 129t-43 185q0 66 22.5 123t62.5 100 t95.5 67.5t120.5 24.5q80 0 140.5 -44t60.5 -130q0 -45 -33 -85t-80 -40q-37 0 -69.5 23.5t-32.5 64.5q0 37 28 55q-10 6 -16 8.5t-18 2.5q-27 0 -47.5 -16.5t-35 -40t-22.5 -51.5t-8 -50q0 -68 26.5 -120t71.5 -89t102.5 -56.5t118.5 -19.5q90 0 173 32t135 116 q51 84 58 179t7 189v334z" />
<glyph unicode="K" horiz-adv-x="1638" d="M1063 1196q23 16 32 26.5t9 24.5q0 25 -39 25q-33 0 -67.5 -5t-79.5 -5q-29 0 -47.5 20.5t-18.5 48.5q0 74 119 74q84 0 152.5 -11.5t146.5 -11.5t141.5 11.5t132.5 11.5q35 0 61.5 -18.5t26.5 -55.5q0 -29 -18.5 -49t-46.5 -20q-43 0 -73 5t-60 5q-45 0 -74 -24.5 l-64 -51.5l-362 -301l-29 -25q-14 -12 -14 -26q0 -12 7 -23.5t24 -34.5l34 -49l336 -456l103 -127q20 -25 38.5 -34t51.5 -9q23 0 47 5t59 5q29 0 47.5 -20.5t18.5 -49.5q0 -37 -26.5 -55.5t-61.5 -18.5q-59 0 -128 11.5t-147 11.5t-143.5 -11.5t-130.5 -11.5 q-82 0 -117 18.5t-35 55.5q0 29 18.5 49.5t47.5 20.5q59 0 101 -5t83 -5q23 0 37 4t14 20q0 12 -10 27l-22 31l-365 493q-10 16 -18.5 26.5t-18.5 10.5q-8 0 -22.5 -14.5t-22.5 -18.5l-205 -178v-72v-59v-71q0 -36 2 -68.5t9 -55.5q20 -76 100 -75q25 0 49.5 5t48.5 5 q29 0 47.5 -20.5t18.5 -49.5q0 -37 -25.5 -55.5t-62.5 -18.5q-39 0 -72 3.5t-64.5 8.5t-65.5 8t-73 3q-78 0 -138 -11.5t-136 -11.5q-35 0 -61.5 18.5t-26.5 55.5q0 29 18.5 49.5t46.5 20.5q25 0 49.5 -5t49.5 -5q82 0 100 75q6 23 8 55.5t2 68.5v71v59v502v59v71 q0 36 -2 69t-8 55q-18 76 -100 76q-25 0 -49.5 -5t-49.5 -5q-29 0 -47 20.5t-18 48.5q0 37 26.5 55.5t61.5 18.5q61 0 128.5 -11.5t145.5 -11.5t141.5 11.5t133.5 11.5q35 0 61.5 -18.5t26.5 -55.5q0 -29 -18.5 -49t-47.5 -20q-25 0 -49 5t-49 5q-80 0 -100 -76 q-6 -23 -8.5 -55.5t-2.5 -68.5v-71v-59v-235z" />
<glyph unicode="L" horiz-adv-x="1310" d="M311 942v59v71q0 36 -2 69t-8 55q-18 76 -100 76q-25 0 -49.5 -5t-49.5 -5q-29 0 -47 20.5t-18 48.5q0 37 21.5 55.5t58.5 18.5q74 0 135 -11.5t139 -11.5q39 0 73 3.5t65.5 8.5t65.5 8t71 3q41 0 68.5 -18.5t27.5 -55.5q0 -29 -18.5 -49t-47.5 -20q-25 0 -49 5t-49 5 q-80 0 -100 -76q-6 -23 -8.5 -55.5t-2.5 -68.5v-71v-59v-674q0 -51 5.5 -81.5t20.5 -47t44 -21.5t74 -5h233q43 0 100.5 3t98.5 23q51 27 60.5 73t9.5 97q0 43 -4.5 86t-4.5 88q0 35 16.5 62.5t57.5 27.5q45 0 66.5 -18t21.5 -63q0 -53 -8 -103.5t-8 -103.5q0 -49 8 -96.5 t8 -94.5q0 -66 -33.5 -91.5t-81.5 -25.5q-166 0 -331.5 9.5t-331.5 13.5h-24q-72 0 -152 -10q-94 -12 -205 -13q-92 0 -92 70q0 29 19.5 51.5t47.5 22.5q25 0 49.5 -7.5t49.5 -7.5q37 0 58.5 16.5t32.5 54.5t15 102.5t4 160.5v502z" />
<glyph unicode="M" horiz-adv-x="1966" d="M979 180h4l309 1102q6 20 13.5 42t19.5 40t29.5 29.5t42.5 11.5q59 0 105 -11.5t106 -11.5q59 0 108 11.5t103 11.5q41 0 68.5 -18.5t27.5 -55.5q0 -29 -18.5 -49t-47.5 -20q-25 0 -49 5t-49 5q-82 0 -100 -76q-6 -23 -8.5 -55.5t-2.5 -68.5v-71v-59v-502v-59v-71 q0 -36 2.5 -68.5t8.5 -55.5q18 -76 100 -75q25 0 49.5 5t48.5 5q29 0 47.5 -20.5t18.5 -49.5q0 -37 -27.5 -55.5t-68.5 -18.5q-66 0 -131.5 11.5t-143.5 11.5q-39 0 -71.5 -3t-64.5 -8t-65.5 -8.5t-72.5 -3.5q-29 0 -54.5 18.5t-25.5 55.5q0 29 18.5 49.5t46.5 20.5 q25 0 49.5 -5t49.5 -5q82 0 100 75q6 23 8 55.5t2 68.5v71v59v822q-6 0 -10 -11.5t-8 -25.5l-346 -1151q-16 -55 -39 -79t-80 -24q-72 0 -94.5 22.5t-38.5 80.5l-342 1151q-4 14 -9 25.5t-12 11.5v-822v-59v-71q0 -36 2 -68.5t9 -55.5q18 -76 100 -75q25 0 49.5 5t48.5 5 q29 0 47.5 -20.5t18.5 -49.5q0 -74 -88 -74q-68 0 -132.5 11.5t-142.5 11.5t-138 -11.5t-136 -11.5q-35 0 -61.5 18.5t-26.5 55.5q0 29 18.5 49.5t46.5 20.5q25 0 49.5 -5t49.5 -5q82 0 100 75q6 23 8 55.5t2 68.5v71v59v502v59v71q0 36 -2 69t-8 55q-18 76 -100 76 q-25 0 -49.5 -5t-49.5 -5q-29 0 -47 20.5t-18 48.5q0 37 28.5 55.5t75.5 18.5q55 0 103.5 -11.5t107.5 -11.5t110.5 11.5t100.5 11.5q33 0 55.5 -19.5t37 -47t23.5 -59.5t15 -56z" />
<glyph unicode="N" horiz-adv-x="1556" d="M309 942v59v71q0 36 -2 69t-8 55q-18 76 -100 76q-25 0 -49.5 -5t-49.5 -5q-29 0 -47 20.5t-18 48.5q0 37 29.5 55.5t76.5 18.5q43 0 86 -11.5t99 -11.5q55 0 100 11.5t92 11.5q27 0 44.5 -10.5t29.5 -27.5t22 -40l21 -47l502 -1145h4v807v59v71q0 36 -2 69t-9 55 q-18 76 -100 76q-25 0 -49.5 -5t-48.5 -5q-29 0 -47.5 20.5t-18.5 48.5q0 37 30 55.5t77 18.5q68 0 132 -11.5t142 -11.5t147.5 11.5t127.5 11.5q35 0 52 -21.5t17 -52.5q0 -29 -18.5 -49t-46.5 -20q-25 0 -49.5 5t-49.5 5q-80 0 -100 -76q-6 -23 -8 -55.5t-3 -68.5 q-1 -18 -1 -35.5t1 -35.5q1 -35 1 -59v-704q0 -41 -3 -91.5t-17.5 -94.5t-46 -73.5t-89.5 -29.5q-39 0 -67.5 15.5t-49 41t-37 57t-30.5 64.5l-488 1114h-4v-801v-59v-71q0 -36 2 -68.5t9 -55.5q20 -76 100 -75q25 0 49.5 5t48.5 5q29 0 47.5 -20.5t18.5 -49.5 q0 -37 -30 -55.5t-77 -18.5q-35 0 -65.5 3.5t-61 8.5t-63.5 8t-72 3q-72 0 -132 -11.5t-118 -11.5q-47 0 -76.5 18.5t-29.5 55.5q0 29 18.5 49.5t46.5 20.5q25 0 49.5 -5t49.5 -5q82 0 100 75q6 23 8 55.5t2 68.5v71v59v502z" />
<glyph unicode="O" horiz-adv-x="1392" d="M678 92q117 0 209 62.5t145 167.5q20 41 35.5 92t24 104t12.5 104.5t4 92.5q0 45 -4 95t-14.5 101.5t-28 100.5t-41.5 90q-53 90 -138 137t-190 51q-129 -2 -213 -58t-131 -144.5t-65.5 -196t-18.5 -209.5q0 -43 4 -94t14.5 -103.5t28 -102.5t41.5 -93 q53 -88 137.5 -142.5t188.5 -54.5zM678 -51q-162 0 -276.5 63.5t-186.5 168t-105.5 237.5t-33.5 272q0 147 34.5 281.5t108.5 237t190.5 164t282.5 61.5q137 0 253 -49.5t202 -159.5q37 -49 65.5 -111.5t47 -129t27.5 -133.5t9 -126t-7 -126t-22.5 -134.5t-39 -133 t-58.5 -118.5q-82 -129 -209.5 -196.5t-281.5 -67.5z" />
<glyph unicode="P" d="M485 784q0 -27 13.5 -36t36.5 -9h196q74 0 144.5 8.5t124 36t86 82t32.5 146.5q0 76 -34.5 142.5t-110.5 90.5q-27 8 -63 13.5t-74.5 7.5t-75.5 2h-66q-16 0 -44.5 -1t-57.5 -5.5t-54.5 -13.5t-37.5 -23q-6 -8 -8.5 -26.5t-4.5 -40t-2 -42.5v-31v-301zM309 942v59v71 q0 36 -2 69t-8 55q-18 76 -100 76q-25 0 -49.5 -5t-49.5 -5q-29 0 -47 20.5t-18 48.5q0 37 28.5 55.5t69.5 18.5q57 0 116.5 -11.5t149.5 -11.5q131 0 231.5 11.5t147.5 11.5q86 0 180.5 -11.5t167.5 -54.5q94 -55 137.5 -142t43.5 -191q0 -113 -53.5 -206t-155.5 -143 q-49 -25 -103.5 -37t-112 -17t-115.5 -5h-112h-116q-29 0 -41.5 -8t-12.5 -37v-113v-59q0 -35 1 -71t3.5 -68.5t6.5 -55.5q18 -76 100 -75q25 0 49.5 5t48.5 5q29 0 47.5 -20.5t18.5 -49.5q0 -37 -27.5 -55.5t-62.5 -18.5q-57 0 -127 11.5t-148 11.5t-143.5 -11.5 t-130.5 -11.5q-33 0 -59.5 18.5t-26.5 55.5q0 29 18.5 49.5t46.5 20.5q25 0 49.5 -5t49.5 -5q82 0 100 75q6 23 8 55.5t2 68.5v71v59v502z" />
<glyph unicode="Q" d="M782 252q0 33 -5 66.5t-18.5 60.5t-39 44t-66.5 17q-72 0 -112.5 -47t-40.5 -114q0 -78 44 -132.5t124 -54.5q31 0 58.5 6t55.5 17v137zM922 176q47 55 76.5 119.5t45 133.5t20.5 139.5t5 136.5q0 92 -16.5 195.5t-59.5 190.5t-118.5 143t-194.5 56q-127 0 -208 -57 t-127 -146.5t-63.5 -198t-17.5 -208.5q0 -82 8.5 -181.5t46.5 -185.5q8 -18 21.5 -43.5t30 -51t35 -47t36.5 -32.5l4 4q-27 39 -40 86t-13 97q0 55 24.5 99t63.5 74.5t88 47t101 16.5q66 0 127 -31.5t92 -91.5q27 -49 29 -105l4 -110v-49zM936 -125q-2 -33 1 -63.5t14.5 -55 t35 -40t64.5 -15.5q68 0 85 36t21 91l4 37q2 18 9.5 32.5t20.5 23.5t38 9q53 0 68.5 -28.5t15.5 -75.5q0 -41 -14.5 -85t-38.5 -77q-41 -53 -98.5 -74.5t-123.5 -21.5q-127 0 -192.5 67.5t-63.5 190.5v137q-16 -4 -30.5 -6t-30.5 -4t-30.5 -3t-31.5 -1q-158 0 -268 63.5 t-181 166t-102.5 233.5t-31.5 264q0 59 7 125.5t21.5 134.5t38 131t56.5 117q76 123 202.5 186.5t268.5 63.5q160 0 271.5 -62.5t182 -166t102 -234.5t31.5 -269q0 -96 -16 -194t-53 -188.5t-98.5 -167t-153.5 -132.5v-145z" />
<glyph unicode="R" horiz-adv-x="1515" d="M485 838q0 -37 10.5 -45.5t53.5 -8.5h168q66 0 144.5 6.5t137.5 36.5q57 29 81 88.5t24 122.5q0 74 -24.5 121t-68.5 76t-103.5 40t-127.5 11q-86 0 -142 -7t-90 -21.5t-48.5 -36t-14.5 -50.5v-333zM1221 274q0 -35 2 -62.5t13 -47t34.5 -29.5t66.5 -10q23 0 47.5 3 t47.5 3q35 0 58 -18.5t23 -55.5q0 -33 -21.5 -56.5t-55.5 -23.5q-47 0 -85 3.5t-98 3.5q-63 0 -104 22.5t-64.5 59t-33 87t-9.5 105.5v129q0 31 -1 62.5t-8 60.5t-22.5 53.5t-43.5 42.5q-18 12 -38 19.5t-49.5 11.5t-75.5 5t-122 1q-106 0 -151.5 -17.5t-45.5 -80.5v-105 q0 -68 1 -111.5t2 -71.5t3.5 -44t4.5 -27q18 -76 100 -75q25 0 49.5 5t48.5 5q29 0 47.5 -20.5t18.5 -49.5q0 -37 -26.5 -55.5t-61.5 -18.5q-63 0 -130 11.5t-145 11.5t-138 -11.5t-136 -11.5q-35 0 -61.5 18.5t-26.5 55.5q0 29 18.5 49.5t46.5 20.5q25 0 49.5 -5t49.5 -5 q82 0 100 75q6 23 8 55.5t2 68.5v71v59v502v59v71q0 36 -2 69t-8 55q-18 76 -100 76q-25 0 -49.5 -5t-49.5 -5q-29 0 -47 20.5t-18 48.5q0 37 26.5 55.5t61.5 18.5q92 0 171 -11.5t157 -11.5q131 0 221 11.5t157 11.5q76 0 163 -11.5t151 -52.5q74 -47 111.5 -124.5 t37.5 -163.5q0 -80 -22.5 -138.5t-63.5 -98.5t-100 -64.5t-133 -36.5v-4q80 -10 128 -36t74.5 -69t36 -101.5t9.5 -131.5v-99z" />
<glyph unicode="S" horiz-adv-x="1228" d="M649 795q84 -14 169 -32t157 -63q86 -53 123 -134t37 -173q0 -109 -42 -191.5t-113 -139t-162 -85t-191 -28.5q-113 0 -216.5 33.5t-179.5 117.5l-4 -4l6 -71q0 -76 -75 -76q-43 0 -62.5 30.5t-19.5 112.5q0 72 8 123t8 100q0 53 -8 104.5t-8 98.5q0 41 20.5 67.5 t61.5 26.5t61.5 -24.5t20.5 -65.5q0 -23 -2 -46t-2 -46q0 -82 29.5 -145.5t79.5 -106.5t117.5 -64.5t145.5 -21.5q57 0 123 13.5t113 44.5q53 35 83.5 95t30.5 126q0 72 -24.5 116.5t-66.5 72.5t-97 41t-117 24q-41 6 -87 15l-93 19q-47 10 -92 24.5t-82 33.5 q-90 45 -139 127t-49 172q0 94 37.5 174t109.5 139t161 82t181 23q96 0 182 -30t152 -101v28q0 33 13.5 58.5t49.5 25.5q41 0 57.5 -28.5t16.5 -63.5q0 -53 -8 -103.5t-8 -103.5q0 -51 8 -96t8 -84t-16.5 -70.5t-63.5 -31.5q-39 0 -60.5 23.5t-21.5 60.5q0 25 3 50t3 52 q0 72 -26.5 123t-71.5 84t-104.5 48t-122.5 15q-57 0 -111.5 -15t-97.5 -46t-68.5 -78t-25.5 -111q0 -57 20.5 -97t64.5 -67.5t112.5 -46t164.5 -34.5z" />
<glyph unicode="T" horiz-adv-x="1310" d="M735 440v-59q0 -35 1 -71t3 -68.5t6 -55.5q8 -41 34 -58t67 -17q25 0 49.5 5t48.5 5q29 0 47.5 -20.5t18.5 -49.5q0 -37 -23.5 -55.5t-62.5 -18.5q-37 0 -66 3.5t-58.5 8.5t-65.5 8t-87 3t-87 -3t-65.5 -8t-58 -8.5t-65.5 -3.5q-39 0 -62.5 18.5t-23.5 55.5 q0 29 18.5 49.5t46.5 20.5q25 0 49.5 -5t49.5 -5q41 0 66.5 17t33.5 58q4 23 6 55.5t3 68.5t1 71v59v668q0 39 -9 79t-46 62q-33 18 -67 21.5t-70 3.5q-41 0 -75 -4t-58.5 -19.5t-39 -44t-14.5 -78.5q0 -37 2 -64l4 -53l4 -52q2 -26 3 -58q0 -68 -19.5 -84t-60.5 -16 q-35 0 -56.5 23.5t-21.5 76.5q0 27 2 48.5t5 41.5l6 42q3 22 3 48q0 57 -8 112.5t-8 113.5q0 55 25.5 76.5t60.5 21.5q111 0 236.5 -11.5t289.5 -11.5t290 11.5t237 11.5q35 0 60.5 -21.5t25.5 -76.5q0 -57 -8.5 -112.5t-8.5 -113.5q0 -27 2 -48t5 -42l6 -42q3 -22 4 -48 q0 -53 -21.5 -76.5t-56.5 -23.5q-41 0 -60.5 16.5t-19.5 83.5q0 33 2 58l4 52l4 53q2 28 2 64q0 49 -14.5 78t-39 44.5t-59 19.5t-73.5 4q-37 0 -71 -3t-66 -22q-37 -23 -46.5 -62.5t-9.5 -78.5v-668z" />
<glyph unicode="U" horiz-adv-x="1474" d="M240 940v59q0 35 -1 71t-3.5 70t-6.5 56q-6 41 -32.5 58.5t-67.5 17.5q-25 0 -49.5 -5t-48.5 -5q-29 0 -47.5 20.5t-18.5 48.5q0 33 22.5 53.5t55.5 20.5q74 0 135.5 -11.5t138.5 -11.5q78 0 144.5 11.5t130.5 11.5q41 0 69.5 -18.5t28.5 -55.5q0 -29 -18.5 -49 t-46.5 -20q-25 0 -49.5 5t-49.5 5q-41 0 -66.5 -17.5t-33.5 -58.5q-4 -23 -6 -56.5t-3 -69.5t-1 -71v-59v-469q0 -68 7 -145.5t50 -132.5q45 -57 122 -79t146 -22q72 0 143.5 20.5t121.5 73.5q25 27 38 62t20 72.5t8 76.5t1 74v469v59q0 35 -1 71t-3 70t-6 56 q-6 41 -32.5 58.5t-67.5 17.5q-25 0 -49.5 -5t-49.5 -5q-29 0 -47 20.5t-18 48.5q0 33 22.5 53.5t55.5 20.5q74 0 135 -11.5t139 -11.5t144.5 11.5t129.5 11.5q41 0 70 -18.5t29 -55.5q0 -29 -18.5 -49t-47.5 -20q-25 0 -49.5 5t-48.5 5q-41 0 -66.5 -17.5t-33.5 -58.5 q-4 -23 -6.5 -56.5t-3.5 -69.5t-1 -71v-59v-420q0 -55 -2 -110.5t-11 -108.5t-29.5 -103.5t-57.5 -95.5q-76 -90 -184.5 -121.5t-221.5 -31.5q-92 0 -192 23.5t-174 76.5q-47 33 -74 75t-41 89t-18 98t-4 105v524z" />
<glyph unicode="V" horiz-adv-x="1515" d="M795 166h4l272 858q6 14 12 36l13 45q6 24 10 45t4 38q0 39 -22.5 60.5t-61.5 21.5q-23 0 -48.5 -4t-66.5 -4q-29 0 -47 20.5t-18 48.5q0 37 26.5 55.5t61.5 18.5q61 0 114.5 -11.5t120.5 -11.5q33 0 63 3.5t57.5 8.5t55 8t60.5 3q35 0 61.5 -18.5t26.5 -55.5 q0 -29 -18.5 -49t-34.5 -20t-31.5 4t-34.5 4q-14 0 -28.5 -9.5t-24.5 -41.5l-389 -1131q-20 -57 -47 -91t-97 -34q-72 0 -97 33t-46 92l-360 1016q-10 27 -19.5 56.5t-24 54t-37 40t-59.5 15.5q-23 0 -47 -4t-59 -4q-29 0 -47.5 20.5t-18.5 48.5q0 37 30 55.5t83 18.5 q70 0 133.5 -11.5t140.5 -11.5q78 0 137.5 11.5t137.5 11.5q35 0 61.5 -18.5t26.5 -55.5q0 -29 -18.5 -49t-47.5 -20q-39 0 -64.5 4t-49.5 4q-31 0 -54.5 -14.5t-23.5 -49.5q0 -25 7 -52.5t15 -49.5z" />
<glyph unicode="W" horiz-adv-x="1966" d="M1470 104q-12 -55 -38.5 -98t-94.5 -43q-37 0 -61.5 14.5t-41.5 38t-26.5 53t-15.5 62.5l-205 1071h-4l-229 -1128q-10 -51 -33 -81t-82 -30q-39 0 -62.5 9.5t-39 27.5t-23.5 45t-16 59l-234 977q-6 31 -16 71t-25 69q-23 49 -78 49q-23 0 -46 -4t-58 -4 q-29 0 -47.5 20.5t-18.5 48.5q0 74 121 74q68 0 132.5 -11.5t142.5 -11.5t139 11.5t135 11.5q35 0 61.5 -18.5t26.5 -55.5q0 -29 -18.5 -49t-46.5 -20q-45 0 -83 4t-79 4q-35 0 -54.5 -16.5t-19.5 -51.5q0 -25 7 -60.5l18 -92.5l170 -846h4l211 1050q20 98 51 133t96 35 q72 0 103.5 -44t42.5 -107l202 -1084h4l172 832l20 94q7 35 7 76q0 86 -86 86q-29 0 -60.5 -6t-76.5 -6q-29 0 -47.5 20.5t-18.5 48.5q0 35 22.5 54.5t61.5 19.5q74 0 135.5 -11.5t139.5 -11.5t140 11.5t134 11.5q35 0 61.5 -18.5t26.5 -55.5q0 -29 -18.5 -49t-46.5 -20 q-23 0 -46.5 5t-48.5 5q-29 0 -44 -12.5t-27 -34.5q-10 -23 -20 -61l-25 -101z" />
<glyph unicode="X" horiz-adv-x="1638" d="M834 850l276 352q10 10 20.5 24.5t10.5 30.5t-49 17q-35 0 -65 -6t-71 -6q-29 0 -47 20.5t-18 48.5q0 33 21.5 53.5t56.5 20.5q74 0 135 -11.5t139 -11.5t143.5 11.5t131.5 11.5q47 0 67.5 -22.5t20.5 -51.5t-18.5 -49t-47.5 -20q-35 0 -59.5 5t-46.5 5 q-31 0 -59.5 -24.5t-80.5 -84.5l-358 -438l475 -567q20 -25 39.5 -34t52.5 -9q16 0 30.5 3t29.5 3q35 0 61.5 -18.5t26.5 -55.5q0 -29 -18.5 -49.5t-47.5 -20.5q-72 0 -134 11.5t-140 11.5q-35 0 -67 -3t-64.5 -8t-67.5 -8.5t-76 -3.5q-61 0 -94 17.5t-33 58.5 q0 33 24.5 50.5t61.5 17.5q35 0 70 -4t70 -4q47 0 47 22q0 16 -14.5 38t-39.5 52l-303 379l-293 -379q-33 -41 -43 -59.5t-10 -30.5q0 -10 11.5 -15t41.5 -5q37 0 73 3t71 3t61.5 -18.5t26.5 -55.5q0 -29 -18.5 -49.5t-47.5 -20.5q-66 0 -127 11.5t-147 11.5q-45 0 -83 -3 t-75 -8t-78 -8.5t-90 -3.5q-66 0 -89 20.5t-23 49.5q0 37 26.5 55.5t61.5 18.5q23 0 45 -3t45 -3q35 0 56.5 11t43.5 34l103 121l360 444l-375 438q-49 57 -76.5 83t-62.5 26q-29 0 -56.5 -5t-62.5 -5q-29 0 -47 20.5t-18 48.5q0 37 30.5 55.5t79.5 18.5q72 0 134.5 -11.5 t140.5 -11.5q39 0 72.5 3.5t65.5 8.5t65.5 8t70.5 3q35 0 61.5 -18.5t26.5 -55.5q0 -29 -18.5 -49t-46.5 -20q-51 0 -87 7t-71 7q-8 0 -18.5 -2t-10.5 -12t10 -21l19 -22z" />
<glyph unicode="Y" horiz-adv-x="1556" d="M797 672l315 528l17 29q7 12 8 26q0 14 -13.5 16.5t-36.5 2.5q-39 0 -77.5 -6t-77.5 -6q-29 0 -47.5 20.5t-18.5 48.5q0 31 26 52.5t66 21.5q74 0 135.5 -11.5t139.5 -11.5t146.5 11.5t127.5 11.5q41 0 64.5 -18.5t23.5 -55.5q0 -29 -18 -49t-47 -20t-60.5 7t-54.5 7 q-43 0 -61.5 -18.5t-40.5 -51.5l-436 -686v-90v-57q0 -33 1 -67t3 -65.5t6 -54.5q8 -41 33.5 -58t66.5 -17q25 0 49.5 5t48.5 5q35 0 62 -18.5t27 -55.5q0 -29 -18.5 -49.5t-47.5 -20.5q-37 0 -70.5 3.5t-70.5 8.5t-80 8t-99 3q-49 0 -84.5 -3t-67.5 -8t-62.5 -8.5 t-69.5 -3.5q-55 0 -78 20.5t-23 49.5q0 37 27 55.5t62 18.5q27 0 52 -5t52 -5q35 0 60.5 17t31.5 50q4 20 7 51t4 63t1 63v55v98l-424 672q-31 49 -55 69.5t-59 20.5q-27 0 -54.5 -4t-62.5 -4q-29 0 -47 20.5t-18 48.5q0 31 22.5 52.5t63.5 21.5q66 0 131 -11.5t143 -11.5 t142.5 11.5t131.5 11.5q41 0 64.5 -19.5t23.5 -54.5q0 -29 -18 -49t-47 -20q-45 0 -78 6t-57 6q-25 0 -34 -5t-9 -16q0 -10 7 -20t19 -33z" />
<glyph unicode="Z" horiz-adv-x="1269" d="M987 1272h-485q-66 0 -113 -7.5t-77.5 -30t-45 -65.5t-14.5 -114q0 -35 2 -71t2 -71q0 -84 -82 -84q-47 0 -61.5 27t-14.5 68q0 51 8.5 100t8.5 100q0 47 -8.5 90t-8.5 89q0 102 119 102h827q49 0 81 -6t49.5 -18.5t23.5 -32t6 -48.5q0 -14 -1 -24t-7 -22.5t-18.5 -29 t-32.5 -40.5l-907 -1059h495q49 0 114.5 2t113.5 16q59 16 75.5 59.5t16.5 98.5q0 45 -7.5 89t-7.5 91q0 84 82 84q47 0 61.5 -26.5t14.5 -67.5q0 -51 -8 -100t-8 -101q0 -47 8 -90t8 -88q0 -55 -31.5 -78.5t-87.5 -23.5h-854q-98 0 -133 29.5t-35 86.5q0 35 12.5 63 t53.5 79z" />
<glyph unicode="[" horiz-adv-x="696" d="M393 -18q0 -80 11.5 -107t46.5 -27q23 0 45 10.5t45 10.5q29 0 47 -20.5t18 -49.5q0 -74 -76 -73q-41 0 -75.5 11t-75.5 11q-37 0 -58.5 -11t-48.5 -11q-31 0 -43 17t-12 77v1491q0 55 15.5 74.5t39.5 19.5q27 0 48.5 -11.5t58.5 -11.5q41 0 80 11.5t80 11.5 q29 0 48 -18.5t19 -55.5q0 -29 -18.5 -49t-46.5 -20q-10 0 -22.5 3t-22.5 7q-25 10 -45 10q-35 0 -46.5 -26.5t-11.5 -106.5v-1167z" />
<glyph unicode="\" horiz-adv-x="1146" d="M160 1405h135l588 -1415h-133z" />
<glyph unicode="]" horiz-adv-x="696" d="M289 1149q0 80 -11.5 106.5t-46.5 26.5q-20 0 -45 -10q-10 -4 -21 -7t-24 -3q-29 0 -47 20.5t-18 48.5q0 37 19.5 55.5t47.5 18.5q41 0 80 -11.5t80 -11.5q37 0 58.5 11.5t48.5 11.5q25 0 40 -19.5t15 -74.5v-1491q0 -59 -12.5 -76.5t-42.5 -17.5q-27 0 -48.5 11 t-58.5 11q-41 0 -75.5 -11t-75.5 -11q-76 0 -76 73q0 29 18.5 49.5t46.5 20.5q23 0 45.5 -10.5t44.5 -10.5q35 0 46.5 27t11.5 107v1167z" />
<glyph unicode="^" horiz-adv-x="1269" d="M106 604l435 830h159l435 -830h-168l-346 635l-347 -635h-168z" />
<glyph unicode="_" horiz-adv-x="1024" d="M1024 -154v-102h-1024v102h1024z" />
<glyph unicode="`" horiz-adv-x="696" d="M496 1235q12 -10 25.5 -22.5t13.5 -30.5q0 -10 -9.5 -16.5t-19.5 -6.5q-12 0 -23.5 4t-21.5 8l-283 105q-33 12 -55.5 31.5t-22.5 58.5t26 68.5t67 29.5q29 0 47 -12t39 -31z" />
<glyph unicode="a" horiz-adv-x="1228" d="M240 260q0 -47 18 -78.5t48 -53.5t68 -31t79 -9q72 0 141.5 24.5t116.5 84.5q35 47 43 96t8 102q0 33 1 66t3 65q-29 -29 -63.5 -44t-71.5 -23t-76 -13l-76 -8q-41 -4 -83 -12t-76.5 -27.5t-57 -52.5t-22.5 -86zM926 307q0 -25 -2 -62q-1 -11 -1 -22q0 -27 4 -52 q5 -36 22.5 -61.5t54.5 -25.5q33 0 48 21.5t21 51t5 62.5t-1 55v43q0 23 5 40.5t18.5 28.5t42.5 11q43 0 57 -24.5t14 -59.5q0 -117 -5 -178t-38 -104q-31 -43 -80 -58.5t-100 -15.5q-76 0 -134 35t-75 112q-53 -86 -143 -120.5t-188 -34.5q-63 0 -127 12t-117 47 q-63 41 -100 103.5t-37 140.5q0 86 33.5 152.5t105.5 107.5q68 41 133.5 52t140.5 22l96.5 9t92.5 19.5t68.5 45t27.5 88.5q0 51 -19.5 86.5t-51 57t-73.5 31t-87 9.5q-41 0 -82 -12.5t-76 -32.5q-12 -8 -29.5 -22.5t-17.5 -30.5q0 -4 7 -7.5t16.5 -11.5t17.5 -23.5t8 -41.5 q0 -47 -34 -72t-77 -25q-53 0 -90 38t-37 93q0 66 37 120t90 91q55 39 129 57.5t142 18.5q72 0 146.5 -18.5t133.5 -63.5q76 -59 95 -139q18 -72 18 -155v-17z" />
<glyph unicode="b" horiz-adv-x="1187" d="M182 1112v48q0 30 -4 58.5t-16 49t-39 20.5t-49.5 -6t-44.5 -6q-31 0 -50.5 19.5t-19.5 47.5q0 29 22.5 52.5t57.5 23.5q20 0 36.5 -3t31 -8t29 -8t34.5 -3q39 0 64.5 11t66.5 11q27 0 33 -13t6 -44v-442h4q61 78 135 114.5t172 36.5q119 0 206 -42t145.5 -113.5t87 -170 t28.5 -208.5q0 -115 -28.5 -220.5t-89 -187.5t-151.5 -131t-216 -49q-98 0 -182 35.5t-132 126.5l-4 -5q4 -14 7.5 -30.5t3.5 -32.5q0 -35 -19.5 -53.5t-54.5 -18.5q-53 0 -61.5 30t-8.5 75v1036zM639 932q-70 0 -132.5 -34t-103.5 -91q-39 -55 -51 -127t-12 -135 q0 -78 7 -155t36 -148q31 -76 99.5 -115t146.5 -39q88 0 149.5 38t99 98.5t54 137t16.5 154.5q0 76 -14 149.5t-50 133t-95.5 96.5t-149.5 37z" />
<glyph unicode="c" horiz-adv-x="1024" d="M563 88q96 0 164 53.5t92 145.5q6 20 11.5 42.5t14.5 41t25.5 31t42.5 12.5q33 0 56.5 -23.5t23.5 -56.5q0 -31 -10 -66t-26.5 -68.5t-36 -65.5t-39.5 -52q-63 -70 -149.5 -101.5t-178.5 -31.5q-117 0 -206 44t-148.5 118.5t-90 172t-30.5 205.5q0 119 30.5 224.5 t93 185.5t157 126t223.5 46q63 0 128.5 -18.5t118.5 -55.5q59 -41 98.5 -107.5t39.5 -137.5q0 -37 -9.5 -70t-28 -59.5t-48 -42t-68.5 -15.5q-47 0 -84 31t-37 82q0 45 33 68.5t74 25.5q-2 39 -24.5 69.5t-55.5 50t-72 30t-74 10.5q-86 0 -148.5 -38t-101 -98.5t-57 -135 t-18.5 -150.5q0 -74 15.5 -149.5t52 -136t97 -98.5t150.5 -38z" />
<glyph unicode="d" horiz-adv-x="1228" d="M553 932q-88 0 -146.5 -39t-94.5 -100.5t-50 -137t-14 -149.5q0 -76 17.5 -150.5t56 -134t98 -96.5t145.5 -37q78 0 147.5 35t104.5 106q31 61 39 139t8 150q0 74 -10 155t-55 142t-107.5 89t-138.5 28zM1022 281q0 -106 13.5 -139t45.5 -33q27 0 49.5 6t45.5 6 q31 0 50 -19.5t19 -48.5q0 -35 -20.5 -55.5t-46.5 -20.5q-29 0 -57.5 11.5t-63.5 11.5q-16 0 -28.5 -3t-25 -8t-25.5 -8.5t-32 -3.5q-41 0 -56.5 19.5t-15.5 79.5v20h-4q-47 -78 -136 -112.5t-179 -34.5q-123 0 -212 47t-148.5 125t-88 181.5t-28.5 213.5q0 109 27.5 209 t85 177t145.5 123t207 46q96 0 180 -33.5t137 -119.5h4v198q0 57 -4 91t-11 52.5t-18.5 23.5t-25.5 5q-27 0 -49.5 -6t-44.5 -6q-31 0 -50.5 19.5t-19.5 47.5q0 35 24.5 55.5t53.5 20.5q43 0 72.5 -11t72.5 -11q41 0 66.5 11t56.5 11q16 0 25.5 -17.5t9.5 -70.5v-1050z" />
<glyph unicode="e" horiz-adv-x="1105" d="M870 635q-4 63 -23.5 117.5t-56 94.5t-89 62.5t-119.5 22.5q-66 0 -121 -22.5t-97 -61.5t-67 -94.5t-31 -118.5h604zM248 487q-1 -14 -1 -26q0 -64 16 -124q19 -73 61.5 -128t106 -88t147.5 -33q104 0 178.5 51t103.5 152q10 33 23.5 61.5t54.5 28.5q35 0 58.5 -21.5 t23.5 -56.5q0 -63 -38 -128.5t-83 -106.5q-66 -61 -156 -90t-178 -29q-121 0 -212 42t-152.5 115.5t-92 172t-30.5 213.5q0 104 27.5 209.5t93.5 189.5q70 88 168 134t208 46q104 0 189.5 -36t147 -98.5t95 -149.5t33.5 -189q0 -39 -2 -60.5t-11 -32.5t-28.5 -14.5 t-56.5 -3.5h-694z" />
<glyph unicode="f" horiz-adv-x="860" d="M260 805q0 37 -8 50t-35 13h-92q-47 0 -66.5 21.5t-19.5 56.5t20.5 54.5t51.5 19.5h79q49 0 59.5 5t10.5 38q0 178 83 274.5t267 96.5q45 0 95.5 -10.5t93.5 -33t70.5 -59.5t27.5 -92q0 -49 -28.5 -77.5t-77.5 -28.5q-37 0 -66 25.5t-29 64.5q0 27 21 53q-20 23 -49 28 t-58 5q-53 0 -90 -18.5t-59.5 -51.5t-32.5 -76t-10 -92q0 -35 6 -43t25 -8h137q94 0 94 -74q0 -47 -27.5 -62.5t-68.5 -15.5h-129q-37 0 -37 -34v-611q0 -115 59 -114q27 0 49.5 6t44.5 6q31 0 50.5 -19.5t19.5 -48.5q0 -35 -27.5 -55.5t-60.5 -20.5q-25 0 -45.5 3.5 t-43 8.5t-52 8t-70.5 3q-68 0 -116 -11.5t-101 -11.5q-35 0 -61.5 24t-26.5 52q0 29 19.5 48.5t49.5 19.5q23 0 45.5 -6t49.5 -6q25 0 42 24.5t17 91.5v580z" />
<glyph unicode="g" horiz-adv-x="1146" d="M606 109q-55 0 -126.5 -8.5t-123.5 -32.5q-45 -23 -76.5 -60t-31.5 -90q0 -59 42 -98t91 -58q47 -16 107.5 -23t109.5 -7q43 0 104.5 7t118 27.5t95 57.5t38.5 98t-36.5 98t-91 56.5t-115 26t-105.5 6.5zM608 514q94 0 166 54.5t76 158.5q-2 49 -22.5 88t-53.5 66.5 t-76 42t-88 14.5q-94 0 -162.5 -57.5t-68.5 -155.5q0 -102 67.5 -156.5t161.5 -54.5zM543 254q88 0 173 -6t169 -35q49 -16 92 -42t75.5 -61.5t52 -81.5t19.5 -102q0 -98 -54 -161.5t-134 -100.5t-172 -51t-168 -14t-166 12t-169 48t-131 97.5t-52 159.5q0 92 54 153.5 t138 88.5v4q-72 25 -122 68.5t-50 125.5q0 80 49.5 132.5t122.5 74.5q-31 35 -44 82t-13 96q0 80 34 141.5t89 103.5t124.5 63.5t143.5 21.5q31 0 61.5 -2t61.5 -12q-2 49 17.5 89t52 66.5t75.5 41t91 14.5q41 0 82.5 -11.5t74.5 -35t53.5 -58.5t20.5 -82q0 -45 -32 -81.5 t-79 -36.5q-33 0 -57.5 22.5t-24.5 56.5q0 23 14.5 39.5t31.5 28.5q-29 41 -86 41q-61 0 -90 -42q-24 -37 -24 -83q0 -7 1 -14q76 -45 118 -123t42 -166q0 -84 -33 -147.5t-87 -108.5t-125 -67.5t-145 -22.5q-61 0 -119.5 15.5t-115.5 39.5q-10 4 -26.5 9t-28.5 5 q-35 0 -55.5 -28.5t-20.5 -59.5q0 -37 23.5 -58t56.5 -31.5t69.5 -12.5t65.5 -2h76z" />
<glyph unicode="h" d="M1133 281q0 -104 12 -138t47 -34q27 0 49.5 6t44.5 6q31 0 50.5 -19.5t19.5 -48.5q0 -35 -24.5 -55.5t-63.5 -20.5q-27 0 -49.5 3.5t-46 8.5t-51 8t-64.5 3q-35 0 -63.5 -3t-53.5 -8t-49.5 -8.5t-50.5 -3.5q-33 0 -60.5 20.5t-27.5 55.5q0 29 19.5 48.5t49.5 19.5 q23 0 45.5 -6t48.5 -6q37 0 48.5 36.5t11.5 135.5v204v69q0 38 -1 77t-5 75.5t-13 65.5q-23 82 -88 121t-145 39q-68 0 -137.5 -25.5t-110.5 -83.5q-41 -59 -47 -129.5t-6 -138.5v-274q0 -104 12 -138t47 -34q27 0 49.5 6t44.5 6q31 0 50.5 -19.5t19.5 -48.5 q0 -35 -24.5 -55.5t-63.5 -20.5q-27 0 -49.5 3.5t-46 8.5t-51 8t-64.5 3q-35 0 -63.5 -3t-53 -8t-49 -8.5t-51.5 -3.5q-33 0 -60.5 20.5t-27.5 55.5q0 29 19.5 48.5t50.5 19.5q23 0 45 -6t49 -6q37 0 48 36.5t11 135.5v835q0 63 -5 98t-13 51.5t-19.5 19.5t-21.5 3 q-27 0 -49.5 -6t-44.5 -6q-31 0 -50.5 19.5t-19.5 47.5q0 35 26.5 55.5t51.5 20.5q47 0 75.5 -11t59.5 -11q39 0 60.5 11t50.5 11q39 0 48 -25.5t9 -80.5v-375q68 68 140.5 100.5t172.5 32.5q78 0 154 -25.5t135 -76.5q66 -57 87.5 -131t21.5 -158v-399z" />
<glyph unicode="i" horiz-adv-x="655" d="M313 1382q49 0 84 -33.5t35 -82.5t-35 -84t-84 -35q-47 0 -81.5 35t-34.5 84t34.5 82.5t81.5 33.5zM270 739q0 53 -3 87t-10 52.5t-18.5 25.5t-27.5 7q-27 0 -49.5 -6t-44.5 -6q-31 0 -50.5 19.5t-19.5 48.5q0 35 21.5 55t50.5 20q41 0 69.5 -11t65.5 -11q39 0 63.5 11 t53.5 11q35 0 46 -28.5t11 -59.5v-761q0 -37 12.5 -60.5t40.5 -23.5q16 0 38 7t44 5q31 0 50.5 -19.5t19.5 -48.5q0 -35 -27.5 -55.5t-60.5 -20.5q-53 0 -99.5 11.5t-111.5 11.5q-66 0 -115 -11.5t-102 -11.5q-27 0 -48.5 24t-21.5 52q0 29 19.5 48.5t50.5 19.5q23 0 45 -6 t49 -6q35 0 47 37.5t12 134.5v458z" />
<glyph unicode="j" horiz-adv-x="573" d="M293 1384q49 0 83 -34.5t34 -83.5q0 -47 -34 -82t-83 -35t-84 35t-35 82q0 49 35 83.5t84 34.5zM238 739q0 55 -4.5 89t-12.5 52.5t-18 24.5t-25 6q-27 0 -49.5 -6t-44.5 -6q-31 0 -50.5 19.5t-19.5 48.5q0 35 28 55t60 20q39 0 65 -11t66 -11q39 0 66 11t59 11 q29 0 40.5 -17t11.5 -52q0 -68 -7.5 -137.5t-7.5 -139.5v-655q0 -80 -8 -158t-53 -147q-51 -78 -133 -114t-174 -36q-49 0 -100.5 12.5t-94.5 38t-70.5 65.5t-27.5 97q0 45 28.5 80t75.5 35q37 0 68 -21.5t31 -62.5q0 -23 -8.5 -42t-24.5 -34q29 -23 54.5 -33t61.5 -10 q74 0 118 26.5t65.5 72t28 101.5t6.5 116v712z" />
<glyph unicode="k" horiz-adv-x="1310" d="M733 629l283 -365q35 -45 60.5 -74.5t44 -48t31.5 -25.5t26 -7q23 0 42 6t37 6q25 0 43.5 -19.5t18.5 -48.5q0 -35 -27.5 -55.5t-60.5 -20.5q-29 0 -49.5 3.5t-44 8.5t-51 8t-66.5 3q-37 0 -63.5 -3t-49 -8t-44 -8.5t-48.5 -3.5q-31 0 -56.5 19.5t-25.5 56.5 q0 29 19.5 48.5t50.5 19.5q25 0 46 -6t40 -6q16 0 16 14q0 12 -10 27l-23 30l-258 344l-192 -172q0 -135 14.5 -189t42.5 -54q23 0 42.5 6t41.5 6q31 0 49.5 -16.5t18.5 -47.5q0 -35 -23.5 -57.5t-58.5 -22.5q-27 0 -49.5 3.5t-45 8.5t-49 8t-59.5 3q-35 0 -63.5 -3t-53 -8 t-49 -8.5t-51.5 -3.5q-33 0 -60.5 20.5t-27.5 55.5q0 29 19.5 48.5t50.5 19.5q23 0 45 -6t49 -6q37 0 48 36.5t11 135.5v835q0 63 -5 98t-13 51.5t-19.5 19.5t-21.5 3q-27 0 -49.5 -6t-44.5 -6q-31 0 -50.5 19.5t-19.5 47.5q0 35 26.5 55.5t51.5 20.5q47 0 75.5 -11 t59.5 -11q39 0 60.5 11t50.5 11q39 0 48 -25.5t9 -80.5v-789l346 322q20 18 29.5 29.5t9.5 23.5q0 16 -33 16q-23 0 -47.5 -8t-56.5 -8q-33 0 -50.5 20.5t-17.5 47.5q0 29 24.5 52t86.5 23q61 0 113.5 -11t123.5 -11q53 0 105.5 11t101.5 11q35 0 54.5 -20.5t19.5 -54.5 q0 -29 -16.5 -48.5t-43.5 -19.5q-18 0 -37.5 6t-41.5 6q-33 0 -54.5 -12t-68.5 -53z" />
<glyph unicode="l" horiz-adv-x="655" d="M283 1116q0 63 -5.5 98t-13.5 51.5t-19.5 19.5t-21.5 3q-27 0 -52.5 -6t-59.5 -6q-31 0 -50.5 19.5t-19.5 47.5q0 35 28.5 55.5t65.5 20.5q47 0 77 -11t60 -11q39 0 60.5 11t50.5 11q39 0 48 -25.5t9 -80.5v-1032q0 -55 4.5 -89t12.5 -52.5t19 -24.5t24 -6q27 0 49 6 t45 6q31 0 50.5 -19.5t19.5 -48.5q0 -35 -28 -55.5t-61 -20.5q-27 0 -48 3.5t-44.5 8.5t-52.5 8t-65 3q-35 0 -64 -3t-53.5 -8t-49 -8.5t-51.5 -3.5q-33 0 -60.5 20.5t-27.5 55.5q0 29 19.5 48.5t50.5 19.5q23 0 45.5 -6t48.5 -6q37 0 48.5 42t11.5 130v835z" />
<glyph unicode="m" horiz-adv-x="1966" d="M1567 535q-2 109 -6.5 169t-18.5 95q-29 68 -88 100.5t-131 32.5q-66 0 -125 -33t-88 -94q-8 -18 -15.5 -42t-11.5 -55.5t-7 -77.5t-3 -112v-235q0 -94 12.5 -134t47.5 -40q27 0 49 6t45 6q31 0 50 -19.5t19 -48.5q0 -76 -88 -76q-51 0 -95 11.5t-114 11.5 q-74 0 -118.5 -11.5t-100.5 -11.5q-88 0 -88 76q0 29 19.5 48.5t50.5 19.5q23 0 45 -6t49 -6q39 0 49 37.5t10 136.5v309q0 74 -2 124t-12 85q-8 25 -26.5 48t-45 41.5t-59.5 30t-70 11.5q-70 0 -131 -30t-96 -91q-14 -27 -24.5 -50.5t-16.5 -54t-8 -73.5t-2 -109v-241 q0 -94 12 -134t47 -40q27 0 49.5 6t44.5 6q31 0 50.5 -19.5t19.5 -48.5q0 -76 -88 -76q-51 0 -95 11.5t-114 11.5q-74 0 -119 -11.5t-100 -11.5q-88 0 -88 76q0 29 19.5 48.5t50.5 19.5q23 0 45 -6t49 -6q39 0 49 37.5t10 136.5v454q0 106 -12 140t-47 34q-27 0 -49.5 -6 t-44.5 -6q-31 0 -50.5 19.5t-19.5 48.5t24.5 52t51.5 23q16 0 27.5 -3t23.5 -8t25.5 -8t33.5 -3q23 0 38.5 3t29.5 8t28.5 8t32.5 3q33 0 39 -31.5t6 -90.5h5q59 78 131.5 114.5t171.5 36.5q92 0 173 -36t128 -115q59 82 142 116.5t183 34.5q84 0 169 -23.5t138 -91.5 q61 -78 71.5 -158.5t10.5 -174.5v-340q0 -94 12.5 -134t47.5 -40q27 0 49 6t45 6q31 0 50.5 -19.5t19.5 -48.5q0 -76 -88 -76q-51 0 -95.5 11.5t-113.5 11.5q-74 0 -119 -11.5t-100 -11.5q-88 0 -89 76q0 29 19.5 48.5t50.5 19.5q23 0 45.5 -6t48.5 -6q39 0 49.5 37.5 t10.5 136.5v252z" />
<glyph unicode="n" d="M264 737q0 106 -12 140t-47 34q-27 0 -49.5 -6t-44.5 -6q-31 0 -50.5 19.5t-19.5 48.5t24.5 52t51.5 23q16 0 27.5 -3t23.5 -8t25.5 -8t33.5 -3q23 0 38.5 3t29.5 8t28.5 8t32.5 3q33 0 39 -31.5t6 -90.5h5q59 80 152 115.5t190 35.5q82 0 158.5 -27.5t137.5 -82.5 q68 -61 81.5 -137t13.5 -162v-381q0 -94 12 -134.5t47 -40.5q27 0 49.5 6.5t44.5 6.5q31 0 50.5 -19.5t19.5 -48.5q0 -74 -88 -74q-51 0 -95 11.5t-114 11.5q-74 0 -119 -11.5t-100 -11.5q-88 0 -88 74q0 29 19.5 48.5t49.5 19.5q23 0 45.5 -6.5t49.5 -6.5q39 0 49 38 t10 137v303q0 49 -1 82.5t-4 60.5t-9 47.5t-19 44.5q-31 59 -94 86t-129 27q-70 0 -140.5 -30t-109.5 -89q-10 -14 -19.5 -32.5t-16.5 -49.5t-12 -81t-5 -126v-241q0 -94 12 -134t47 -40q27 0 49.5 6t44.5 6q31 0 50.5 -19.5t19.5 -48.5q0 -76 -88 -76q-51 0 -95 11.5 t-114 11.5q-74 0 -119 -11.5t-100 -11.5q-88 0 -88 76q0 29 19.5 48.5t50.5 19.5q23 0 45 -6t49 -6q39 0 49 37.5t10 136.5v454z" />
<glyph unicode="o" horiz-adv-x="1146" d="M248 514q0 -76 16.5 -151.5t53 -137t97 -99.5t150.5 -38q94 0 158.5 37t103.5 98.5t55.5 139t16.5 159.5q0 72 -16.5 151t-57.5 140q-41 66 -107.5 92.5t-139.5 26.5q-86 0 -151 -32t-110 -107q-35 -59 -52 -135t-17 -144zM78 508q0 113 29.5 215t90 179t152.5 123 t215 46q111 0 207 -33.5t168 -122.5q68 -84 98.5 -190.5t30.5 -210.5q0 -117 -32.5 -220.5t-96 -180t-158 -120.5t-219.5 -44q-123 0 -214 45t-151.5 122t-90 178t-29.5 214z" />
<glyph unicode="p" horiz-adv-x="1269" d="M264 739q0 92 -11 132t-48 40q-27 0 -49.5 -6t-44.5 -6q-31 0 -50.5 19.5t-19.5 48.5q0 35 27.5 55t62.5 20q25 0 53.5 -11t59.5 -11q29 0 58.5 11t57.5 11q23 0 38.5 -14t15.5 -49v-68h4q49 82 135 121t178 39q121 0 209 -42t146.5 -114.5t86 -171t27.5 -211.5 q0 -96 -24.5 -202.5t-79.5 -186.5q-66 -96 -168.5 -145t-216.5 -49q-84 0 -162 30.5t-123 96.5h-4v-162q0 -104 15.5 -136t43.5 -32q27 0 49.5 6t44.5 6q31 0 50.5 -19.5t19.5 -47.5q0 -35 -27.5 -55.5t-62.5 -20.5q-57 0 -110.5 11.5t-106.5 11.5q-55 0 -107.5 -11.5 t-99.5 -11.5q-35 0 -62.5 20.5t-27.5 55.5q0 29 19.5 48t50.5 19q23 0 45 -6t49 -6q35 0 47 37t12 135v821zM729 932q-43 0 -86 -10.5t-80 -32t-64.5 -53t-41.5 -74.5q-18 -55 -26.5 -122t-8.5 -181q0 -72 7 -136.5t48 -123.5t98.5 -85t126.5 -26q94 0 158 36t101.5 96.5 t53 137t15.5 158.5q0 74 -13 148.5t-47 134t-92.5 96.5t-148.5 37z" />
<glyph unicode="q" horiz-adv-x="1228" d="M553 932q-86 0 -145.5 -37t-94 -95.5t-50 -130t-15.5 -143.5q0 -76 15.5 -153.5t52 -141t96 -103.5t147.5 -40q72 0 137.5 32t106.5 93q37 55 44 118.5t7 131.5q0 104 -7 181t-38 136q-39 72 -106.5 112t-149.5 40zM854 68q-55 -63 -133 -91t-162 -28q-123 0 -213 47 t-149.5 125t-89 181.5t-29.5 215.5q0 100 25.5 201.5t80.5 179.5q68 94 163 133t208 39q96 0 179 -35t143 -110l4 4q-2 16 -2 30q0 82 71 82q31 0 46.5 -19t15.5 -77v-1028q0 -53 4 -87t11 -52.5t18.5 -25.5t25.5 -7q27 0 49.5 6t44.5 6q31 0 50.5 -19.5t19.5 -47.5 q0 -35 -27.5 -55.5t-60.5 -20.5q-47 0 -98.5 11.5t-104.5 11.5q-55 0 -109.5 -11.5t-107.5 -11.5q-39 0 -67.5 20.5t-28.5 55.5q0 29 19.5 48t49.5 19q23 0 45.5 -6t49.5 -6q39 0 49 39t10 127v156z" />
<glyph unicode="r" horiz-adv-x="1064" d="M291 739q0 104 -13.5 138t-48.5 34q-27 0 -52 -6t-66 -6q-31 0 -50.5 19.5t-19.5 48.5q0 35 28.5 55t63.5 20q29 0 55.5 -11t63.5 -11q39 0 63.5 11t53.5 11q41 0 50 -31q8 -26 7 -72v-21h4q47 78 122 115.5t167 37.5q63 0 123.5 -18.5t105.5 -55t73 -91t28 -124.5 q0 -39 -9.5 -76.5t-30 -67.5t-53 -48.5t-79.5 -18.5q-41 0 -76 27t-35 72q0 35 24.5 61.5t59.5 26.5q6 0 13 -2l14 -4q12 25 12 47q0 35 -17.5 61.5t-43 45t-58.5 27.5t-63 9q-59 0 -106.5 -18.5t-81.5 -63.5t-52 -119.5t-18 -185.5v-274q0 -55 5 -89t14 -52.5t20.5 -24.5 t25.5 -6q27 0 49.5 6t44.5 6q31 0 50.5 -19.5t19.5 -48.5q0 -35 -27.5 -55.5t-60.5 -20.5q-53 0 -100.5 11.5t-110.5 11.5q-33 0 -58.5 -3t-50 -8t-51 -8.5t-57.5 -3.5q-35 0 -63.5 20.5t-28.5 55.5q0 29 19.5 48.5t49.5 19.5q23 0 45.5 -6t48.5 -6q16 0 27.5 7t18 25.5 t9.5 52t3 87.5v458z" />
<glyph unicode="s" horiz-adv-x="1064" d="M580 436q-74 8 -153 21.5t-144.5 44t-107.5 87t-42 150.5q0 82 34 144.5t90 103.5t128 62.5t147 21.5q63 0 127 -14.5t115 -57.5q-4 35 10.5 60.5t55.5 25.5q70 0 69 -67q0 -39 -6 -76t-6 -76t6 -76.5t6 -74.5q0 -33 -19.5 -54.5t-53.5 -21.5q-66 0 -66 98q0 31 -2 49.5 t-7 30.5t-13.5 21.5t-22.5 19.5q-41 29 -92 51.5t-101 22.5q-41 0 -80.5 -11.5t-73.5 -33t-54.5 -56t-20.5 -79.5q0 -76 55.5 -109t188.5 -49q104 -14 183 -33.5t133.5 -54.5t81 -88t26.5 -133q0 -86 -37 -149.5t-97.5 -105.5t-136 -61.5t-153.5 -19.5q-82 0 -159 21.5 t-140 74.5q2 -16 2 -29q0 -36 -16 -57q-22 -29 -56 -29q-41 0 -59.5 26t-18.5 60q0 45 8.5 87t8.5 85q0 41 -8.5 82t-8.5 82q0 35 18.5 54.5t53.5 19.5q29 0 45 -14.5t19 -53.5q4 -45 7 -73.5t8 -49t14 -34t26 -27.5q25 -23 58.5 -38t70.5 -26.5t74.5 -16.5t68.5 -5 q43 0 88 9t80 38q31 25 50.5 58.5t19.5 74.5q0 47 -20.5 78t-52.5 49.5t-70.5 27.5t-77.5 13z" />
<glyph unicode="t" horiz-adv-x="819" d="M190 823q0 47 -12 59.5t-59 12.5q-61 0 -90 14.5t-29 61.5q0 27 22.5 50t55.5 23h72q29 0 34.5 11.5t5.5 54.5v168q0 43 13.5 73.5t66.5 30.5q51 0 64.5 -30.5t13.5 -71.5v-203q0 -23 6 -28t29 -5h205q63 0 83.5 -19t20.5 -56q0 -29 -20.5 -51.5t-89.5 -22.5h-181 q-35 0 -44 -6t-9 -35v-496q0 -70 8.5 -115.5t25.5 -74.5t46 -41t70 -12q45 0 73.5 17.5t45 47t21.5 65.5t5 72v66q0 72 18.5 100.5t63.5 28.5q43 0 59.5 -30.5t16.5 -67.5q0 -90 -10.5 -170t-45 -140.5t-99 -96.5t-173.5 -36q-72 0 -139.5 29t-102.5 94q-12 23 -19 45.5 t-12 53t-7.5 72.5t-2.5 106v452z" />
<glyph unicode="u" horiz-adv-x="1310" d="M217 739q0 98 -18.5 135t-51.5 37q-27 0 -49 -6t-45 -6q-31 0 -50 19.5t-19 48.5q0 35 29.5 55t70.5 20q29 0 58.5 -11t60.5 -11q29 0 58.5 11t57.5 11q43 0 55.5 -23.5t12.5 -60.5q0 -63 -2 -107t-4 -83l-4 -77q-2 -38 -2 -89v-92q0 -29 1 -65.5t3 -74.5t6 -73t12 -61 q12 -39 36 -67t54.5 -46.5t67.5 -26.5t74 -8q92 0 165.5 42t102.5 134q10 33 17.5 76t10.5 89t4 90t1 81v139q0 92 -21.5 132t-52.5 40q-27 0 -49.5 -6t-44.5 -6q-31 0 -50.5 19.5t-19.5 48.5q0 35 29 55t67 20q35 0 66 -11t61 -11q29 0 59 11t58 11q35 0 48.5 -19t13.5 -50 q0 -78 -3.5 -151.5t-3.5 -155.5v-385q0 -53 4.5 -87t11.5 -52.5t18.5 -25.5t25.5 -7q27 0 49.5 6t44.5 6q31 0 50.5 -19.5t19.5 -48.5q0 -35 -28 -55.5t-60 -20.5q-29 0 -58.5 11.5t-58.5 11.5q-31 0 -60.5 -11.5t-58.5 -11.5q-33 0 -42 32q-8 26 -7 72v21h-4 q-57 -88 -143 -120.5t-189 -32.5q-72 0 -143.5 20.5t-128.5 63.5q-66 49 -88.5 119.5t-24.5 148.5v438z" />
<glyph unicode="v" horiz-adv-x="1310" d="M670 139l227 635l22 57q9 25 9 43q0 23 -9.5 33.5t-21.5 10.5q-8 0 -14 -2.5t-17 -6.5q-20 -10 -49 -10q-27 0 -47 20.5t-20 55.5q0 29 19 48t50 19q37 0 88 -11t107 -11q53 0 104 11t94 11q41 0 61.5 -19t20.5 -48q0 -35 -24.5 -55.5t-46.5 -20.5q-18 0 -43 10 q-10 4 -20.5 6.5t-18.5 2.5q-16 0 -27 -27l-39 -98l-278 -713q-20 -49 -50 -84t-90 -35q-57 0 -85.5 36t-47.5 83l-284 735q-23 59 -40.5 81t-37.5 22q-10 0 -19.5 -2.5t-19.5 -6.5q-20 -10 -41 -10q-23 0 -39 20.5t-16 55.5q0 29 18 48t64 19q47 0 90 -11t98 -11 q53 0 105.5 11t99.5 11t68.5 -19t21.5 -48q0 -35 -25.5 -55.5t-46.5 -20.5q-18 0 -43 10q-12 4 -23.5 6.5t-23.5 2.5q-33 0 -33 -33q0 -12 6.5 -28.5t10.5 -31.5z" />
<glyph unicode="w" horiz-adv-x="1720" d="M872 885h-4l-157 -713q-12 -59 -25.5 -100t-32 -66.5t-43 -37t-61.5 -11.5q-51 0 -83 35t-54 119l-183 686q-16 57 -27.5 86.5t-41.5 29.5q-23 0 -42.5 -7t-37.5 -7q-27 0 -53.5 20.5t-26.5 55.5q0 29 25.5 48t95.5 19q53 0 107.5 -11t109.5 -11q53 0 105.5 11t105.5 11 q31 0 50 -19t19 -48q0 -35 -26.5 -55.5t-52.5 -20.5q-25 0 -47.5 7t-49.5 7q-29 0 -42 -18t-13 -45q0 -29 8 -62.5l15 -62.5l145 -616h4l156 716q14 70 29.5 113t34 67.5t40 33t49.5 8.5q33 0 57.5 -10.5t42 -35t31 -67.5t27.5 -109l152 -716h4l157 661l8.5 44t4.5 44 q0 25 -12.5 40t-36.5 15q-29 0 -52.5 -7t-50.5 -7q-29 0 -52.5 20.5t-23.5 55.5q0 29 25 48t88 19q53 0 107.5 -11t109.5 -11q53 0 105.5 11t105.5 11q31 0 50.5 -19t19.5 -48q0 -35 -26 -55.5t-46 -20.5t-37.5 7t-34.5 7q-16 0 -29.5 -10t-27.5 -39.5t-30.5 -80 t-37.5 -130.5l-131 -493q-14 -57 -28.5 -96t-32 -63t-41 -34t-55.5 -10q-31 0 -53.5 9t-41 31.5t-33 62.5t-26.5 100z" />
<glyph unicode="x" d="M633 700q10 -14 21.5 -26t21.5 -12t20 11l25 27l141 162q27 29 27 45q0 10 -17 11q-4 0 -20 -9q-14 -10 -25 -10q-33 0 -54 23.5t-21 52.5t19.5 48t51.5 19q53 0 107.5 -11t109.5 -11q53 0 105.5 11t105.5 11q31 0 50.5 -19t19.5 -48q0 -35 -26.5 -55.5t-49.5 -20.5 q-20 0 -45 10q-12 4 -24.5 6.5t-22.5 2.5q-16 0 -28.5 -4.5t-29 -16.5t-40 -35.5t-58.5 -62.5l-186 -215l-23 -26q-8 -9 -8 -19q0 -12 12.5 -25.5t18.5 -21.5l272 -322q23 -27 42.5 -41t41.5 -14q20 0 41 4t43 4q31 0 50.5 -20.5t19.5 -49.5q0 -35 -27.5 -55.5t-60.5 -20.5 q-53 0 -105.5 11.5t-105.5 11.5q-55 0 -107.5 -11.5t-97.5 -11.5q-39 0 -61.5 20.5t-22.5 55.5q0 29 19.5 49.5t50.5 20.5q25 0 48 -4t40 -4q25 0 24 14q0 4 -3 8t-7 8l-200 236q-4 4 -15.5 18.5t-21.5 14.5t-21.5 -13.5t-17.5 -19.5l-183 -211q-4 -4 -17 -19.5t-13 -25.5 t18 -10q23 0 46.5 4t47.5 4q31 0 50.5 -20.5t19.5 -49.5q0 -35 -27.5 -55.5t-60.5 -20.5q-53 0 -105.5 11.5t-105.5 11.5q-55 0 -107.5 -11.5t-93.5 -11.5q-80 0 -80 76q0 29 19.5 49.5t50.5 20.5q23 0 42.5 -4t41.5 -4q23 0 49.5 22.5t75.5 81.5l235 273q4 4 17.5 19 t13.5 21q0 8 -8 16.5t-20 24.5l-244 289q-27 31 -43.5 43.5t-40.5 12.5q-10 0 -21.5 -2.5t-21.5 -6.5q-25 -10 -53 -10q-27 0 -49.5 20.5t-22.5 55.5q0 29 19.5 48t50.5 19q57 0 108 -11t113 -11q59 0 108 11t103 11q31 0 50 -19t19 -48q0 -27 -21.5 -51.5t-53.5 -24.5 q-12 0 -27 10q-6 4 -11 6.5t-12 2.5q-25 0 -24 -9q0 -6 5 -11t19 -21z" />
<glyph unicode="y" horiz-adv-x="1310" d="M668 133h4l248 678q8 23 13 39t5 33q0 23 -15.5 29t-33.5 6q-10 0 -21.5 -2.5t-23.5 -6.5q-25 -10 -51 -10q-25 0 -43.5 19.5t-18.5 48.5q0 35 26.5 55t51.5 20q53 0 102.5 -11t114.5 -11q63 0 110.5 11t100.5 11q31 0 50.5 -19t19.5 -48t-20.5 -52.5t-43.5 -23.5 q-20 0 -41 10q-10 4 -17 6.5t-18 2.5q-27 0 -43 -27t-45 -100l-260 -652q-39 -98 -85 -197.5t-110.5 -178t-153.5 -128t-214 -49.5q-49 0 -101.5 14.5t-96.5 43t-71.5 71.5t-27.5 99q0 59 37 102t98 43q47 0 81 -26.5t34 -75.5q0 -29 -16.5 -53.5t-45.5 -28.5q16 -31 51 -41 t66 -10q119 0 199 79q35 35 64.5 86.5t29.5 102.5q0 55 -26 113l-48 112l-223 567q-33 82 -52.5 109t-41.5 27q-23 0 -47.5 -10.5t-59.5 -10.5q-23 0 -40 19.5t-17 48.5q0 35 26.5 55t53.5 20q53 0 104.5 -11t112.5 -11q59 0 108.5 11t102.5 11q33 0 60.5 -20.5t27.5 -54.5 q0 -29 -17.5 -48.5t-35.5 -19.5q-23 0 -53 10q-14 4 -27.5 6.5t-24.5 2.5q-24 0 -23 -23q0 -11 5 -27z" />
<glyph unicode="z" horiz-adv-x="1105" d="M809 899h-483q-29 0 -53.5 -10t-24.5 -45q0 -33 7 -66t7 -67q0 -33 -16.5 -58.5t-50.5 -25.5q-41 0 -58.5 27.5t-17.5 62.5q0 39 6 75.5t6 73.5q0 31 -6 60.5t-6 58.5q0 35 19.5 46t84.5 11h674q72 0 99.5 -22.5t27.5 -71.5q0 -16 -3 -28.5t-12.5 -27.5t-28.5 -36 l-50 -51l-670 -672h524q53 0 79 16.5t26 75.5q0 39 -4 78t-4 80q0 35 20.5 60.5t56.5 25.5q37 0 50.5 -27.5t13.5 -58.5q0 -45 -5 -89t-5 -91q0 -35 5 -68t5 -67q0 -47 -30.5 -62.5t-71.5 -15.5h-705q-78 0 -111.5 31.5t-33.5 80.5q0 35 14 60.5t55 66.5z" />
<glyph unicode="{" horiz-adv-x="573" d="M381 840q0 -53 -6 -97.5t-24.5 -78t-52.5 -56t-89 -35.5v-4q55 -12 89 -34.5t52.5 -56.5t24.5 -78t6 -97v-340q0 -78 22.5 -110.5t38.5 -38.5l42 -18q28 -11 28 -32q0 -12 -15.5 -19t-27.5 -7q-152 0 -208 61.5t-56 198.5v358q0 76 -22.5 110t-39.5 40q-37 16 -53 25.5 t-16 23.5v33q0 14 16 23.5t53 25.5q16 6 39 40t23 109v359q0 135 56 197.5t208 62.5q12 0 27.5 -7t15.5 -20q0 -20 -28 -31l-42 -18q-16 -8 -38.5 -41t-22.5 -108v-340z" />
<glyph unicode="|" horiz-adv-x="1269" d="M580 1536h120v-2048h-120v2048z" />
<glyph unicode="}" horiz-adv-x="573" d="M205 1180q0 76 -22.5 108.5t-39.5 40.5l-42 18q-28 11 -27 31q0 12 15 19.5t28 7.5q152 0 208 -62.5t56 -197.5v-359q0 -76 22.5 -109.5t38.5 -39.5q37 -16 53.5 -25.5t16.5 -23.5v-33q0 -14 -16.5 -23.5t-53.5 -25.5q-16 -6 -38.5 -40t-22.5 -110v-358 q0 -137 -56.5 -198.5t-207.5 -61.5q-12 0 -27.5 7t-15.5 19q0 20 27 32l42 18q16 6 39 38.5t23 110.5v340q0 53 6 97t24.5 78t52.5 56.5t89 34.5v4q-55 12 -89 35t-52.5 56.5t-24.5 77.5t-6 98v340z" />
<glyph unicode="~" horiz-adv-x="1269" d="M1137 639q-23 -41 -52.5 -82t-65.5 -73.5t-79 -52t-94 -19.5q-29 0 -66 10t-74.5 24.5t-73.5 30t-63 25.5l-84 34q-43 17 -88 17q-41 0 -71.5 -17.5t-55 -44t-44.5 -59.5l-38 -63l-84 98q25 43 52.5 86t63.5 78t79 56.5t98 21.5t118 -21.5t122 -50.5l116 -49 q54 -23 95 -23q35 0 65.5 16.5t56 41t46 54.5t35.5 58z" />
<glyph unicode="&#xa1;" horiz-adv-x="696" d="M422 -272q0 -45 -17.5 -79t-70.5 -34t-70.5 34t-17.5 79l8 901q0 39 11 71.5t65 32.5q29 0 46 -9t25.5 -23.5t10.5 -33t2 -38.5zM338 807q-53 0 -92 39t-39 92q0 55 39 94t92 39q55 0 94 -39t39 -94q0 -53 -39 -92t-94 -39z" />
<glyph unicode="&#xa2;" d="M633 1118q-76 -16 -128 -57t-84 -98.5t-46.5 -125t-14.5 -137.5q0 -63 14.5 -130.5t46.5 -124t84 -94.5t128 -44v811zM758 307q68 4 129 48t82 110q2 10 7 28l10 34l10 32.5t12 26.5q12 20 29.5 26t39.5 6q35 0 58.5 -25.5t23.5 -60.5q0 -37 -13 -76.5t-34.5 -77.5 t-50.5 -71t-57 -53q-53 -43 -117 -62.5t-129 -31.5v-213q0 -35 -9.5 -58.5t-52.5 -23.5q-45 0 -54 23.5t-9 58.5v213q-111 12 -194 59t-138 119t-83 165t-28 197t29 199.5t84 170.5t138 124t192 61v195q0 33 10 59.5t51 26.5t52.5 -25.5t11.5 -60.5v-190q70 -4 138.5 -27 t123.5 -63t89 -99t34 -139q0 -33 -11.5 -65.5t-33 -58.5t-51 -41t-64.5 -15q-47 0 -85 28.5t-38 77.5q0 37 21.5 71t62.5 34h19q-2 33 -22.5 61.5t-51.5 50t-66 32.5t-65 11v-811z" />
<glyph unicode="&#xa3;" d="M578 844h348h27q11 0 24 -15q18 -18 18 -43q0 -41 -19.5 -53t-47.5 -12h-291q35 -66 56.5 -141.5t21.5 -153.5q0 -45 -4 -89t-19 -87q33 -27 73 -54.5t82 -49t85 -36t84 -14.5q86 0 134 54.5t48 152.5q0 70 -37 120t-100 50q-45 0 -78 -26.5t-45 -77.5 q-6 -33 -18.5 -51.5t-47.5 -18.5q-31 0 -46 22.5t-15 57.5q0 31 11.5 62.5t27.5 58.5q39 59 92 84.5t117 25.5q59 0 109.5 -22.5t87 -63.5t57 -98t20.5 -127q0 -74 -24.5 -138.5t-67.5 -111.5t-100.5 -73.5t-120.5 -26.5q-70 0 -136.5 23.5t-125.5 62.5l-121 82 q-66 -80 -152 -124t-180 -44q-49 0 -99 13t-91 41t-68 73t-27 110q0 63 24 109.5t62.5 77t86 45t94.5 14.5q80 0 151.5 -30.5t139.5 -75.5q6 37 6 71q0 86 -37 169l-70 157h-244q-31 0 -54 9t-23 52q0 41 23.5 50.5t51.5 9.5h185q-20 47 -30.5 95t-10.5 101q0 94 30.5 168 t83 124t121 76t146.5 26q53 0 110.5 -14.5t104.5 -49.5q51 -39 87 -100.5t36 -132.5q0 -31 -7.5 -59.5t-21.5 -51t-35.5 -37t-50.5 -14.5q-35 0 -59.5 29.5t-24.5 70.5q0 33 9 49.5t22 24.5l21 14q9 6 9 17q0 16 -18 35.5t-31 29.5q-39 31 -75.5 43t-83.5 12 q-49 0 -91.5 -18t-74 -52t-50 -80t-18.5 -103q0 -45 10.5 -74t26.5 -66zM518 195q-51 41 -114.5 68.5t-127.5 27.5q-37 0 -76.5 -21.5t-39.5 -74.5q0 -31 15 -52.5t38 -35t48.5 -18.5t47.5 -5q57 0 116.5 27t92.5 84z" />
<glyph unicode="&#xa4;" d="M627 897q-72 0 -135.5 -26.5t-110.5 -72.5t-74.5 -109.5t-27.5 -137.5q0 -72 27.5 -134.5t74.5 -108.5t109.5 -71.5t134.5 -25.5t133 27.5t107 74.5t73 109.5t27 132.5t-27 131.5t-73 108.5t-107 74.5t-131 27.5zM211 256q-98 131 -98 295q0 82 23.5 161t76.5 142 l-111 111l105 106l110 -113q66 53 147 79t163 26q80 0 156.5 -25.5t138.5 -74.5l108 108l105 -106l-111 -107q53 -63 79.5 -142t26.5 -161q0 -80 -24.5 -158t-77.5 -141l109 -109l-103 -104l-108 109q-63 -53 -141 -80t-160 -27q-86 0 -165 26.5t-145 80.5l-108 -109 l-105 104z" />
<glyph unicode="&#xa5;" d="M680 670l262 526l12 26q8 17 9 29q0 12 -7.5 15.5t-17.5 3.5q-35 0 -71 -4t-72 -4q-25 0 -40.5 20.5t-15.5 48.5q0 37 22.5 55.5t51.5 18.5q35 0 99.5 -11.5t129.5 -11.5q66 0 130.5 11.5t99.5 11.5q27 0 49 -18.5t22 -55.5q0 -29 -15 -49t-38 -20q-35 0 -58.5 4t-39.5 4 q-33 0 -47.5 -12.5t-30.5 -40.5l-119 -238h205q25 0 48.5 -8t23.5 -49q0 -37 -21.5 -46.5t-48.5 -9.5h-272l-131 -258h401q25 0 48.5 -7t23.5 -48q0 -37 -21.5 -47t-48.5 -10h-454v-50v-59q0 -35 1 -71.5t3 -70.5t6 -57q14 -76 82 -75q23 0 43 5t39 3q25 0 40 -20.5 t15 -49.5q0 -37 -22.5 -55.5t-51.5 -18.5q-43 0 -102.5 11.5t-124.5 11.5q-66 0 -123 -11.5t-107 -11.5q-29 0 -51 18.5t-22 55.5q0 29 16.5 49.5t38.5 20.5q18 2 38.5 -3t41.5 -5q70 0 84 75q4 23 6 57t2 70v72v59v50h-448q-25 0 -47.5 8t-22.5 47t19.5 48t43.5 9h402 l-131 258h-264q-25 0 -47.5 8.5t-22.5 47.5q0 37 19.5 47t43.5 10h209l-100 192q-29 57 -44 78t-48 21q-23 0 -45.5 -4t-50.5 -4q-25 0 -40.5 20.5t-15.5 48.5q0 37 22.5 55.5t49.5 18.5q35 0 98.5 -11.5t128.5 -11.5q66 0 130.5 11.5t99.5 11.5q29 0 50 -18.5t21 -55.5 q0 -29 -14 -49t-39 -20q-35 0 -70.5 4t-66.5 4q-18 0 -19 -21q0 -6 8 -19l17 -34z" />
<glyph unicode="&#xa6;" horiz-adv-x="1269" d="M580 358h120v-716h-120v716zM580 1382h120v-716h-120v716z" />
<glyph unicode="&#xa7;" d="M547 827q-2 -2 -18.5 -20.5t-36 -47t-36 -61t-16.5 -63.5q0 -57 48.5 -98t114 -74t131 -59.5t102.5 -57.5q18 14 38.5 38t37 50.5t26.5 54t10 52.5q0 55 -48 97t-114.5 74.5t-134 60t-104.5 54.5zM594 270l-112 57q-58 30 -106 69.5t-80 91t-32 122.5q0 43 16.5 84t42 78 t58.5 69.5t65 57.5q-53 47 -81.5 95t-28.5 124q0 82 31.5 141.5t85 98.5t122 57.5t142.5 18.5q59 0 125.5 -15.5t124 -47.5t94.5 -83t37 -123q0 -57 -34 -93t-93 -36q-43 0 -74 29t-31 72q0 41 19.5 59t54.5 35q-12 18 -40 31.5t-59.5 20.5t-63.5 10t-52 3q-35 0 -72 -8 t-67.5 -26.5t-50 -48t-19.5 -72.5q0 -47 21.5 -79t60.5 -58q47 -31 107 -59l110 -52l103.5 -50.5t99.5 -64.5t74.5 -85t29.5 -111q0 -43 -15 -86t-42 -82t-59.5 -73t-65.5 -58q66 -53 99.5 -109.5t33.5 -144.5q0 -72 -32.5 -137.5t-90.5 -110.5q-53 -43 -126.5 -61.5 t-141.5 -18.5q-72 0 -143.5 14.5t-132.5 48.5q-66 39 -111 102.5t-45 143.5q0 72 33.5 125t111.5 53q49 0 85 -36.5t36 -85.5q0 -35 -14.5 -54.5t-31.5 -32t-31.5 -20.5t-14.5 -18q0 -16 22.5 -33t34.5 -23q86 -43 181 -43q41 0 82.5 9.5t75.5 30t54.5 54t20.5 82.5 q0 41 -17.5 71t-44 52.5t-59.5 38.5l-63 33z" />
<glyph unicode="&#xa8;" horiz-adv-x="901" d="M637 1395q47 0 82 -35t35 -84t-35 -83t-82 -34q-49 0 -84 34t-35 83t35 84t84 35zM260 1395q49 0 84 -35t35 -84t-35 -83t-84 -34q-47 0 -82 34t-35 83t34 84t83 35z" />
<glyph unicode="&#xa9;" horiz-adv-x="1720" d="M1186 836h-56q-2 104 -58 162.5t-167 58.5q-78 0 -134 -30t-95 -79t-57.5 -112.5t-18.5 -133.5q0 -66 19.5 -133t57.5 -121.5t95 -88t133 -33.5q86 0 153.5 42t102.5 117l43 -18q-18 -49 -54 -87t-82 -63.5t-98 -39t-104 -13.5q-92 0 -167.5 32t-129 88t-82 132 t-28.5 166q0 94 30.5 173t88 136.5t136.5 88t177 30.5q72 0 147.5 -15.5t147.5 -37.5v-221zM1526 690q0 137 -52.5 256t-143.5 208t-212 140.5t-258 51.5q-135 0 -255 -52.5t-209 -142.5t-140 -209t-51 -254q0 -133 52 -251t141 -207t209 -140t255 -51q137 0 258 51t211 140 t142.5 207t52.5 253zM1618 690q0 -154 -59.5 -289t-163 -235t-240.5 -158.5t-293 -58.5q-154 0 -290 58.5t-237.5 158.5t-160.5 235.5t-59 286.5q0 154 58 289t159.5 236.5t238 161t289.5 59.5q156 0 294 -58.5t241.5 -159t163 -235.5t59.5 -291z" />
<glyph unicode="&#xaa;" horiz-adv-x="901" d="M827 610h-712v70h712v-70zM539 1065v29q-37 -27 -80 -33t-86 -10q-23 -2 -47.5 -6.5t-45 -14.5t-34 -27.5t-13.5 -46.5q0 -53 39 -72.5t82 -19.5q45 0 87 14.5t69 51.5q23 33 25 65.5t4 69.5zM115 956q0 47 23.5 86t64.5 62q41 25 83 32t89 13q25 2 54.5 4t54 10t41 26.5 t16.5 53.5q0 57 -42 77.5t-91 20.5q-8 0 -28 -3t-40.5 -9t-35.5 -15t-15 -22q0 -4 15 -13t15 -42q0 -31 -23.5 -47t-51.5 -16q-35 0 -59.5 24.5t-24.5 58.5q0 47 25.5 80t64.5 54.5t84 32t84 10.5q47 0 99 -15.5t87 -50.5q37 -39 44 -86t7 -96q0 -59 -2 -115.5t-2 -118.5 q0 -63 11.5 -78.5t27.5 -15.5q18 0 26.5 10.5t11.5 25.5t2 31.5t-1 28.5v29q0 14 4 26.5t13.5 19.5t29.5 7t31.5 -10t14.5 -25.5t3 -32.5v-32l-4 -67q-2 -32 -26 -60q-20 -23 -51 -32t-62 -9q-41 0 -77 18.5t-52 59.5q-39 -47 -91 -64.5t-112 -17.5q-45 0 -88 11t-75.5 35 t-52 59.5t-19.5 86.5z" />
<glyph unicode="&#xab;" horiz-adv-x="696" d="M561 250q4 -12 9 -25.5t5 -25.5q0 -29 -30 -29q-18 0 -28 14l-17 27l-189 309q-2 4 -9 15.5t-7 19.5t8 20l12 19l183 293l16 26q10 16 27 17q14 0 24 -8.5t10 -22.5q0 -16 -7 -27.5t-11 -27.5l-100 -289zM303 250q4 -10 9 -25.5t5 -25.5q0 -14 -9 -21.5t-21 -7.5 q-18 0 -28 14l-17 27l-189 307l-11 18q-7 11 -7 19t8 20l12 19l185 293l16 26q10 16 27 17q14 0 24 -8.5t10 -22.5q0 -16 -7 -27.5t-13 -27.5l-98 -289z" />
<glyph unicode="&#xac;" horiz-adv-x="1269" d="M983 676h-879v153h1033v-553h-154v400z" />
<glyph unicode="&#xad;" horiz-adv-x="655" d="M477 627q39 0 74 -13.5t35 -60.5q0 -49 -35 -62.5t-74 -13.5h-299q-18 0 -37.5 2t-35 10.5t-25.5 23.5t-10 40q0 49 34.5 61.5t73.5 12.5h299z" />
<glyph unicode="&#xae;" horiz-adv-x="1720" d="M793 723q49 0 95 7t82 27.5t57.5 56.5t21.5 95q0 90 -53.5 132t-141.5 42h-59q-47 0 -53.5 -25.5t-6.5 -62.5v-272h58zM621 1026q-2 43 -26 52t-77 9v35h326q57 0 122.5 -6t114.5 -37q41 -27 62.5 -68.5t21.5 -90.5t-19.5 -87t-51 -65t-73.5 -42t-85 -19v-5 q35 -4 62.5 -27.5t49 -55t38.5 -66.5l30 -61q10 -27 29.5 -66t38.5 -59q14 -16 32.5 -20.5t47.5 -4.5v-33h-58q-31 0 -65.5 1t-61.5 24q-14 10 -26.5 29.5t-23.5 43.5l-21 45l-17 37l-36 86q-22 53 -50 82q-27 23 -62.5 24t-70.5 1h-37v-276q0 -45 21.5 -53.5t81.5 -10.5 v-33h-318v33q29 2 48.5 3t30.5 7t16.5 18.5t5.5 35.5v620zM870 37q137 0 257 51t209 140t141.5 209t52.5 255t-52.5 253t-141.5 207t-208.5 140t-257.5 51q-137 0 -256.5 -51t-210 -140t-142.5 -207t-52 -253t52 -255t142.5 -209t210 -140t256.5 -51zM870 -51 q-156 0 -293 58.5t-239 158.5t-161.5 236.5t-59.5 289.5q0 154 59.5 289t161.5 235.5t239.5 159t292.5 58.5q156 0 292 -58.5t237.5 -159t161 -235.5t59.5 -289t-59.5 -290t-161 -236t-237.5 -158.5t-292 -58.5z" />
<glyph unicode="&#xaf;" horiz-adv-x="942" d="M700 1317q39 0 73 -14.5t34 -63.5q0 -51 -33 -65.5t-74 -14.5h-450q-41 0 -75 12.5t-34 65.5t34 66.5t75 13.5h450z" />
<glyph unicode="&#x2c9;" horiz-adv-x="942" d="M700 1317q39 0 73 -14.5t34 -63.5q0 -51 -33 -65.5t-74 -14.5h-450q-41 0 -75 12.5t-34 65.5t34 66.5t75 13.5h450z" />
<glyph unicode="&#xb0;" horiz-adv-x="819" d="M635 1126q0 45 -18.5 86t-49 72t-71.5 49.5t-88 18.5t-87 -18.5t-71 -49.5t-48.5 -72t-17.5 -86q0 -47 17.5 -88t48.5 -71.5t71.5 -48t88.5 -17.5q45 0 86 17.5t71.5 48t49 71.5t18.5 88zM717 1126q0 -63 -24.5 -119.5t-66.5 -97.5t-97.5 -65.5t-118.5 -24.5t-120 24.5 t-97.5 65.5t-65.5 97.5t-25 119.5t24 118.5t65.5 97.5t98 67t120.5 25q63 0 118.5 -25t97.5 -67t66.5 -97.5t24.5 -118.5z" />
<glyph unicode="&#xb1;" horiz-adv-x="1269" d="M104 145h1033v-155h-1033v155zM543 1069h155v-307h439v-156h-439v-307h-155v307h-439v156h439v307z" />
<glyph unicode="&#xb2;" horiz-adv-x="811" d="M461 702q37 -27 71.5 -48t77.5 -21q41 0 62.5 26.5t21.5 61.5q0 10 -6 22q-16 -20 -45 -20q-27 0 -44 14.5t-17 40.5q0 33 24.5 50.5t57.5 17.5q59 0 85.5 -38t26.5 -89q0 -35 -13 -69t-37 -59.5t-57.5 -42t-72.5 -16.5q-55 0 -97 23t-81 49q-37 29 -78 50.5t-94 21.5 q-29 0 -59.5 -11.5t-36.5 -39.5h14q16 0 28.5 -9.5t12.5 -25.5q0 -27 -18.5 -42.5t-47.5 -15.5q-59 0 -81.5 43t-22.5 93q0 90 44 146t109.5 92t141.5 60.5t141.5 50t109.5 62.5t44 99q0 45 -18.5 77.5t-49.5 53t-71 30t-83 9.5q-49 0 -89 -11.5t-69.5 -28t-45 -38 t-15.5 -39.5q0 -10 11.5 -13.5l24.5 -7.5t24.5 -15t11.5 -36q0 -33 -26.5 -55.5t-61.5 -22.5q-51 0 -78 32t-27 77q0 61 33 106t83 76t111.5 46.5t119.5 15.5q57 0 116.5 -14.5t107.5 -45.5t78.5 -79t30.5 -115q0 -84 -39.5 -132.5t-101 -78t-136.5 -48t-141.5 -42 t-117.5 -60.5t-68 -104l4 -4q29 31 67 46t81 15q53 0 94 -21.5t76 -48.5z" />
<glyph unicode="&#xb3;" horiz-adv-x="811" d="M672 1409q25 0 53.5 -7t28.5 -38q0 -23 -14.5 -40t-30.5 -32l-230 -213h23q121 0 196.5 -66.5t75.5 -178.5q0 -59 -24.5 -114.5t-72.5 -96.5t-119 -66t-165 -25q-59 0 -121.5 14.5t-115 44.5t-86 76t-33.5 109q0 53 33.5 96t95.5 43q35 0 57.5 -20.5t22.5 -52.5 q0 -31 -21.5 -45.5t-50.5 -14.5q-25 0 -24 -16q0 -18 14 -43t45 -48.5t78 -40t112 -16.5q53 0 100.5 14.5t82 42t55 68.5t20.5 93q0 80 -53 120.5t-147 40.5q-47 0 -86 -7t-49 -7q-16 0 -24.5 11.5t-8.5 23.5q0 14 11 25.5t22 19.5l264 248h-291h-40q-22 0 -39 -4 t-29.5 -16.5t-12.5 -37.5q0 -18 2 -35.5t2 -37.5q0 -25 -7 -44.5t-42 -19.5q-25 0 -35 16.5t-10 36.5v183q0 31 13.5 44t47.5 13h527z" />
<glyph unicode="&#xb4;" horiz-adv-x="696" d="M252 1171q-10 -4 -21.5 -8t-23.5 -4q-10 0 -18.5 6t-8.5 17q0 18 12.5 30.5t24.5 22.5l217 186q20 18 40 30.5t48 12.5q39 0 65.5 -29.5t26.5 -68.5t-23.5 -58.5t-53.5 -31.5z" />
<glyph unicode="&#xb5;" horiz-adv-x="1310" d="M1087 281q0 -53 4.5 -87t11.5 -52.5t18.5 -25.5t25.5 -7q27 0 49.5 6t44.5 6q31 0 50.5 -19.5t19.5 -48.5q0 -35 -28 -55.5t-60 -20.5q-29 0 -58.5 11.5t-58.5 11.5q-31 0 -60.5 -11.5t-58.5 -11.5q-33 0 -42 32t-7 93h-4q-57 -88 -143 -120.5t-189 -32.5 q-55 0 -112.5 12t-106.5 39q0 -82 1 -161t1 -144q0 -41 -17.5 -75t-70.5 -34t-70.5 34t-17.5 81q0 141 4 293.5t4 306.5v438q0 98 -18.5 135t-51.5 37q-27 0 -49 -6t-45 -6q-31 0 -50 19.5t-19 48.5q0 35 29.5 55t70.5 20q29 0 58.5 -11t60.5 -11q29 0 58.5 11t57.5 11 q43 0 55.5 -23.5t12.5 -60.5q0 -63 -2 -107t-4 -83l-4 -77q-2 -38 -2 -89v-92q0 -29 1 -65.5t3 -74.5t6 -73t12 -61q12 -39 36 -67t54.5 -46.5t67.5 -26.5t74 -8q92 0 165.5 42t102.5 134q10 33 17.5 76t10.5 89t4 90t1 81v139q0 92 -21.5 132t-52.5 40q-27 0 -49.5 -6 t-44.5 -6q-31 0 -50.5 19.5t-19.5 48.5q0 35 29 55t67 20q35 0 66 -11t61 -11q29 0 59 11t58 11q35 0 48.5 -19t13.5 -50q0 -78 -3.5 -151.5t-3.5 -155.5v-385z" />
<glyph unicode="&#x3bc;" horiz-adv-x="1310" d="M1087 281q0 -53 4.5 -87t11.5 -52.5t18.5 -25.5t25.5 -7q27 0 49.5 6t44.5 6q31 0 50.5 -19.5t19.5 -48.5q0 -35 -28 -55.5t-60 -20.5q-29 0 -58.5 11.5t-58.5 11.5q-31 0 -60.5 -11.5t-58.5 -11.5q-33 0 -42 32t-7 93h-4q-57 -88 -143 -120.5t-189 -32.5 q-55 0 -112.5 12t-106.5 39q0 -82 1 -161t1 -144q0 -41 -17.5 -75t-70.5 -34t-70.5 34t-17.5 81q0 141 4 293.5t4 306.5v438q0 98 -18.5 135t-51.5 37q-27 0 -49 -6t-45 -6q-31 0 -50 19.5t-19 48.5q0 35 29.5 55t70.5 20q29 0 58.5 -11t60.5 -11q29 0 58.5 11t57.5 11 q43 0 55.5 -23.5t12.5 -60.5q0 -63 -2 -107t-4 -83l-4 -77q-2 -38 -2 -89v-92q0 -29 1 -65.5t3 -74.5t6 -73t12 -61q12 -39 36 -67t54.5 -46.5t67.5 -26.5t74 -8q92 0 165.5 42t102.5 134q10 33 17.5 76t10.5 89t4 90t1 81v139q0 92 -21.5 132t-52.5 40q-27 0 -49.5 -6 t-44.5 -6q-31 0 -50.5 19.5t-19.5 48.5q0 35 29 55t67 20q35 0 66 -11t61 -11q29 0 59 11t58 11q35 0 48.5 -19t13.5 -50q0 -78 -3.5 -151.5t-3.5 -155.5v-385z" />
<glyph unicode="&#xb6;" d="M678 1118q0 27 -2 60.5t-25 50.5q-23 18 -66.5 23t-72.5 5q-59 0 -115.5 -14t-93.5 -67q-29 -41 -42 -96.5t-13 -106.5q0 -80 21.5 -132.5t60.5 -83t94 -43t125 -12.5q53 0 79.5 7.5t38 26t11.5 48.5v76v258zM915 1163v35q0 16 -4 30.5t-15 23t-34 8.5t-34 -8.5t-15 -23 t-4 -30.5v-35v-1480q0 -35 -14.5 -51.5t-49.5 -16.5q-29 0 -43 9t-19 23.5t-5 34.5v42v825q-10 18 -32.5 20t-39.5 2h-59q-104 0 -186 21.5t-137.5 69t-84 125t-28.5 192.5q0 82 21.5 172t80.5 149q31 31 68.5 51.5t78.5 33t84 16.5t84 4q80 0 162 -9.5t162 -13.5 q80 4 157.5 13.5t155.5 9.5q35 0 62.5 -20.5t27.5 -57.5q0 -29 -19 -48t-50 -19q-20 0 -38 6t-38 6q-25 0 -38 -22.5t-19 -56.5t-6 -75v-80v-1314v-40q0 -19 -5.5 -35t-18.5 -25t-40 -9q-29 0 -43 8t-19.5 22.5t-5.5 33.5v45v1439z" />
<glyph unicode="&#xb7;" horiz-adv-x="696" d="M338 684q53 0 92 -39t39 -94q0 -53 -39 -92t-92 -39q-55 0 -94 39t-39 92q0 55 39 94t94 39z" />
<glyph unicode="&#x2219;" horiz-adv-x="696" d="M338 684q53 0 92 -39t39 -94q0 -53 -39 -92t-92 -39q-55 0 -94 39t-39 92q0 55 39 94t94 39z" />
<glyph unicode="&#xb8;" horiz-adv-x="696" d="M344 -90q14 0 26.5 2t24.5 2q31 0 60.5 -10t53 -28.5t39 -45.5t15.5 -59q0 -43 -20.5 -74t-52 -50.5t-71.5 -28.5t-77 -9q-23 0 -56.5 6t-66.5 20.5t-55.5 36t-22.5 49.5q0 16 13.5 31t29.5 15t24.5 -6.5t18.5 -16.5q25 -27 50.5 -39t60.5 -12q16 0 34.5 4t34 12 t25.5 21.5t10 33.5q0 37 -26.5 53.5t-61.5 16.5q-20 0 -32.5 -3t-32.5 -11q-10 -4 -22.5 -8.5t-26.5 -4.5q-23 0 -23 21q0 10 7 28.5t12 26.5l45 107h94z" />
<glyph unicode="&#xb9;" horiz-adv-x="811" d="M348 1130q0 66 -2 105t-9 60.5t-21.5 27.5t-39.5 6q-16 0 -31.5 -3t-31.5 -3q-18 0 -30.5 12.5t-12.5 28.5q0 23 15.5 34t25.5 11q27 0 53.5 -7t54.5 -7q29 0 54.5 7t52.5 7t34 -9t7 -24q0 -10 -2 -24.5t-2 -26.5v-496q0 -68 3 -107.5t11 -59t21.5 -24.5t36.5 -5 q16 0 32.5 3t32.5 3q18 0 29.5 -12.5t11.5 -30.5q0 -23 -16.5 -33t-38.5 -10q-29 0 -80 6t-103 6q-51 0 -100 -6t-78 -6q-20 0 -37.5 10t-17.5 33q0 18 12.5 30.5t30.5 12.5q16 0 31.5 -3t31.5 -3q25 0 39.5 6t21.5 26.5t9 59.5t2 104v301z" />
<glyph unicode="&#xba;" horiz-adv-x="901" d="M786 612h-673v70h673v-70zM446 1339q-51 0 -86.5 -21.5t-57 -55t-32 -76.5t-10.5 -88q0 -43 9.5 -86t31 -78t55 -56.5t84.5 -21.5q55 0 93 19.5t61.5 51t34 76t10.5 93.5t-9 94t-30.5 77.5t-60 52t-93.5 19.5zM449 1434q59 0 117.5 -17.5t101.5 -64.5q45 -47 67.5 -115 t22.5 -131q0 -76 -20.5 -139.5t-60.5 -109.5t-99.5 -72.5t-139.5 -26.5q-74 0 -129 27.5t-93 73.5t-56.5 107.5t-18.5 131.5t19.5 131t58.5 107t96.5 72t133.5 26z" />
<glyph unicode="&#xbb;" horiz-adv-x="696" d="M158 844q-4 16 -8.5 27.5t-4.5 27.5q0 31 29 31q16 0 27 -17l16 -26l184 -293l13 -19q8 -12 8 -20t-7 -19.5t-12 -15.5l-188 -309q-10 -14 -18.5 -27.5t-28.5 -13.5q-29 0 -29 29q0 12 5.5 25.5t9.5 25.5l104 305zM418 844l-10 27q-4 11 -5 28q0 31 31 31q16 0 26 -17 l15 -26l184 -293q4 -6 12.5 -17.5t8.5 -21.5q0 -8 -7 -19l-11 -18l-189 -307l-17 -27q-9 -14 -28 -14q-29 0 -29 29q0 10 4.5 25.5t8.5 25.5l104 305z" />
<glyph unicode="&#xbc;" horiz-adv-x="2027" d="M633 27q-10 -14 -15.5 -22.5t-10.5 -11.5t-14 -3h-28q-6 0 -15 -1t-19.5 -1t-17.5 4t-7 14t6 17.5t10 15.5l852 1325q10 14 15.5 23.5t11.5 12.5t16 4t29 1q35 0 50 -2t-7 -39zM381 1130q0 66 -2 105t-9.5 60.5t-21.5 27.5t-39 6q-16 0 -31.5 -3t-31.5 -3 q-18 0 -30.5 12.5t-12.5 28.5q0 23 15 34t26 11q27 0 53.5 -7t54.5 -7q29 0 54.5 7t52.5 7t34 -9t7 -24q0 -10 -2 -24.5t-2 -26.5v-496q0 -68 3 -107.5t11 -59t21.5 -24.5t35.5 -5q16 0 32.5 3t33.5 3q18 0 29.5 -12.5t11.5 -30.5q0 -23 -16.5 -33t-39.5 -10q-29 0 -80 6 t-102 6t-100 -6t-78 -6q-20 0 -37.5 10t-17.5 33q0 18 12 30.5t31 12.5q16 0 31.5 -3t31.5 -3q25 0 39 6t21.5 26.5t9.5 59.5t2 104v301zM1505 752h-4l-332 -412h336v412zM1118 252q-53 0 -68.5 15.5t-15.5 33.5q0 14 9.5 28.5t19.5 24.5l321 396q29 37 70 76.5t90 39.5 q53 0 64.5 -32.5t11.5 -71.5v-422h135q23 0 42.5 -7t19.5 -36t-18.5 -37t-45.5 -8h-133v-37q0 -51 4 -81t11 -44t18.5 -17t27.5 -3t37 2t51 2q18 0 30.5 -13.5t12.5 -29.5q0 -23 -17 -34t-38 -11q-27 0 -77 7t-101 7t-100 -7t-78 -7q-90 0 -90 45q0 16 11 29.5t32 13.5 q31 0 51 -2t39 -2q27 0 39 16t17 38.5t5 48.5v42v37h-387z" />
<glyph unicode="&#xbd;" horiz-adv-x="2027" d="M551 27q-10 -14 -15.5 -22.5t-10.5 -11.5t-14 -3h-28q-6 0 -15 -1t-19.5 -1t-17.5 4t-7 14t6 17.5t10 15.5l852 1325q10 14 15.5 23.5t11.5 12.5t16.5 4t28.5 1q35 0 50.5 -2t-7.5 -39zM1704 610q0 45 -18.5 78t-49 53.5t-70.5 29.5t-83 9q-49 0 -89 -11t-70 -27.5 t-45 -38t-15 -39.5q0 -10 11 -13.5l24.5 -7.5t24.5 -15.5t11 -35.5q0 -33 -26.5 -55.5t-61.5 -22.5q-51 0 -77.5 32t-26.5 77q0 61 32.5 106t83 76t112 46t118.5 15t116.5 -14t107.5 -45t79 -79t31 -116q0 -84 -40 -132t-101.5 -77.5t-136.5 -48t-141.5 -42t-117.5 -60.5 t-67 -105l4 -4q29 31 66.5 46.5t80.5 15.5q53 0 94 -21.5t76 -48.5q37 -27 72 -48t78 -21q41 0 62.5 26.5t21.5 61.5q0 10 -7 22q-16 -20 -45 -20q-27 0 -44 14t-17 41q0 33 24.5 50.5t57.5 17.5q59 0 85.5 -38t26.5 -89q0 -35 -13 -69t-36.5 -59.5t-57.5 -42t-73 -16.5 q-55 0 -97 22.5t-81 49.5q-37 29 -78 50.5t-94 21.5q-29 0 -59.5 -11.5t-36.5 -40.5h14q16 0 28.5 -9t12.5 -25q0 -27 -18.5 -42.5t-46.5 -15.5q-59 0 -82 43t-23 92q0 90 44 146.5t109.5 92.5t141.5 60.5t141.5 50t109.5 62.5t44 98zM348 1130q0 66 -2 105t-9 60.5 t-21.5 27.5t-39.5 6q-16 0 -31.5 -3t-31.5 -3q-18 0 -30.5 12.5t-12.5 28.5q0 23 15.5 34t25.5 11q27 0 53.5 -7t54.5 -7q29 0 54.5 7t52.5 7t34 -9t7 -24q0 -10 -2 -24.5t-2 -26.5v-496q0 -68 3 -107.5t11 -59t21.5 -24.5t36.5 -5q16 0 32.5 3t32.5 3q18 0 29.5 -12.5 t11.5 -30.5q0 -23 -16.5 -33t-38.5 -10q-29 0 -80 6t-103 6q-51 0 -100 -6t-78 -6q-20 0 -37.5 10t-17.5 33q0 18 12.5 30.5t30.5 12.5q16 0 31.5 -3t31.5 -3q25 0 39.5 6t21.5 26.5t9 59.5t2 104v301z" />
<glyph unicode="&#xbe;" horiz-adv-x="2027" d="M778 1409q25 0 53.5 -7t28.5 -38q0 -23 -14.5 -40t-30.5 -32l-229 -213h22q121 0 197 -66.5t76 -178.5q0 -59 -25 -114.5t-73 -96.5t-118.5 -66t-164.5 -25q-59 0 -122 14.5t-115 44.5t-86 76t-34 109q0 53 34 96t95 43q35 0 57.5 -20.5t22.5 -52.5q0 -31 -21.5 -45.5 t-49.5 -14.5q-25 0 -25 -16q0 -18 14.5 -43t45 -48.5t77.5 -40t113 -16.5q53 0 100 14.5t82 42t55.5 68.5t20.5 93q0 80 -53.5 120.5t-147.5 40.5q-47 0 -86 -7t-49 -7q-16 0 -24.5 11.5t-8.5 23.5q0 14 11.5 25.5t21.5 19.5l264 248h-291h-40q-22 0 -39 -4t-29 -16.5 t-12 -37.5q0 -18 2 -35.5t2 -37.5q0 -25 -7.5 -44.5t-41.5 -19.5q-25 0 -35.5 16.5t-10.5 36.5v183q0 31 13.5 44t48.5 13h526zM743 27q-10 -14 -15 -22.5t-10 -11.5t-15 -3h-27q-6 0 -15.5 -1t-19.5 -1t-17.5 4t-7.5 14t6.5 17.5t10.5 15.5l852 1325q10 14 15 23.5 t11.5 12.5t16.5 4t28 1q35 0 50.5 -2t-7.5 -39zM1612 752h-4l-332 -412h336v412zM1507 -14q-90 0 -90 45q0 16 11.5 29.5t31.5 13.5q31 0 51.5 -2t38.5 -2q27 0 39.5 16t17.5 38.5t5 48.5v42v37h-387q-53 0 -68.5 15.5t-15.5 33.5q0 14 9 28.5t19 24.5l322 396 q29 37 70 76.5t90 39.5q53 0 64 -32.5t11 -71.5v-422h136q23 0 42 -7t19 -36t-18.5 -37t-44.5 -8h-134v-37q0 -51 4.5 -81t11.5 -44t18.5 -17t27.5 -3t36.5 2t51.5 2q18 0 30.5 -13.5t12.5 -29.5q0 -23 -17.5 -34t-37.5 -11q-27 0 -77 7t-101 7t-100.5 -7t-78.5 -7z" />
<glyph unicode="&#xbf;" horiz-adv-x="1228" d="M674 807q-53 0 -92 39t-39 92q0 55 39 94t92 39q55 0 94 -39t39 -94q0 -53 -39 -92t-94 -39zM1135 18q0 -98 -47.5 -176t-124.5 -131q-76 -51 -174.5 -73.5t-188.5 -22.5q-84 0 -179 19.5t-167 64.5q-82 51 -128 133t-46 178q0 78 25.5 136.5t68.5 103.5t101.5 77.5 t123.5 61.5l80 37q39 18 69 43t47 60.5t17 86.5q0 41 11.5 75t64.5 34t72.5 -27.5t19.5 -74.5q0 -70 -22.5 -123.5t-61.5 -94t-90 -73.5t-108 -64l-88 -47q-43 -23 -77 -53.5t-54.5 -70.5t-20.5 -97q0 -70 32 -118t81 -77.5t110.5 -43t120.5 -13.5t119.5 12.5t112.5 40.5 q55 31 99 82t44 119q0 59 -53 88l2 -18q0 -35 -26 -52.5t-58 -17.5q-41 0 -64.5 28.5t-23.5 65.5q0 35 15 60.5t40 43t55.5 27t61.5 9.5q47 0 85 -17.5t65.5 -47.5t43 -70t15.5 -83z" />
<glyph unicode="&#xc0;" horiz-adv-x="1597" d="M582 672q-14 -41 -6 -47.5t51 -6.5h276h30q19 0 19 17q0 10 -2 18.5t-6 18.5l-178 553h-4zM602 479q-25 0 -42 -1t-30.5 -8t-22.5 -21.5t-20 -40.5l-61 -162l-11 -34q-5 -15 -5 -36q0 -37 21.5 -51t55.5 -14q29 0 60 5t71 5q29 0 47.5 -20.5t18.5 -49.5 q0 -37 -26.5 -55.5t-61.5 -18.5q-41 0 -119 11.5t-155 11.5q-78 0 -156 -11.5t-119 -11.5q-16 0 -40.5 18.5t-24.5 55.5q0 29 18 49.5t47 20.5q31 0 52.5 -4t39.5 -4q25 0 39.5 11t24.5 32q16 23 30 61l25 68l375 1009q20 57 48 84t93 27q63 0 89 -27.5t46 -83.5l363 -997 q10 -33 25.5 -70t31.5 -63q23 -33 44.5 -43t58.5 -10q20 0 43.5 3t60.5 7q29 0 47.5 -20.5t18.5 -49.5q0 -37 -27 -55.5t-62 -18.5q-41 0 -118.5 11.5t-155.5 11.5t-155.5 -11.5t-118.5 -11.5q-55 0 -86 18.5t-31 55.5q0 29 18.5 49.5t46.5 20.5q49 -2 80 -6t60 -4 q25 0 45 13t20 42q0 10 -10 39l-14 41l-56 155q-12 33 -20 49.5t-19.5 22.5t-28.5 6h-50h-318zM916 1597q12 -10 25.5 -22.5t13.5 -30.5q0 -10 -9.5 -16.5t-19.5 -6.5q-12 0 -23.5 4t-21.5 8l-283 105q-33 12 -55.5 31.5t-22.5 58.5t26 68.5t67 29.5q29 0 47 -12t39 -31z " />
<glyph unicode="&#xc1;" horiz-adv-x="1597" d="M582 672q-14 -41 -6 -47.5t51 -6.5h276h30q19 0 19 17q0 10 -2 18.5t-6 18.5l-178 553h-4zM602 479q-25 0 -42 -1t-30.5 -8t-22.5 -21.5t-20 -40.5l-61 -162l-11 -34q-5 -15 -5 -36q0 -37 21.5 -51t55.5 -14q29 0 60 5t71 5q29 0 47.5 -20.5t18.5 -49.5 q0 -37 -26.5 -55.5t-61.5 -18.5q-41 0 -119 11.5t-155 11.5q-78 0 -156 -11.5t-119 -11.5q-16 0 -40.5 18.5t-24.5 55.5q0 29 18 49.5t47 20.5q31 0 52.5 -4t39.5 -4q25 0 39.5 11t24.5 32q16 23 30 61l25 68l375 1009q20 57 48 84t93 27q63 0 89 -27.5t46 -83.5l363 -997 q10 -33 25.5 -70t31.5 -63q23 -33 44.5 -43t58.5 -10q20 0 43.5 3t60.5 7q29 0 47.5 -20.5t18.5 -49.5q0 -37 -27 -55.5t-62 -18.5q-41 0 -118.5 11.5t-155.5 11.5t-155.5 -11.5t-118.5 -11.5q-55 0 -86 18.5t-31 55.5q0 29 18.5 49.5t46.5 20.5q49 -2 80 -6t60 -4 q25 0 45 13t20 42q0 10 -10 39l-14 41l-56 155q-12 33 -20 49.5t-19.5 22.5t-28.5 6h-50h-318zM703 1533q-10 -4 -21.5 -8t-23.5 -4q-10 0 -18.5 6t-8.5 17q0 18 12.5 30.5t24.5 22.5l217 186q20 18 40 30.5t48 12.5q39 0 65.5 -29.5t26.5 -68.5t-23.5 -58.5t-53.5 -31.5z " />
<glyph unicode="&#xc2;" horiz-adv-x="1597" d="M582 672q-14 -41 -6 -47.5t51 -6.5h276h30q19 0 19 17q0 10 -2 18.5t-6 18.5l-178 553h-4zM602 479q-25 0 -42 -1t-30.5 -8t-22.5 -21.5t-20 -40.5l-61 -162l-11 -34q-5 -15 -5 -36q0 -37 21.5 -51t55.5 -14q29 0 60 5t71 5q29 0 47.5 -20.5t18.5 -49.5 q0 -37 -26.5 -55.5t-61.5 -18.5q-41 0 -119 11.5t-155 11.5q-78 0 -156 -11.5t-119 -11.5q-16 0 -40.5 18.5t-24.5 55.5q0 29 18 49.5t47 20.5q31 0 52.5 -4t39.5 -4q25 0 39.5 11t24.5 32q16 23 30 61l25 68l375 1009q20 57 48 84t93 27q63 0 89 -27.5t46 -83.5l363 -997 q10 -33 25.5 -70t31.5 -63q23 -33 44.5 -43t58.5 -10q20 0 43.5 3t60.5 7q29 0 47.5 -20.5t18.5 -49.5q0 -37 -27 -55.5t-62 -18.5q-41 0 -118.5 11.5t-155.5 11.5t-155.5 -11.5t-118.5 -11.5q-55 0 -86 18.5t-31 55.5q0 29 18.5 49.5t46.5 20.5q49 -2 80 -6t60 -4 q25 0 45 13t20 42q0 10 -10 39l-14 41l-56 155q-12 33 -20 49.5t-19.5 22.5t-28.5 6h-50h-318zM731 1767q6 4 19.5 14.5t23.5 10.5q8 0 22.5 -10t18.5 -15l287 -200l21 -17q11 -8 11 -24q0 -25 -26 -25q-12 0 -34 5t-43 14l-43 16q-22 8 -34 12l-94 33q-47 16 -92 39 q-20 -10 -68 -30l-100 -40q-53 -20 -99.5 -35.5t-62.5 -15.5q-31 0 -31 27q0 12 16.5 23.5t24.5 17.5z" />
<glyph unicode="&#xc3;" horiz-adv-x="1597" d="M582 672q-14 -41 -6 -47.5t51 -6.5h276h30q19 0 19 17q0 10 -2 18.5t-6 18.5l-178 553h-4zM602 479q-25 0 -42 -1t-30.5 -8t-22.5 -21.5t-20 -40.5l-61 -162l-11 -34q-5 -15 -5 -36q0 -37 21.5 -51t55.5 -14q29 0 60 5t71 5q29 0 47.5 -20.5t18.5 -49.5 q0 -37 -26.5 -55.5t-61.5 -18.5q-41 0 -119 11.5t-155 11.5q-78 0 -156 -11.5t-119 -11.5q-16 0 -40.5 18.5t-24.5 55.5q0 29 18 49.5t47 20.5q31 0 52.5 -4t39.5 -4q25 0 39.5 11t24.5 32q16 23 30 61l25 68l375 1009q20 57 48 84t93 27q63 0 89 -27.5t46 -83.5l363 -997 q10 -33 25.5 -70t31.5 -63q23 -33 44.5 -43t58.5 -10q20 0 43.5 3t60.5 7q29 0 47.5 -20.5t18.5 -49.5q0 -37 -27 -55.5t-62 -18.5q-41 0 -118.5 11.5t-155.5 11.5t-155.5 -11.5t-118.5 -11.5q-55 0 -86 18.5t-31 55.5q0 29 18.5 49.5t46.5 20.5q49 -2 80 -6t60 -4 q25 0 45 13t20 42q0 10 -10 39l-14 41l-56 155q-12 33 -20 49.5t-19.5 22.5t-28.5 6h-50h-318zM871 1681l59 -21q31 -11 62 -11q27 0 45 10t30.5 23.5t20.5 23.5t18 10q25 0 25 -28q0 -27 -9.5 -53.5t-21.5 -49.5q-29 -45 -69.5 -64.5t-94.5 -19.5q-37 0 -80 12.5t-86 27.5 t-85 27.5t-78 12.5q-51 0 -82 -43l-12 -18q-5 -8 -17 -9q-27 0 -27 33q0 27 12.5 57.5t26.5 53.5q29 43 71 60.5t93 17.5q47 0 101.5 -18t97.5 -34z" />
<glyph unicode="&#xc4;" horiz-adv-x="1597" d="M582 672q-14 -41 -6 -47.5t51 -6.5h276h30q19 0 19 17q0 10 -2 18.5t-6 18.5l-178 553h-4zM602 479q-25 0 -42 -1t-30.5 -8t-22.5 -21.5t-20 -40.5l-61 -162l-11 -34q-5 -15 -5 -36q0 -37 21.5 -51t55.5 -14q29 0 60 5t71 5q29 0 47.5 -20.5t18.5 -49.5 q0 -37 -26.5 -55.5t-61.5 -18.5q-41 0 -119 11.5t-155 11.5q-78 0 -156 -11.5t-119 -11.5q-16 0 -40.5 18.5t-24.5 55.5q0 29 18 49.5t47 20.5q31 0 52.5 -4t39.5 -4q25 0 39.5 11t24.5 32q16 23 30 61l25 68l375 1009q20 57 48 84t93 27q63 0 89 -27.5t46 -83.5l363 -997 q10 -33 25.5 -70t31.5 -63q23 -33 44.5 -43t58.5 -10q20 0 43.5 3t60.5 7q29 0 47.5 -20.5t18.5 -49.5q0 -37 -27 -55.5t-62 -18.5q-41 0 -118.5 11.5t-155.5 11.5t-155.5 -11.5t-118.5 -11.5q-55 0 -86 18.5t-31 55.5q0 29 18.5 49.5t46.5 20.5q49 -2 80 -6t60 -4 q25 0 45 13t20 42q0 10 -10 39l-14 41l-56 155q-12 33 -20 49.5t-19.5 22.5t-28.5 6h-50h-318zM965 1757q47 0 82 -35t35 -84t-35 -83t-82 -34q-49 0 -84 34t-35 83t35 84t84 35zM588 1757q49 0 84 -35t35 -84t-35 -83t-84 -34q-47 0 -82 34t-35 83t34 84t83 35z" />
<glyph unicode="&#xc5;" horiz-adv-x="1597" d="M582 672q-14 -41 -6 -47.5t51 -6.5h276h30q19 0 19 17q0 10 -2 18.5t-6 18.5l-178 553h-4zM602 479q-25 0 -42 -1t-30.5 -8t-22.5 -21.5t-20 -40.5l-61 -162l-11 -34q-5 -15 -5 -36q0 -37 21.5 -51t55.5 -14q29 0 60 5t71 5q29 0 47.5 -20.5t18.5 -49.5 q0 -37 -26.5 -55.5t-61.5 -18.5q-41 0 -119 11.5t-155 11.5q-78 0 -156 -11.5t-119 -11.5q-16 0 -40.5 18.5t-24.5 55.5q0 29 18 49.5t47 20.5q31 0 52.5 -4t39.5 -4q25 0 39.5 11t24.5 32q16 23 30 61l25 68l375 1009q20 57 48 84t93 27q63 0 89 -27.5t46 -83.5l363 -997 q10 -33 25.5 -70t31.5 -63q23 -33 44.5 -43t58.5 -10q20 0 43.5 3t60.5 7q29 0 47.5 -20.5t18.5 -49.5q0 -37 -27 -55.5t-62 -18.5q-41 0 -118.5 11.5t-155.5 11.5t-155.5 -11.5t-118.5 -11.5q-55 0 -86 18.5t-31 55.5q0 29 18.5 49.5t46.5 20.5q49 -2 80 -6t60 -4 q25 0 45 13t20 42q0 10 -10 39l-14 41l-56 155q-12 33 -20 49.5t-19.5 22.5t-28.5 6h-50h-318zM776 1710q-35 0 -60.5 -24.5t-25.5 -59.5q0 -37 25.5 -61.5t60.5 -24.5t60.5 24.5t25.5 61.5q0 35 -25.5 59.5t-60.5 24.5zM776 1790q68 0 116 -48t48 -116q0 -70 -48 -118 t-116 -48t-116 48t-48 118q0 68 48 116t116 48z" />
<glyph unicode="&#xc6;" horiz-adv-x="2170" d="M1065 776q23 0 34 2t15 9.5t4 21.5v37v414v36q-2 0 -9 -14t-11 -18l-305 -488h272zM1118 580q0 41 -14 50t-55 9h-299q-16 0 -29.5 -3t-26.5 -20q-16 -18 -34 -49l-29 -53l-158 -278l-37 -65t-14 -36q0 -16 13.5 -20t25.5 -4q20 0 40.5 5t41.5 5q29 0 47 -20.5t18 -49.5 q0 -74 -65 -74q-47 0 -109.5 11.5t-132.5 11.5q-63 0 -120.5 -11.5t-121.5 -11.5q-66 0 -65 74q0 29 18.5 49.5t46.5 20.5q27 0 46.5 -6t39.5 -6q16 0 28.5 5t27 19t32 40t43.5 69l685 1083q23 35 45 57.5t63 22.5q49 0 90 -3t81 -8t83 -8.5t92 -3.5q135 0 276.5 11.5 t286.5 11.5q45 0 71 -25.5t26 -66.5q0 -45 -6.5 -106.5t-6.5 -133.5q0 -47 6.5 -91t6.5 -91q0 -35 -23.5 -56.5t-58.5 -21.5q-41 0 -57.5 26.5t-16.5 63.5q0 29 3 65t3 64q0 76 -14.5 120t-46 67.5t-81.5 29.5t-120 6h-207q-55 0 -87 -6t-48 -21.5t-21.5 -43t-5.5 -72.5 v-287q0 -33 8.5 -42t30.5 -9h174q61 0 87 28.5t26 67.5q0 33 -6 64t-6 61q0 37 16 63.5t57 26.5q35 0 53.5 -24.5t18.5 -59.5q0 -78 -7 -156.5t-7 -158.5q0 -47 2 -85t5 -70.5t5 -64.5t2 -65q0 -35 -19.5 -56t-54.5 -21t-54 22.5t-19 56.5q0 35 6 70t6 70q0 53 -31 73.5 t-119 20.5h-116q-35 0 -46.5 -7t-11.5 -34v-326q0 -47 4.5 -75.5t18.5 -45t37.5 -22.5t64.5 -6h314q72 0 115.5 11t68.5 34.5t33 59.5t8 85q0 35 -3 88.5t-3 96.5q0 37 17.5 59.5t55.5 22.5q47 0 61.5 -25t14.5 -66q0 -51 -4 -102t-4 -102t4 -101.5t4 -101.5 q0 -41 -26.5 -72t-85.5 -31q-166 0 -325 11.5t-339 11.5q-109 0 -198 -11.5t-183 -11.5q-96 0 -96 74q0 29 18.5 49.5t46.5 20.5q25 0 49.5 -5t49.5 -5q39 0 60.5 12t31.5 43t12 85t2 138v191z" />
<glyph unicode="&#xc7;" d="M264 694q0 -104 22.5 -211.5t75 -194.5t139.5 -141.5t216 -54.5q86 0 170 33t137 104q41 53 54.5 109.5t13.5 118.5q0 41 16 68.5t63 27.5t66.5 -25.5t19.5 -68.5q0 -115 -40.5 -206t-111.5 -157.5t-168 -103.5t-208 -41l-16 -41q14 0 26.5 2t24.5 2q31 0 60.5 -10 t53 -28.5t39 -45.5t15.5 -59q0 -43 -20.5 -74t-52.5 -50.5t-71.5 -28.5t-76.5 -9q-23 0 -56.5 6t-66.5 20.5t-55.5 36t-22.5 49.5q0 16 13.5 31t29.5 15t24.5 -6.5t18.5 -16.5q25 -27 50.5 -39t60.5 -12q16 0 34.5 4t34 12t25.5 21.5t10 33.5q0 37 -26.5 53.5t-61.5 16.5 q-20 0 -32.5 -3t-33.5 -11l-22 -8.5t-27 -4.5q-23 0 -22 21q0 10 7 28.5t11 26.5l29 70q-141 12 -246.5 75.5t-174.5 162t-102.5 222.5t-33.5 259q0 129 32.5 266t110.5 248q86 121 212 184.5t274 63.5q119 0 215 -40t165 -132l5 4q-2 23 -5.5 47t-3.5 47q0 29 17.5 49.5 t48.5 20.5q37 0 54.5 -27t17.5 -62q0 -61 -7.5 -124.5t-7.5 -124.5q0 -66 7.5 -117t7.5 -98q0 -41 -21.5 -60.5t-56.5 -19.5q-53 0 -66.5 26.5t-13.5 100.5q0 55 -8.5 109t-42.5 110q-47 76 -129 111.5t-168 35.5q-129 0 -215 -53t-138.5 -138t-74 -192t-21.5 -213z" />
<glyph unicode="&#xc8;" horiz-adv-x="1392" d="M485 383l7 -143q2 -41 8 -64.5t24.5 -36t51 -16.5t88.5 -4h241q66 0 113 6t77.5 24.5t45 53.5t14.5 94q0 47 -6 92t-6 92q0 37 17.5 67t60.5 30q45 0 62 -27t17 -68q0 -53 -4 -103t-4 -104q0 -51 4 -102t4 -102q0 -94 -133 -95q-166 0 -334.5 11.5t-357.5 11.5 q-117 0 -196.5 -11.5t-155.5 -11.5q-41 0 -64.5 18.5t-23.5 55.5q0 29 18.5 49.5t46.5 20.5q25 0 49.5 -5t49.5 -5q82 0 100 75q4 16 6 36t3 48.5t1 69.5v100v502v59v71q0 36 -2 69t-8 55q-18 76 -100 76q-25 0 -49.5 -5t-49.5 -5q-29 0 -47 20.5t-18 48.5q0 37 26.5 55.5 t61.5 18.5q76 0 155.5 -11.5t196.5 -11.5q188 0 357 11.5t335 11.5q53 0 81 -21.5t28 -76.5q0 -57 -8 -112.5t-8 -113.5q0 -53 8 -102t8 -100q0 -35 -21.5 -56.5t-56.5 -21.5q-47 0 -61.5 32.5t-14.5 118.5q0 59 -1 100.5t-5 71t-13 50t-26 38.5q-12 12 -28.5 20.5t-51 13.5 t-93 7t-152.5 2q-55 0 -93 -1t-64 -4t-43 -9t-30 -14q-10 -8 -17 -17.5t-11.5 -26t-6.5 -41t-2 -61.5v-166q0 -43 1 -61t18 -29q16 -12 43.5 -13t75.5 -1q98 0 137 19.5t39 72.5q0 33 -6.5 65.5t-6.5 65.5q0 35 17.5 60.5t56.5 25.5q41 0 59.5 -27.5t18.5 -66.5 q0 -41 -12 -118q-9 -58 -10 -133q0 -25 2 -52q-1 -21 -1 -41q0 -29 2 -54q3 -42 7 -77t8 -64.5t4 -56.5q0 -35 -21.5 -53.5t-54.5 -18.5q-43 0 -59.5 24t-16.5 64q0 35 6.5 68t6.5 68q0 53 -33 71.5t-131 18.5q-53 0 -82 -1t-47 -16q-10 -10 -15.5 -31.5t-5.5 -88.5v-152z M844 1597q12 -10 25.5 -22.5t13.5 -30.5q0 -10 -9.5 -16.5t-19.5 -6.5q-12 0 -23.5 4t-21.5 8l-283 105q-33 12 -55.5 31.5t-22.5 58.5t26 68.5t67 29.5q29 0 47 -12t39 -31z" />
<glyph unicode="&#xc9;" horiz-adv-x="1392" d="M485 383l7 -143q2 -41 8 -64.5t24.5 -36t51 -16.5t88.5 -4h241q66 0 113 6t77.5 24.5t45 53.5t14.5 94q0 47 -6 92t-6 92q0 37 17.5 67t60.5 30q45 0 62 -27t17 -68q0 -53 -4 -103t-4 -104q0 -51 4 -102t4 -102q0 -94 -133 -95q-166 0 -334.5 11.5t-357.5 11.5 q-117 0 -196.5 -11.5t-155.5 -11.5q-41 0 -64.5 18.5t-23.5 55.5q0 29 18.5 49.5t46.5 20.5q25 0 49.5 -5t49.5 -5q82 0 100 75q4 16 6 36t3 48.5t1 69.5v100v502v59v71q0 36 -2 69t-8 55q-18 76 -100 76q-25 0 -49.5 -5t-49.5 -5q-29 0 -47 20.5t-18 48.5q0 37 26.5 55.5 t61.5 18.5q76 0 155.5 -11.5t196.5 -11.5q188 0 357 11.5t335 11.5q53 0 81 -21.5t28 -76.5q0 -57 -8 -112.5t-8 -113.5q0 -53 8 -102t8 -100q0 -35 -21.5 -56.5t-56.5 -21.5q-47 0 -61.5 32.5t-14.5 118.5q0 59 -1 100.5t-5 71t-13 50t-26 38.5q-12 12 -28.5 20.5t-51 13.5 t-93 7t-152.5 2q-55 0 -93 -1t-64 -4t-43 -9t-30 -14q-10 -8 -17 -17.5t-11.5 -26t-6.5 -41t-2 -61.5v-166q0 -43 1 -61t18 -29q16 -12 43.5 -13t75.5 -1q98 0 137 19.5t39 72.5q0 33 -6.5 65.5t-6.5 65.5q0 35 17.5 60.5t56.5 25.5q41 0 59.5 -27.5t18.5 -66.5 q0 -41 -12 -118q-9 -58 -10 -133q0 -25 2 -52q-1 -21 -1 -41q0 -29 2 -54q3 -42 7 -77t8 -64.5t4 -56.5q0 -35 -21.5 -53.5t-54.5 -18.5q-43 0 -59.5 24t-16.5 64q0 35 6.5 68t6.5 68q0 53 -33 71.5t-131 18.5q-53 0 -82 -1t-47 -16q-10 -10 -15.5 -31.5t-5.5 -88.5v-152z M600 1533q-10 -4 -21.5 -8t-23.5 -4q-10 0 -18.5 6t-8.5 17q0 18 12.5 30.5t24.5 22.5l217 186q20 18 40 30.5t48 12.5q39 0 65.5 -29.5t26.5 -68.5t-23.5 -58.5t-53.5 -31.5z" />
<glyph unicode="&#xca;" horiz-adv-x="1392" d="M485 383l7 -143q2 -41 8 -64.5t24.5 -36t51 -16.5t88.5 -4h241q66 0 113 6t77.5 24.5t45 53.5t14.5 94q0 47 -6 92t-6 92q0 37 17.5 67t60.5 30q45 0 62 -27t17 -68q0 -53 -4 -103t-4 -104q0 -51 4 -102t4 -102q0 -94 -133 -95q-166 0 -334.5 11.5t-357.5 11.5 q-117 0 -196.5 -11.5t-155.5 -11.5q-41 0 -64.5 18.5t-23.5 55.5q0 29 18.5 49.5t46.5 20.5q25 0 49.5 -5t49.5 -5q82 0 100 75q4 16 6 36t3 48.5t1 69.5v100v502v59v71q0 36 -2 69t-8 55q-18 76 -100 76q-25 0 -49.5 -5t-49.5 -5q-29 0 -47 20.5t-18 48.5q0 37 26.5 55.5 t61.5 18.5q76 0 155.5 -11.5t196.5 -11.5q188 0 357 11.5t335 11.5q53 0 81 -21.5t28 -76.5q0 -57 -8 -112.5t-8 -113.5q0 -53 8 -102t8 -100q0 -35 -21.5 -56.5t-56.5 -21.5q-47 0 -61.5 32.5t-14.5 118.5q0 59 -1 100.5t-5 71t-13 50t-26 38.5q-12 12 -28.5 20.5t-51 13.5 t-93 7t-152.5 2q-55 0 -93 -1t-64 -4t-43 -9t-30 -14q-10 -8 -17 -17.5t-11.5 -26t-6.5 -41t-2 -61.5v-166q0 -43 1 -61t18 -29q16 -12 43.5 -13t75.5 -1q98 0 137 19.5t39 72.5q0 33 -6.5 65.5t-6.5 65.5q0 35 17.5 60.5t56.5 25.5q41 0 59.5 -27.5t18.5 -66.5 q0 -41 -12 -118q-9 -58 -10 -133q0 -25 2 -52q-1 -21 -1 -41q0 -29 2 -54q3 -42 7 -77t8 -64.5t4 -56.5q0 -35 -21.5 -53.5t-54.5 -18.5q-43 0 -59.5 24t-16.5 64q0 35 6.5 68t6.5 68q0 53 -33 71.5t-131 18.5q-53 0 -82 -1t-47 -16q-10 -10 -15.5 -31.5t-5.5 -88.5v-152z M649 1787q6 4 19.5 14.5t23.5 10.5q8 0 22.5 -10t18.5 -15l287 -200l21 -17q11 -8 11 -24q0 -25 -26 -25q-12 0 -34 5t-43 14l-43 16q-22 8 -34 12l-94 33q-47 16 -92 39q-20 -10 -68 -30l-100 -40q-53 -20 -99.5 -35.5t-62.5 -15.5q-31 0 -31 27q0 12 16.5 23.5t24.5 17.5z " />
<glyph unicode="&#xcb;" horiz-adv-x="1392" d="M485 383l7 -143q2 -41 8 -64.5t24.5 -36t51 -16.5t88.5 -4h241q66 0 113 6t77.5 24.5t45 53.5t14.5 94q0 47 -6 92t-6 92q0 37 17.5 67t60.5 30q45 0 62 -27t17 -68q0 -53 -4 -103t-4 -104q0 -51 4 -102t4 -102q0 -94 -133 -95q-166 0 -334.5 11.5t-357.5 11.5 q-117 0 -196.5 -11.5t-155.5 -11.5q-41 0 -64.5 18.5t-23.5 55.5q0 29 18.5 49.5t46.5 20.5q25 0 49.5 -5t49.5 -5q82 0 100 75q4 16 6 36t3 48.5t1 69.5v100v502v59v71q0 36 -2 69t-8 55q-18 76 -100 76q-25 0 -49.5 -5t-49.5 -5q-29 0 -47 20.5t-18 48.5q0 37 26.5 55.5 t61.5 18.5q76 0 155.5 -11.5t196.5 -11.5q188 0 357 11.5t335 11.5q53 0 81 -21.5t28 -76.5q0 -57 -8 -112.5t-8 -113.5q0 -53 8 -102t8 -100q0 -35 -21.5 -56.5t-56.5 -21.5q-47 0 -61.5 32.5t-14.5 118.5q0 59 -1 100.5t-5 71t-13 50t-26 38.5q-12 12 -28.5 20.5t-51 13.5 t-93 7t-152.5 2q-55 0 -93 -1t-64 -4t-43 -9t-30 -14q-10 -8 -17 -17.5t-11.5 -26t-6.5 -41t-2 -61.5v-166q0 -43 1 -61t18 -29q16 -12 43.5 -13t75.5 -1q98 0 137 19.5t39 72.5q0 33 -6.5 65.5t-6.5 65.5q0 35 17.5 60.5t56.5 25.5q41 0 59.5 -27.5t18.5 -66.5 q0 -41 -12 -118q-9 -58 -10 -133q0 -25 2 -52q-1 -21 -1 -41q0 -29 2 -54q3 -42 7 -77t8 -64.5t4 -56.5q0 -35 -21.5 -53.5t-54.5 -18.5q-43 0 -59.5 24t-16.5 64q0 35 6.5 68t6.5 68q0 53 -33 71.5t-131 18.5q-53 0 -82 -1t-47 -16q-10 -10 -15.5 -31.5t-5.5 -88.5v-152z M883 1757q47 0 82 -35t35 -84t-35 -83t-82 -34q-49 0 -84 34t-35 83t35 84t84 35zM506 1757q49 0 84 -35t35 -84t-35 -83t-84 -34q-47 0 -82 34t-35 83t34 84t83 35z" />
<glyph unicode="&#xcc;" horiz-adv-x="778" d="M309 942v59v71q0 36 -2 69t-8 55q-18 76 -100 76q-25 0 -49.5 -5t-49.5 -5q-29 0 -47 20.5t-18 48.5q0 37 26.5 55.5t61.5 18.5q70 0 133 -11.5t141 -11.5t144.5 11.5t130.5 11.5q35 0 61.5 -18.5t26.5 -55.5q0 -29 -18.5 -49t-47.5 -20q-25 0 -49 5t-49 5 q-82 0 -100 -76q-4 -23 -6.5 -55.5t-3.5 -68.5t-1 -71v-59v-502v-59v-71q0 -36 2 -68.5t9 -55.5q20 -76 100 -75q25 0 49.5 5t48.5 5q29 0 47.5 -20.5t18.5 -49.5q0 -37 -26.5 -55.5t-61.5 -18.5q-74 0 -135.5 11.5t-139.5 11.5q-39 0 -72.5 -3t-66.5 -8t-65.5 -8.5 t-69.5 -3.5q-35 0 -61.5 18.5t-26.5 55.5q0 29 18.5 49.5t46.5 20.5q25 0 49.5 -5t49.5 -5q82 0 100 75q6 23 8 55.5t2 68.5v71v59v502zM506 1597q12 -10 25.5 -22.5t13.5 -30.5q0 -10 -9.5 -16.5t-19.5 -6.5q-12 0 -23.5 4t-21.5 8l-283 105q-33 12 -55.5 31.5t-22.5 58.5 t26 68.5t67 29.5q29 0 47 -12t39 -31z" />
<glyph unicode="&#xcd;" horiz-adv-x="778" d="M309 942v59v71q0 36 -2 69t-8 55q-18 76 -100 76q-25 0 -49.5 -5t-49.5 -5q-29 0 -47 20.5t-18 48.5q0 37 26.5 55.5t61.5 18.5q70 0 133 -11.5t141 -11.5t144.5 11.5t130.5 11.5q35 0 61.5 -18.5t26.5 -55.5q0 -29 -18.5 -49t-47.5 -20q-25 0 -49 5t-49 5 q-82 0 -100 -76q-4 -23 -6.5 -55.5t-3.5 -68.5t-1 -71v-59v-502v-59v-71q0 -36 2 -68.5t9 -55.5q20 -76 100 -75q25 0 49.5 5t48.5 5q29 0 47.5 -20.5t18.5 -49.5q0 -37 -26.5 -55.5t-61.5 -18.5q-74 0 -135.5 11.5t-139.5 11.5q-39 0 -72.5 -3t-66.5 -8t-65.5 -8.5 t-69.5 -3.5q-35 0 -61.5 18.5t-26.5 55.5q0 29 18.5 49.5t46.5 20.5q25 0 49.5 -5t49.5 -5q82 0 100 75q6 23 8 55.5t2 68.5v71v59v502zM313 1533q-10 -4 -21.5 -8t-23.5 -4q-10 0 -18.5 6t-8.5 17q0 18 12.5 30.5t24.5 22.5l217 186q20 18 40 30.5t48 12.5q39 0 65.5 -29.5 t26.5 -68.5t-23.5 -58.5t-53.5 -31.5z" />
<glyph unicode="&#xce;" horiz-adv-x="778" d="M309 942v59v71q0 36 -2 69t-8 55q-18 76 -100 76q-25 0 -49.5 -5t-49.5 -5q-29 0 -47 20.5t-18 48.5q0 37 26.5 55.5t61.5 18.5q70 0 133 -11.5t141 -11.5t144.5 11.5t130.5 11.5q35 0 61.5 -18.5t26.5 -55.5q0 -29 -18.5 -49t-47.5 -20q-25 0 -49 5t-49 5 q-82 0 -100 -76q-4 -23 -6.5 -55.5t-3.5 -68.5t-1 -71v-59v-502v-59v-71q0 -36 2 -68.5t9 -55.5q20 -76 100 -75q25 0 49.5 5t48.5 5q29 0 47.5 -20.5t18.5 -49.5q0 -37 -26.5 -55.5t-61.5 -18.5q-74 0 -135.5 11.5t-139.5 11.5q-39 0 -72.5 -3t-66.5 -8t-65.5 -8.5 t-69.5 -3.5q-35 0 -61.5 18.5t-26.5 55.5q0 29 18.5 49.5t46.5 20.5q25 0 49.5 -5t49.5 -5q82 0 100 75q6 23 8 55.5t2 68.5v71v59v502zM354 1787q6 4 19.5 14.5t23.5 10.5q8 0 22.5 -10t18.5 -15l287 -200l21 -17q11 -8 11 -24q0 -25 -26 -25q-12 0 -34 5t-43 14l-43 16 q-22 8 -34 12l-94 33q-47 16 -92 39q-20 -10 -68 -30l-100 -40q-53 -20 -99.5 -35.5t-62.5 -15.5q-31 0 -31 27q0 12 16.5 23.5t24.5 17.5z" />
<glyph unicode="&#xcf;" horiz-adv-x="778" d="M309 942v59v71q0 36 -2 69t-8 55q-18 76 -100 76q-25 0 -49.5 -5t-49.5 -5q-29 0 -47 20.5t-18 48.5q0 37 26.5 55.5t61.5 18.5q70 0 133 -11.5t141 -11.5t144.5 11.5t130.5 11.5q35 0 61.5 -18.5t26.5 -55.5q0 -29 -18.5 -49t-47.5 -20q-25 0 -49 5t-49 5 q-82 0 -100 -76q-4 -23 -6.5 -55.5t-3.5 -68.5t-1 -71v-59v-502v-59v-71q0 -36 2 -68.5t9 -55.5q20 -76 100 -75q25 0 49.5 5t48.5 5q29 0 47.5 -20.5t18.5 -49.5q0 -37 -26.5 -55.5t-61.5 -18.5q-74 0 -135.5 11.5t-139.5 11.5q-39 0 -72.5 -3t-66.5 -8t-65.5 -8.5 t-69.5 -3.5q-35 0 -61.5 18.5t-26.5 55.5q0 29 18.5 49.5t46.5 20.5q25 0 49.5 -5t49.5 -5q82 0 100 75q6 23 8 55.5t2 68.5v71v59v502zM598 1757q47 0 82 -35t35 -84t-35 -83t-82 -34q-49 0 -84 34t-35 83t35 84t84 35zM221 1757q49 0 84 -35t35 -84t-35 -83t-84 -34 q-47 0 -82 34t-35 83t34 84t83 35z" />
<glyph unicode="&#xd0;" horiz-adv-x="1515" d="M872 807q29 0 47.5 -20.5t18.5 -55.5q0 -29 -18.5 -49t-47.5 -20h-387v-383q0 -41 2 -66t6.5 -39t10.5 -20.5t16 -12.5q27 -14 79 -20t157 -6q63 0 118.5 6t103.5 24.5t91 51t82 86.5q59 84 84 189.5t25 207.5q0 117 -28 231.5t-106 202.5q-39 45 -85 71.5t-97 42 t-105.5 20.5t-109.5 5q-61 0 -100 -2t-63.5 -6t-38 -9t-21.5 -13q-10 -10 -15.5 -33t-5.5 -94v-289h387zM100 662q-29 0 -47 20t-18 49q0 35 18.5 55.5t46.5 20.5h209v135q0 119 -1 172t-9 82q-18 76 -100 76q-25 0 -49.5 -5t-49.5 -5q-29 0 -47 20.5t-18 48.5 q0 29 23.5 51.5t64.5 22.5q33 0 61.5 -3t58 -8t64.5 -8.5t82 -3.5q53 0 99.5 3.5t90.5 8.5t90 8t99 3q145 0 273 -41t229 -152q45 -51 78.5 -112.5t56 -129t33 -138t10.5 -138.5q0 -137 -38 -272t-126 -244q-47 -55 -105.5 -94t-125 -62.5t-137 -34t-140.5 -10.5 q-55 0 -100 3.5t-88 8.5t-89 8t-102 3q-86 0 -143 -11.5t-123 -11.5q-41 0 -68.5 18.5t-27.5 55.5q0 29 18.5 49.5t46.5 20.5q25 0 49.5 -5t49.5 -5q82 0 100 75q6 23 8 55.5t2 68.5v71v59v222h-209z" />
<glyph unicode="&#xd1;" horiz-adv-x="1556" d="M309 942v59v71q0 36 -2 69t-8 55q-18 76 -100 76q-25 0 -49.5 -5t-49.5 -5q-29 0 -47 20.5t-18 48.5q0 37 29.5 55.5t76.5 18.5q43 0 86 -11.5t99 -11.5q55 0 100 11.5t92 11.5q27 0 44.5 -10.5t29.5 -27.5t22 -40l21 -47l502 -1145h4v807v59v71q0 36 -2 69t-9 55 q-18 76 -100 76q-25 0 -49.5 -5t-48.5 -5q-29 0 -47.5 20.5t-18.5 48.5q0 37 30 55.5t77 18.5q68 0 132 -11.5t142 -11.5t147.5 11.5t127.5 11.5q35 0 52 -21.5t17 -52.5q0 -29 -18.5 -49t-46.5 -20q-25 0 -49.5 5t-49.5 5q-80 0 -100 -76q-6 -23 -8 -55.5t-3 -68.5 q-1 -18 -1 -35.5t1 -35.5q1 -35 1 -59v-704q0 -41 -3 -91.5t-17.5 -94.5t-46 -73.5t-89.5 -29.5q-39 0 -67.5 15.5t-49 41t-37 57t-30.5 64.5l-488 1114h-4v-801v-59v-71q0 -36 2 -68.5t9 -55.5q20 -76 100 -75q25 0 49.5 5t48.5 5q29 0 47.5 -20.5t18.5 -49.5 q0 -37 -30 -55.5t-77 -18.5q-35 0 -65.5 3.5t-61 8.5t-63.5 8t-72 3q-72 0 -132 -11.5t-118 -11.5q-47 0 -76.5 18.5t-29.5 55.5q0 29 18.5 49.5t46.5 20.5q25 0 49.5 -5t49.5 -5q82 0 100 75q6 23 8 55.5t2 68.5v71v59v502zM850 1701l59 -21q31 -11 62 -11q27 0 45 10 t30.5 23.5t20.5 23.5t18 10q25 0 25 -28q0 -27 -9.5 -53.5t-21.5 -49.5q-29 -45 -69.5 -64.5t-94.5 -19.5q-37 0 -80 12.5t-86 27.5t-85 27.5t-78 12.5q-51 0 -82 -43l-12 -18q-5 -8 -17 -9q-27 0 -27 33q0 27 12.5 57.5t26.5 53.5q29 43 71 60.5t93 17.5q47 0 101.5 -18 t97.5 -34z" />
<glyph unicode="&#xd2;" horiz-adv-x="1392" d="M678 92q117 0 209 62.5t145 167.5q20 41 35.5 92t24 104t12.5 104.5t4 92.5q0 45 -4 95t-14.5 101.5t-28 100.5t-41.5 90q-53 90 -138 137t-190 51q-129 -2 -213 -58t-131 -144.5t-65.5 -196t-18.5 -209.5q0 -43 4 -94t14.5 -103.5t28 -102.5t41.5 -93 q53 -88 137.5 -142.5t188.5 -54.5zM678 -51q-162 0 -276.5 63.5t-186.5 168t-105.5 237.5t-33.5 272q0 147 34.5 281.5t108.5 237t190.5 164t282.5 61.5q137 0 253 -49.5t202 -159.5q37 -49 65.5 -111.5t47 -129t27.5 -133.5t9 -126t-7 -126t-22.5 -134.5t-39 -133 t-58.5 -118.5q-82 -129 -209.5 -196.5t-281.5 -67.5zM824 1597q12 -10 25.5 -22.5t13.5 -30.5q0 -10 -9.5 -16.5t-19.5 -6.5q-12 0 -23.5 4t-21.5 8l-283 105q-33 12 -55.5 31.5t-22.5 58.5t26 68.5t67 29.5q29 0 47 -12t39 -31z" />
<glyph unicode="&#xd3;" horiz-adv-x="1392" d="M678 92q117 0 209 62.5t145 167.5q20 41 35.5 92t24 104t12.5 104.5t4 92.5q0 45 -4 95t-14.5 101.5t-28 100.5t-41.5 90q-53 90 -138 137t-190 51q-129 -2 -213 -58t-131 -144.5t-65.5 -196t-18.5 -209.5q0 -43 4 -94t14.5 -103.5t28 -102.5t41.5 -93 q53 -88 137.5 -142.5t188.5 -54.5zM678 -51q-162 0 -276.5 63.5t-186.5 168t-105.5 237.5t-33.5 272q0 147 34.5 281.5t108.5 237t190.5 164t282.5 61.5q137 0 253 -49.5t202 -159.5q37 -49 65.5 -111.5t47 -129t27.5 -133.5t9 -126t-7 -126t-22.5 -134.5t-39 -133 t-58.5 -118.5q-82 -129 -209.5 -196.5t-281.5 -67.5zM621 1533q-10 -4 -21.5 -8t-23.5 -4q-10 0 -18.5 6t-8.5 17q0 18 12.5 30.5t24.5 22.5l217 186q20 18 40 30.5t48 12.5q39 0 65.5 -29.5t26.5 -68.5t-23.5 -58.5t-53.5 -31.5z" />
<glyph unicode="&#xd4;" horiz-adv-x="1392" d="M678 92q117 0 209 62.5t145 167.5q20 41 35.5 92t24 104t12.5 104.5t4 92.5q0 45 -4 95t-14.5 101.5t-28 100.5t-41.5 90q-53 90 -138 137t-190 51q-129 -2 -213 -58t-131 -144.5t-65.5 -196t-18.5 -209.5q0 -43 4 -94t14.5 -103.5t28 -102.5t41.5 -93 q53 -88 137.5 -142.5t188.5 -54.5zM678 -51q-162 0 -276.5 63.5t-186.5 168t-105.5 237.5t-33.5 272q0 147 34.5 281.5t108.5 237t190.5 164t282.5 61.5q137 0 253 -49.5t202 -159.5q37 -49 65.5 -111.5t47 -129t27.5 -133.5t9 -126t-7 -126t-22.5 -134.5t-39 -133 t-58.5 -118.5q-82 -129 -209.5 -196.5t-281.5 -67.5zM649 1767q6 4 19.5 14.5t23.5 10.5q8 0 22.5 -10t18.5 -15l287 -200l21 -17q11 -8 11 -24q0 -25 -26 -25q-12 0 -34 5t-43 14l-43 16q-22 8 -34 12l-94 33q-47 16 -92 39q-20 -10 -68 -30l-100 -40q-53 -20 -99.5 -35.5 t-62.5 -15.5q-31 0 -31 27q0 12 16.5 23.5t24.5 17.5z" />
<glyph unicode="&#xd5;" horiz-adv-x="1392" d="M678 92q117 0 209 62.5t145 167.5q20 41 35.5 92t24 104t12.5 104.5t4 92.5q0 45 -4 95t-14.5 101.5t-28 100.5t-41.5 90q-53 90 -138 137t-190 51q-129 -2 -213 -58t-131 -144.5t-65.5 -196t-18.5 -209.5q0 -43 4 -94t14.5 -103.5t28 -102.5t41.5 -93 q53 -88 137.5 -142.5t188.5 -54.5zM678 -51q-162 0 -276.5 63.5t-186.5 168t-105.5 237.5t-33.5 272q0 147 34.5 281.5t108.5 237t190.5 164t282.5 61.5q137 0 253 -49.5t202 -159.5q37 -49 65.5 -111.5t47 -129t27.5 -133.5t9 -126t-7 -126t-22.5 -134.5t-39 -133 t-58.5 -118.5q-82 -129 -209.5 -196.5t-281.5 -67.5zM768 1701l59 -21q31 -11 62 -11q27 0 45 10t30.5 23.5t20.5 23.5t18 10q25 0 25 -28q0 -27 -9.5 -53.5t-21.5 -49.5q-29 -45 -69.5 -64.5t-94.5 -19.5q-37 0 -80 12.5t-86 27.5t-85 27.5t-78 12.5q-51 0 -82 -43l-12 -18 q-5 -8 -17 -9q-27 0 -27 33q0 27 12.5 57.5t26.5 53.5q29 43 71 60.5t93 17.5q47 0 101.5 -18t97.5 -34z" />
<glyph unicode="&#xd6;" horiz-adv-x="1392" d="M678 92q117 0 209 62.5t145 167.5q20 41 35.5 92t24 104t12.5 104.5t4 92.5q0 45 -4 95t-14.5 101.5t-28 100.5t-41.5 90q-53 90 -138 137t-190 51q-129 -2 -213 -58t-131 -144.5t-65.5 -196t-18.5 -209.5q0 -43 4 -94t14.5 -103.5t28 -102.5t41.5 -93 q53 -88 137.5 -142.5t188.5 -54.5zM678 -51q-162 0 -276.5 63.5t-186.5 168t-105.5 237.5t-33.5 272q0 147 34.5 281.5t108.5 237t190.5 164t282.5 61.5q137 0 253 -49.5t202 -159.5q37 -49 65.5 -111.5t47 -129t27.5 -133.5t9 -126t-7 -126t-22.5 -134.5t-39 -133 t-58.5 -118.5q-82 -129 -209.5 -196.5t-281.5 -67.5zM883 1757q47 0 82 -35t35 -84t-35 -83t-82 -34q-49 0 -84 34t-35 83t35 84t84 35zM506 1757q49 0 84 -35t35 -84t-35 -83t-84 -34q-47 0 -82 34t-35 83t34 84t83 35z" />
<glyph unicode="&#xd7;" horiz-adv-x="1269" d="M215 37l-111 110l406 406l-406 405l111 111l406 -405l405 405l111 -111l-406 -405l406 -406l-111 -110l-405 405z" />
<glyph unicode="&#xd8;" d="M465 150q43 -29 95 -43.5t106 -14.5q129 0 214 51.5t135 134t70.5 186t20.5 208.5q0 53 -4 115.5t-15.5 124t-33 118.5t-54.5 105zM899 1239q-43 29 -99.5 40t-105.5 11q-129 0 -212 -58t-132 -148.5t-67.5 -200t-18.5 -211.5t18.5 -220t77.5 -214zM291 92 q-59 57 -100 124t-67 140.5t-37 149.5t-11 151q0 61 8 130t23.5 137.5t40 134t59.5 119.5q78 125 204 190.5t273 65.5q72 0 143.5 -15.5t137.5 -50.5l59 115l18 30q6 10 15.5 14.5t21.5 4.5h37q20 0 36.5 1t26 -2t9.5 -14.5t-12 -33.5l-99 -189q125 -131 171 -280.5 t46 -323.5q0 -57 -7 -121.5t-22.5 -129t-41 -127t-60.5 -115.5q-78 -119 -198.5 -183.5t-266.5 -64.5q-78 0 -153.5 14t-147.5 49l-55 -106l-18 -34q-6 -11 -15.5 -15t-25 -3t-43.5 1q-6 0 -16.5 -1t-22 -1t-19.5 4t-8 14q0 8 6 18.5t8 14.5z" />
<glyph unicode="&#xd9;" horiz-adv-x="1474" d="M240 940v59q0 35 -1 71t-3.5 70t-6.5 56q-6 41 -32.5 58.5t-67.5 17.5q-25 0 -49.5 -5t-48.5 -5q-29 0 -47.5 20.5t-18.5 48.5q0 33 22.5 53.5t55.5 20.5q74 0 135.5 -11.5t138.5 -11.5q78 0 144.5 11.5t130.5 11.5q41 0 69.5 -18.5t28.5 -55.5q0 -29 -18.5 -49 t-46.5 -20q-25 0 -49.5 5t-49.5 5q-41 0 -66.5 -17.5t-33.5 -58.5q-4 -23 -6 -56.5t-3 -69.5t-1 -71v-59v-469q0 -68 7 -145.5t50 -132.5q45 -57 122 -79t146 -22q72 0 143.5 20.5t121.5 73.5q25 27 38 62t20 72.5t8 76.5t1 74v469v59q0 35 -1 71t-3 70t-6 56 q-6 41 -32.5 58.5t-67.5 17.5q-25 0 -49.5 -5t-49.5 -5q-29 0 -47 20.5t-18 48.5q0 33 22.5 53.5t55.5 20.5q74 0 135 -11.5t139 -11.5t144.5 11.5t129.5 11.5q41 0 70 -18.5t29 -55.5q0 -29 -18.5 -49t-47.5 -20q-25 0 -49.5 5t-48.5 5q-41 0 -66.5 -17.5t-33.5 -58.5 q-4 -23 -6.5 -56.5t-3.5 -69.5t-1 -71v-59v-420q0 -55 -2 -110.5t-11 -108.5t-29.5 -103.5t-57.5 -95.5q-76 -90 -184.5 -121.5t-221.5 -31.5q-92 0 -192 23.5t-174 76.5q-47 33 -74 75t-41 89t-18 98t-4 105v524zM885 1597q12 -10 25.5 -22.5t13.5 -30.5q0 -10 -9.5 -16.5 t-19.5 -6.5q-12 0 -23.5 4t-21.5 8l-283 105q-33 12 -55.5 31.5t-22.5 58.5t26 68.5t67 29.5q29 0 47 -12t39 -31z" />
<glyph unicode="&#xda;" horiz-adv-x="1474" d="M240 940v59q0 35 -1 71t-3.5 70t-6.5 56q-6 41 -32.5 58.5t-67.5 17.5q-25 0 -49.5 -5t-48.5 -5q-29 0 -47.5 20.5t-18.5 48.5q0 33 22.5 53.5t55.5 20.5q74 0 135.5 -11.5t138.5 -11.5q78 0 144.5 11.5t130.5 11.5q41 0 69.5 -18.5t28.5 -55.5q0 -29 -18.5 -49 t-46.5 -20q-25 0 -49.5 5t-49.5 5q-41 0 -66.5 -17.5t-33.5 -58.5q-4 -23 -6 -56.5t-3 -69.5t-1 -71v-59v-469q0 -68 7 -145.5t50 -132.5q45 -57 122 -79t146 -22q72 0 143.5 20.5t121.5 73.5q25 27 38 62t20 72.5t8 76.5t1 74v469v59q0 35 -1 71t-3 70t-6 56 q-6 41 -32.5 58.5t-67.5 17.5q-25 0 -49.5 -5t-49.5 -5q-29 0 -47 20.5t-18 48.5q0 33 22.5 53.5t55.5 20.5q74 0 135 -11.5t139 -11.5t144.5 11.5t129.5 11.5q41 0 70 -18.5t29 -55.5q0 -29 -18.5 -49t-47.5 -20q-25 0 -49.5 5t-48.5 5q-41 0 -66.5 -17.5t-33.5 -58.5 q-4 -23 -6.5 -56.5t-3.5 -69.5t-1 -71v-59v-420q0 -55 -2 -110.5t-11 -108.5t-29.5 -103.5t-57.5 -95.5q-76 -90 -184.5 -121.5t-221.5 -31.5q-92 0 -192 23.5t-174 76.5q-47 33 -74 75t-41 89t-18 98t-4 105v524zM641 1533q-10 -4 -21.5 -8t-23.5 -4q-10 0 -18.5 6t-8.5 17 q0 18 12.5 30.5t24.5 22.5l217 186q20 18 40 30.5t48 12.5q39 0 65.5 -29.5t26.5 -68.5t-23.5 -58.5t-53.5 -31.5z" />
<glyph unicode="&#xdb;" horiz-adv-x="1474" d="M240 940v59q0 35 -1 71t-3.5 70t-6.5 56q-6 41 -32.5 58.5t-67.5 17.5q-25 0 -49.5 -5t-48.5 -5q-29 0 -47.5 20.5t-18.5 48.5q0 33 22.5 53.5t55.5 20.5q74 0 135.5 -11.5t138.5 -11.5q78 0 144.5 11.5t130.5 11.5q41 0 69.5 -18.5t28.5 -55.5q0 -29 -18.5 -49 t-46.5 -20q-25 0 -49.5 5t-49.5 5q-41 0 -66.5 -17.5t-33.5 -58.5q-4 -23 -6 -56.5t-3 -69.5t-1 -71v-59v-469q0 -68 7 -145.5t50 -132.5q45 -57 122 -79t146 -22q72 0 143.5 20.5t121.5 73.5q25 27 38 62t20 72.5t8 76.5t1 74v469v59q0 35 -1 71t-3 70t-6 56 q-6 41 -32.5 58.5t-67.5 17.5q-25 0 -49.5 -5t-49.5 -5q-29 0 -47 20.5t-18 48.5q0 33 22.5 53.5t55.5 20.5q74 0 135 -11.5t139 -11.5t144.5 11.5t129.5 11.5q41 0 70 -18.5t29 -55.5q0 -29 -18.5 -49t-47.5 -20q-25 0 -49.5 5t-48.5 5q-41 0 -66.5 -17.5t-33.5 -58.5 q-4 -23 -6.5 -56.5t-3.5 -69.5t-1 -71v-59v-420q0 -55 -2 -110.5t-11 -108.5t-29.5 -103.5t-57.5 -95.5q-76 -90 -184.5 -121.5t-221.5 -31.5q-92 0 -192 23.5t-174 76.5q-47 33 -74 75t-41 89t-18 98t-4 105v524zM690 1787q6 4 19.5 14.5t23.5 10.5q8 0 22.5 -10t18.5 -15 l287 -200l21 -17q11 -8 11 -24q0 -25 -26 -25q-12 0 -34 5t-43 14l-43 16q-22 8 -34 12l-94 33q-47 16 -92 39q-20 -10 -68 -30l-100 -40q-53 -20 -99.5 -35.5t-62.5 -15.5q-31 0 -31 27q0 12 16.5 23.5t24.5 17.5z" />
<glyph unicode="&#xdc;" horiz-adv-x="1474" d="M240 940v59q0 35 -1 71t-3.5 70t-6.5 56q-6 41 -32.5 58.5t-67.5 17.5q-25 0 -49.5 -5t-48.5 -5q-29 0 -47.5 20.5t-18.5 48.5q0 33 22.5 53.5t55.5 20.5q74 0 135.5 -11.5t138.5 -11.5q78 0 144.5 11.5t130.5 11.5q41 0 69.5 -18.5t28.5 -55.5q0 -29 -18.5 -49 t-46.5 -20q-25 0 -49.5 5t-49.5 5q-41 0 -66.5 -17.5t-33.5 -58.5q-4 -23 -6 -56.5t-3 -69.5t-1 -71v-59v-469q0 -68 7 -145.5t50 -132.5q45 -57 122 -79t146 -22q72 0 143.5 20.5t121.5 73.5q25 27 38 62t20 72.5t8 76.5t1 74v469v59q0 35 -1 71t-3 70t-6 56 q-6 41 -32.5 58.5t-67.5 17.5q-25 0 -49.5 -5t-49.5 -5q-29 0 -47 20.5t-18 48.5q0 33 22.5 53.5t55.5 20.5q74 0 135 -11.5t139 -11.5t144.5 11.5t129.5 11.5q41 0 70 -18.5t29 -55.5q0 -29 -18.5 -49t-47.5 -20q-25 0 -49.5 5t-48.5 5q-41 0 -66.5 -17.5t-33.5 -58.5 q-4 -23 -6.5 -56.5t-3.5 -69.5t-1 -71v-59v-420q0 -55 -2 -110.5t-11 -108.5t-29.5 -103.5t-57.5 -95.5q-76 -90 -184.5 -121.5t-221.5 -31.5q-92 0 -192 23.5t-174 76.5q-47 33 -74 75t-41 89t-18 98t-4 105v524zM934 1757q47 0 82 -35t35 -84t-35 -83t-82 -34 q-49 0 -84 34t-35 83t35 84t84 35zM557 1757q49 0 84 -35t35 -84t-35 -83t-84 -34q-47 0 -82 34t-35 83t34 84t83 35z" />
<glyph unicode="&#xdd;" horiz-adv-x="1556" d="M797 672l315 528l17 29q7 12 8 26q0 14 -13.5 16.5t-36.5 2.5q-39 0 -77.5 -6t-77.5 -6q-29 0 -47.5 20.5t-18.5 48.5q0 31 26 52.5t66 21.5q74 0 135.5 -11.5t139.5 -11.5t146.5 11.5t127.5 11.5q41 0 64.5 -18.5t23.5 -55.5q0 -29 -18 -49t-47 -20t-60.5 7t-54.5 7 q-43 0 -61.5 -18.5t-40.5 -51.5l-436 -686v-90v-57q0 -33 1 -67t3 -65.5t6 -54.5q8 -41 33.5 -58t66.5 -17q25 0 49.5 5t48.5 5q35 0 62 -18.5t27 -55.5q0 -29 -18.5 -49.5t-47.5 -20.5q-37 0 -70.5 3.5t-70.5 8.5t-80 8t-99 3q-49 0 -84.5 -3t-67.5 -8t-62.5 -8.5 t-69.5 -3.5q-55 0 -78 20.5t-23 49.5q0 37 27 55.5t62 18.5q27 0 52 -5t52 -5q35 0 60.5 17t31.5 50q4 20 7 51t4 63t1 63v55v98l-424 672q-31 49 -55 69.5t-59 20.5q-27 0 -54.5 -4t-62.5 -4q-29 0 -47 20.5t-18 48.5q0 31 22.5 52.5t63.5 21.5q66 0 131 -11.5t143 -11.5 t142.5 11.5t131.5 11.5q41 0 64.5 -19.5t23.5 -54.5q0 -29 -18 -49t-47 -20q-45 0 -78 6t-57 6q-25 0 -34 -5t-9 -16q0 -10 7 -20t19 -33zM682 1533q-10 -4 -21.5 -8t-23.5 -4q-10 0 -18.5 6t-8.5 17q0 18 12.5 30.5t24.5 22.5l217 186q20 18 40 30.5t48 12.5 q39 0 65.5 -29.5t26.5 -68.5t-23.5 -58.5t-53.5 -31.5z" />
<glyph unicode="&#xde;" d="M539 301q-29 0 -41.5 -8t-12.5 -37v-29q0 -117 111 -116q25 0 49.5 5t48.5 5q29 0 47.5 -20.5t18.5 -49.5q0 -37 -27.5 -55.5t-62.5 -18.5q-70 0 -133.5 11.5t-141.5 11.5t-144.5 -11.5t-129.5 -11.5q-33 0 -59.5 18.5t-26.5 55.5q0 29 18.5 49.5t46.5 20.5q25 0 49.5 -5 t49.5 -5q82 0 100 75q6 23 8 55.5t2 68.5v71v59v502v59v71q0 36 -2 69t-8 55q-18 76 -100 76q-25 0 -49.5 -5t-49.5 -5q-29 0 -47 20.5t-18 48.5q0 37 28.5 55.5t69.5 18.5q63 0 128 -11.5t134 -11.5q78 0 142.5 11.5t132.5 11.5q35 0 62.5 -18.5t27.5 -55.5 q0 -29 -18.5 -49t-47.5 -20q-25 0 -49 5t-49 5q-111 0 -111 -117q0 -29 12.5 -37t41.5 -8h116q178 0 288 -12.5t183 -55.5q94 -55 137.5 -142t43.5 -191q0 -113 -53.5 -206t-155.5 -143q-49 -25 -103.5 -37t-112 -17t-115.5 -5h-112h-116zM485 487q0 -27 13.5 -35t36.5 -10 h196q74 -2 144.5 5.5t124 36t86 84t32.5 147.5q0 76 -35.5 141.5t-109.5 91.5q-27 8 -63 13.5t-70.5 7.5t-64.5 2h-44h-196q-23 -2 -36.5 -10.5t-13.5 -34.5v-439z" />
<glyph unicode="&#xdf;" horiz-adv-x="1310" d="M649 313q0 -98 56.5 -150t154.5 -52q47 0 87 16t70 44t47 65.5t17 78.5q0 53 -19.5 89t-60.5 69l-178 125l-80 51q-41 25 -76.5 60.5t-35.5 89.5q0 35 20.5 64.5t50 56t65.5 51t65.5 53.5t50 60.5t20.5 70.5q0 37 -20.5 62.5t-50 42t-64.5 23.5t-66 7q-90 0 -155.5 -44 t-100.5 -124q-31 -76 -37 -164t-6 -167l11 -670q0 -59 -19.5 -101.5t-77.5 -42.5q-37 0 -62.5 11.5t-59.5 11.5q-35 0 -60.5 -11.5t-62.5 -11.5q-35 0 -61.5 18.5t-26.5 55.5q0 29 18 49.5t47 20.5q25 0 49.5 -5t48.5 -5q82 0 101 75q6 20 8 54t2 73v80v78q0 131 -2 212 t-8 126t-18.5 59.5t-32.5 14.5q-16 0 -29.5 -3t-30.5 -3q-33 0 -56.5 17t-23.5 52q0 29 17.5 48.5t48.5 19.5q27 0 50.5 -7.5t49.5 -7.5q18 0 29.5 10.5t19 25t10.5 30.5t7 31q14 63 50 129.5t85 111.5q61 55 137 76t154 21q63 0 126.5 -19.5t115 -56.5t84 -90.5 t32.5 -122.5q0 -86 -44 -140.5t-109 -101.5l-23 -16q-14 -10 -29.5 -23.5t-27 -28t-11.5 -26.5q0 -25 32 -48.5t78 -50.5l101 -62q55 -34 101.5 -80t78 -105.5t31.5 -138.5q0 -74 -28.5 -138.5t-77.5 -113.5t-116.5 -77t-147.5 -28q-66 0 -121 20.5t-107 59.5 q0 -37 -13 -62.5t-58 -25.5q-41 0 -54.5 32t-9.5 66q0 43 5 86t5 84q0 39 -5 77t-5 77q0 35 18.5 60.5t55.5 25.5q41 0 53 -26.5t12 -61.5z" />
<glyph unicode="&#xe0;" horiz-adv-x="1228" d="M240 260q0 -47 18 -78.5t48 -53.5t68 -31t79 -9q72 0 141.5 24.5t116.5 84.5q35 47 43 96t8 102q0 33 1 66t3 65q-29 -29 -63.5 -44t-71.5 -23t-76 -13l-76 -8q-41 -4 -83 -12t-76.5 -27.5t-57 -52.5t-22.5 -86zM926 307q0 -25 -2 -62q-1 -11 -1 -22q0 -27 4 -52 q5 -36 22.5 -61.5t54.5 -25.5q33 0 48 21.5t21 51t5 62.5t-1 55v43q0 23 5 40.5t18.5 28.5t42.5 11q43 0 57 -24.5t14 -59.5q0 -117 -5 -178t-38 -104q-31 -43 -80 -58.5t-100 -15.5q-76 0 -134 35t-75 112q-53 -86 -143 -120.5t-188 -34.5q-63 0 -127 12t-117 47 q-63 41 -100 103.5t-37 140.5q0 86 33.5 152.5t105.5 107.5q68 41 133.5 52t140.5 22l96.5 9t92.5 19.5t68.5 45t27.5 88.5q0 51 -19.5 86.5t-51 57t-73.5 31t-87 9.5q-41 0 -82 -12.5t-76 -32.5q-12 -8 -29.5 -22.5t-17.5 -30.5q0 -4 7 -7.5t16.5 -11.5t17.5 -23.5t8 -41.5 q0 -47 -34 -72t-77 -25q-53 0 -90 38t-37 93q0 66 37 120t90 91q55 39 129 57.5t142 18.5q72 0 146.5 -18.5t133.5 -63.5q76 -59 95 -139q18 -72 18 -155v-17zM762 1235q12 -10 25.5 -22.5t13.5 -30.5q0 -10 -9.5 -16.5t-19.5 -6.5q-12 0 -23.5 4t-21.5 8l-283 105 q-33 12 -55.5 31.5t-22.5 58.5t26 68.5t67 29.5q29 0 47 -12t39 -31z" />
<glyph unicode="&#xe1;" horiz-adv-x="1228" d="M240 260q0 -47 18 -78.5t48 -53.5t68 -31t79 -9q72 0 141.5 24.5t116.5 84.5q35 47 43 96t8 102q0 33 1 66t3 65q-29 -29 -63.5 -44t-71.5 -23t-76 -13l-76 -8q-41 -4 -83 -12t-76.5 -27.5t-57 -52.5t-22.5 -86zM926 307q0 -25 -2 -62q-1 -11 -1 -22q0 -27 4 -52 q5 -36 22.5 -61.5t54.5 -25.5q33 0 48 21.5t21 51t5 62.5t-1 55v43q0 23 5 40.5t18.5 28.5t42.5 11q43 0 57 -24.5t14 -59.5q0 -117 -5 -178t-38 -104q-31 -43 -80 -58.5t-100 -15.5q-76 0 -134 35t-75 112q-53 -86 -143 -120.5t-188 -34.5q-63 0 -127 12t-117 47 q-63 41 -100 103.5t-37 140.5q0 86 33.5 152.5t105.5 107.5q68 41 133.5 52t140.5 22l96.5 9t92.5 19.5t68.5 45t27.5 88.5q0 51 -19.5 86.5t-51 57t-73.5 31t-87 9.5q-41 0 -82 -12.5t-76 -32.5q-12 -8 -29.5 -22.5t-17.5 -30.5q0 -4 7 -7.5t16.5 -11.5t17.5 -23.5t8 -41.5 q0 -47 -34 -72t-77 -25q-53 0 -90 38t-37 93q0 66 37 120t90 91q55 39 129 57.5t142 18.5q72 0 146.5 -18.5t133.5 -63.5q76 -59 95 -139q18 -72 18 -155v-17zM518 1171q-10 -4 -21.5 -8t-23.5 -4q-10 0 -18.5 6t-8.5 17q0 18 12.5 30.5t24.5 22.5l217 186q20 18 40 30.5 t48 12.5q39 0 65.5 -29.5t26.5 -68.5t-23.5 -58.5t-53.5 -31.5z" />
<glyph unicode="&#xe2;" horiz-adv-x="1228" d="M240 260q0 -47 18 -78.5t48 -53.5t68 -31t79 -9q72 0 141.5 24.5t116.5 84.5q35 47 43 96t8 102q0 33 1 66t3 65q-29 -29 -63.5 -44t-71.5 -23t-76 -13l-76 -8q-41 -4 -83 -12t-76.5 -27.5t-57 -52.5t-22.5 -86zM926 307q0 -25 -2 -62q-1 -11 -1 -22q0 -27 4 -52 q5 -36 22.5 -61.5t54.5 -25.5q33 0 48 21.5t21 51t5 62.5t-1 55v43q0 23 5 40.5t18.5 28.5t42.5 11q43 0 57 -24.5t14 -59.5q0 -117 -5 -178t-38 -104q-31 -43 -80 -58.5t-100 -15.5q-76 0 -134 35t-75 112q-53 -86 -143 -120.5t-188 -34.5q-63 0 -127 12t-117 47 q-63 41 -100 103.5t-37 140.5q0 86 33.5 152.5t105.5 107.5q68 41 133.5 52t140.5 22l96.5 9t92.5 19.5t68.5 45t27.5 88.5q0 51 -19.5 86.5t-51 57t-73.5 31t-87 9.5q-41 0 -82 -12.5t-76 -32.5q-12 -8 -29.5 -22.5t-17.5 -30.5q0 -4 7 -7.5t16.5 -11.5t17.5 -23.5t8 -41.5 q0 -47 -34 -72t-77 -25q-53 0 -90 38t-37 93q0 66 37 120t90 91q55 39 129 57.5t142 18.5q72 0 146.5 -18.5t133.5 -63.5q76 -59 95 -139q18 -72 18 -155v-17zM547 1425q6 4 19.5 14.5t23.5 10.5q8 0 22.5 -10t18.5 -15l287 -200l21 -17q11 -8 11 -24q0 -25 -26 -25 q-12 0 -34 5t-43 14l-43 16q-22 8 -34 12l-94 33q-47 16 -92 39q-20 -10 -68 -30l-100 -40q-53 -20 -99.5 -35.5t-62.5 -15.5q-31 0 -31 27q0 12 16.5 23.5t24.5 17.5z" />
<glyph unicode="&#xe3;" horiz-adv-x="1228" d="M240 260q0 -47 18 -78.5t48 -53.5t68 -31t79 -9q72 0 141.5 24.5t116.5 84.5q35 47 43 96t8 102q0 33 1 66t3 65q-29 -29 -63.5 -44t-71.5 -23t-76 -13l-76 -8q-41 -4 -83 -12t-76.5 -27.5t-57 -52.5t-22.5 -86zM926 307q0 -25 -2 -62q-1 -11 -1 -22q0 -27 4 -52 q5 -36 22.5 -61.5t54.5 -25.5q33 0 48 21.5t21 51t5 62.5t-1 55v43q0 23 5 40.5t18.5 28.5t42.5 11q43 0 57 -24.5t14 -59.5q0 -117 -5 -178t-38 -104q-31 -43 -80 -58.5t-100 -15.5q-76 0 -134 35t-75 112q-53 -86 -143 -120.5t-188 -34.5q-63 0 -127 12t-117 47 q-63 41 -100 103.5t-37 140.5q0 86 33.5 152.5t105.5 107.5q68 41 133.5 52t140.5 22l96.5 9t92.5 19.5t68.5 45t27.5 88.5q0 51 -19.5 86.5t-51 57t-73.5 31t-87 9.5q-41 0 -82 -12.5t-76 -32.5q-12 -8 -29.5 -22.5t-17.5 -30.5q0 -4 7 -7.5t16.5 -11.5t17.5 -23.5t8 -41.5 q0 -47 -34 -72t-77 -25q-53 0 -90 38t-37 93q0 66 37 120t90 91q55 39 129 57.5t142 18.5q72 0 146.5 -18.5t133.5 -63.5q76 -59 95 -139q18 -72 18 -155v-17zM666 1339l59 -21q31 -11 62 -11q27 0 45 10t30.5 23.5t20.5 23.5t18 10q25 0 25 -28q0 -27 -9.5 -53.5 t-21.5 -49.5q-29 -45 -69.5 -64.5t-94.5 -19.5q-37 0 -80 12.5t-86 27.5t-85 27.5t-78 12.5q-51 0 -82 -43l-12 -18q-5 -8 -17 -9q-27 0 -27 33q0 27 12.5 57.5t26.5 53.5q29 43 71 60.5t93 17.5q47 0 101.5 -18t97.5 -34z" />
<glyph unicode="&#xe4;" horiz-adv-x="1228" d="M240 260q0 -47 18 -78.5t48 -53.5t68 -31t79 -9q72 0 141.5 24.5t116.5 84.5q35 47 43 96t8 102q0 33 1 66t3 65q-29 -29 -63.5 -44t-71.5 -23t-76 -13l-76 -8q-41 -4 -83 -12t-76.5 -27.5t-57 -52.5t-22.5 -86zM926 307q0 -25 -2 -62q-1 -11 -1 -22q0 -27 4 -52 q5 -36 22.5 -61.5t54.5 -25.5q33 0 48 21.5t21 51t5 62.5t-1 55v43q0 23 5 40.5t18.5 28.5t42.5 11q43 0 57 -24.5t14 -59.5q0 -117 -5 -178t-38 -104q-31 -43 -80 -58.5t-100 -15.5q-76 0 -134 35t-75 112q-53 -86 -143 -120.5t-188 -34.5q-63 0 -127 12t-117 47 q-63 41 -100 103.5t-37 140.5q0 86 33.5 152.5t105.5 107.5q68 41 133.5 52t140.5 22l96.5 9t92.5 19.5t68.5 45t27.5 88.5q0 51 -19.5 86.5t-51 57t-73.5 31t-87 9.5q-41 0 -82 -12.5t-76 -32.5q-12 -8 -29.5 -22.5t-17.5 -30.5q0 -4 7 -7.5t16.5 -11.5t17.5 -23.5t8 -41.5 q0 -47 -34 -72t-77 -25q-53 0 -90 38t-37 93q0 66 37 120t90 91q55 39 129 57.5t142 18.5q72 0 146.5 -18.5t133.5 -63.5q76 -59 95 -139q18 -72 18 -155v-17zM760 1395q47 0 82 -35t35 -84t-35 -83t-82 -34q-49 0 -84 34t-35 83t35 84t84 35zM383 1395q49 0 84 -35t35 -84 t-35 -83t-84 -34q-47 0 -82 34t-35 83t34 84t83 35z" />
<glyph unicode="&#xe5;" horiz-adv-x="1228" d="M240 260q0 -47 18 -78.5t48 -53.5t68 -31t79 -9q72 0 141.5 24.5t116.5 84.5q35 47 43 96t8 102q0 33 1 66t3 65q-29 -29 -63.5 -44t-71.5 -23t-76 -13l-76 -8q-41 -4 -83 -12t-76.5 -27.5t-57 -52.5t-22.5 -86zM926 307q0 -25 -2 -62q-1 -11 -1 -22q0 -27 4 -52 q5 -36 22.5 -61.5t54.5 -25.5q33 0 48 21.5t21 51t5 62.5t-1 55v43q0 23 5 40.5t18.5 28.5t42.5 11q43 0 57 -24.5t14 -59.5q0 -117 -5 -178t-38 -104q-31 -43 -80 -58.5t-100 -15.5q-76 0 -134 35t-75 112q-53 -86 -143 -120.5t-188 -34.5q-63 0 -127 12t-117 47 q-63 41 -100 103.5t-37 140.5q0 86 33.5 152.5t105.5 107.5q68 41 133.5 52t140.5 22l96.5 9t92.5 19.5t68.5 45t27.5 88.5q0 51 -19.5 86.5t-51 57t-73.5 31t-87 9.5q-41 0 -82 -12.5t-76 -32.5q-12 -8 -29.5 -22.5t-17.5 -30.5q0 -4 7 -7.5t16.5 -11.5t17.5 -23.5t8 -41.5 q0 -47 -34 -72t-77 -25q-53 0 -90 38t-37 93q0 66 37 120t90 91q55 39 129 57.5t142 18.5q72 0 146.5 -18.5t133.5 -63.5q76 -59 95 -139q18 -72 18 -155v-17zM571 1391q-35 0 -60.5 -24.5t-25.5 -59.5q0 -37 25.5 -61.5t60.5 -24.5t60.5 24.5t25.5 61.5q0 35 -25.5 59.5 t-60.5 24.5zM571 1471q68 0 116 -48t48 -116q0 -70 -48 -118t-116 -48t-116 48t-48 118q0 68 48 116t116 48z" />
<glyph unicode="&#xe6;" horiz-adv-x="1802" d="M592 487q-63 0 -118.5 -2t-115.5 -28q-55 -25 -86.5 -72t-31.5 -106q0 -49 21.5 -85t55 -59.5t76.5 -35t86 -11.5q68 0 140.5 27.5t113.5 87.5q37 53 44 119.5t7 128.5v36h-192zM1548 627q-2 66 -22.5 121t-58 96t-91 64.5t-121.5 23.5q-63 0 -115.5 -25.5t-91 -67.5 t-62 -97.5t-28.5 -114.5h590zM784 627l4 45q0 117 -65.5 188.5t-187.5 71.5q-43 0 -85 -9.5t-79 -31.5q-10 -4 -24.5 -17.5t-14.5 -25.5q0 -6 17.5 -20.5t17.5 -59.5q0 -51 -37 -77.5t-84 -26.5q-49 0 -83 34.5t-34 81.5q0 66 38 121t91 90q59 41 132 60.5t145 19.5 q55 0 111 -10t105.5 -35t87.5 -63.5t58 -96.5q59 106 157.5 155.5t215.5 49.5q104 0 187 -38t141.5 -102.5t89 -153.5t30.5 -189q0 -16 -2 -38t-8 -38q-8 -23 -28.5 -24t-37.5 -1h-700q0 -74 17.5 -144.5t54.5 -127.5t96 -92t143 -35q106 0 178 52.5t107 146.5 q10 31 24.5 53t53.5 22q35 0 57.5 -21.5t22.5 -61.5q0 -27 -13.5 -59t-33 -63.5t-44 -58t-44.5 -45.5q-68 -53 -152 -78.5t-170 -25.5q-115 0 -214 52t-157 155q-57 -111 -162.5 -159t-224.5 -48q-78 0 -151.5 17.5t-132 56t-93 101t-34.5 150.5q0 102 56 181.5t142 117.5 q86 39 179.5 46.5t185.5 7.5h151z" />
<glyph unicode="&#xe7;" horiz-adv-x="1024" d="M248 510q0 -74 15.5 -149.5t52 -136t97 -98.5t150.5 -38q96 0 164 53.5t92 145.5q6 20 11.5 42.5t14.5 41t25.5 31t42.5 12.5q33 0 56.5 -23.5t23.5 -56.5q0 -31 -10 -66t-26.5 -68.5t-36 -65.5t-39.5 -52q-61 -66 -143.5 -98.5t-172.5 -32.5l-16 -41q14 0 26.5 2t24.5 2 q31 0 60.5 -10t53 -28.5t39 -45.5t15.5 -59q0 -43 -20.5 -74t-52 -50.5t-71.5 -28.5t-77 -9q-23 0 -56.5 6t-66.5 20.5t-55.5 36t-22.5 49.5q0 16 13.5 31t29.5 15t24.5 -6.5t18.5 -16.5q25 -27 50.5 -39t60.5 -12q16 0 34.5 4t34 12t25.5 21.5t10 33.5q0 37 -26.5 53.5 t-61.5 16.5q-20 0 -32.5 -3t-32.5 -11q-10 -4 -22.5 -8.5t-27.5 -4.5q-23 0 -22 21q0 10 7 28.5t11 26.5l31 74q-96 14 -170 62.5t-123 121t-74.5 161.5t-25.5 187q0 119 30.5 224.5t93 185.5t157 126t223.5 46q63 0 128.5 -18.5t118.5 -55.5q59 -41 98.5 -107.5 t39.5 -137.5q0 -37 -9.5 -70t-28 -59.5t-48 -42t-68.5 -15.5q-47 0 -84 31t-37 82q0 45 33 68.5t74 25.5q-2 39 -24.5 69.5t-55.5 50t-72 30t-74 10.5q-86 0 -148.5 -38t-101 -98.5t-57 -135t-18.5 -150.5z" />
<glyph unicode="&#xe8;" horiz-adv-x="1105" d="M870 635q-4 63 -23.5 117.5t-56 94.5t-89 62.5t-119.5 22.5q-66 0 -121 -22.5t-97 -61.5t-67 -94.5t-31 -118.5h604zM248 487q-1 -14 -1 -26q0 -64 16 -124q19 -73 61.5 -128t106 -88t147.5 -33q104 0 178.5 51t103.5 152q10 33 23.5 61.5t54.5 28.5q35 0 58.5 -21.5 t23.5 -56.5q0 -63 -38 -128.5t-83 -106.5q-66 -61 -156 -90t-178 -29q-121 0 -212 42t-152.5 115.5t-92 172t-30.5 213.5q0 104 27.5 209.5t93.5 189.5q70 88 168 134t208 46q104 0 189.5 -36t147 -98.5t95 -149.5t33.5 -189q0 -39 -2 -60.5t-11 -32.5t-28.5 -14.5 t-56.5 -3.5h-694zM701 1235q12 -10 25.5 -22.5t13.5 -30.5q0 -10 -9.5 -16.5t-19.5 -6.5q-12 0 -23.5 4t-21.5 8l-283 105q-33 12 -55.5 31.5t-22.5 58.5t26 68.5t67 29.5q29 0 47 -12t39 -31z" />
<glyph unicode="&#xe9;" horiz-adv-x="1105" d="M870 635q-4 63 -23.5 117.5t-56 94.5t-89 62.5t-119.5 22.5q-66 0 -121 -22.5t-97 -61.5t-67 -94.5t-31 -118.5h604zM248 487q-1 -14 -1 -26q0 -64 16 -124q19 -73 61.5 -128t106 -88t147.5 -33q104 0 178.5 51t103.5 152q10 33 23.5 61.5t54.5 28.5q35 0 58.5 -21.5 t23.5 -56.5q0 -63 -38 -128.5t-83 -106.5q-66 -61 -156 -90t-178 -29q-121 0 -212 42t-152.5 115.5t-92 172t-30.5 213.5q0 104 27.5 209.5t93.5 189.5q70 88 168 134t208 46q104 0 189.5 -36t147 -98.5t95 -149.5t33.5 -189q0 -39 -2 -60.5t-11 -32.5t-28.5 -14.5 t-56.5 -3.5h-694zM457 1171q-10 -4 -21.5 -8t-23.5 -4q-10 0 -18.5 6t-8.5 17q0 18 12.5 30.5t24.5 22.5l217 186q20 18 40 30.5t48 12.5q39 0 65.5 -29.5t26.5 -68.5t-23.5 -58.5t-53.5 -31.5z" />
<glyph unicode="&#xea;" horiz-adv-x="1105" d="M870 635q-4 63 -23.5 117.5t-56 94.5t-89 62.5t-119.5 22.5q-66 0 -121 -22.5t-97 -61.5t-67 -94.5t-31 -118.5h604zM248 487q-1 -14 -1 -26q0 -64 16 -124q19 -73 61.5 -128t106 -88t147.5 -33q104 0 178.5 51t103.5 152q10 33 23.5 61.5t54.5 28.5q35 0 58.5 -21.5 t23.5 -56.5q0 -63 -38 -128.5t-83 -106.5q-66 -61 -156 -90t-178 -29q-121 0 -212 42t-152.5 115.5t-92 172t-30.5 213.5q0 104 27.5 209.5t93.5 189.5q70 88 168 134t208 46q104 0 189.5 -36t147 -98.5t95 -149.5t33.5 -189q0 -39 -2 -60.5t-11 -32.5t-28.5 -14.5 t-56.5 -3.5h-694zM547 1425q6 4 19.5 14.5t23.5 10.5q8 0 22.5 -10t18.5 -15l287 -200l21 -17q11 -8 11 -24q0 -25 -26 -25q-12 0 -34 5t-43 14l-43 16q-22 8 -34 12l-94 33q-47 16 -92 39q-20 -10 -68 -30l-100 -40q-53 -20 -99.5 -35.5t-62.5 -15.5q-31 0 -31 27 q0 12 16.5 23.5t24.5 17.5z" />
<glyph unicode="&#xeb;" horiz-adv-x="1105" d="M870 635q-4 63 -23.5 117.5t-56 94.5t-89 62.5t-119.5 22.5q-66 0 -121 -22.5t-97 -61.5t-67 -94.5t-31 -118.5h604zM248 487q-1 -14 -1 -26q0 -64 16 -124q19 -73 61.5 -128t106 -88t147.5 -33q104 0 178.5 51t103.5 152q10 33 23.5 61.5t54.5 28.5q35 0 58.5 -21.5 t23.5 -56.5q0 -63 -38 -128.5t-83 -106.5q-66 -61 -156 -90t-178 -29q-121 0 -212 42t-152.5 115.5t-92 172t-30.5 213.5q0 104 27.5 209.5t93.5 189.5q70 88 168 134t208 46q104 0 189.5 -36t147 -98.5t95 -149.5t33.5 -189q0 -39 -2 -60.5t-11 -32.5t-28.5 -14.5 t-56.5 -3.5h-694zM770 1395q47 0 82 -35t35 -84t-35 -83t-82 -34q-49 0 -84 34t-35 83t35 84t84 35zM393 1395q49 0 84 -35t35 -84t-35 -83t-84 -34q-47 0 -82 34t-35 83t34 84t83 35z" />
<glyph unicode="&#xec;" horiz-adv-x="655" d="M270 739q0 53 -3 87t-10 52.5t-18.5 25.5t-27.5 7q-27 0 -49.5 -6t-44.5 -6q-31 0 -50.5 19.5t-19.5 48.5q0 35 21.5 55t50.5 20q41 0 69.5 -11t65.5 -11q39 0 63.5 11t53.5 11q35 0 46 -28.5t11 -59.5v-761q0 -37 12.5 -60.5t40.5 -23.5q16 0 38 7t44 5q31 0 50.5 -19.5 t19.5 -48.5q0 -35 -27.5 -55.5t-60.5 -20.5q-53 0 -99.5 11.5t-111.5 11.5q-66 0 -115 -11.5t-102 -11.5q-27 0 -48.5 24t-21.5 52q0 29 19.5 48.5t50.5 19.5q23 0 45 -6t49 -6q35 0 47 37.5t12 134.5v458zM437 1235q12 -10 25.5 -22.5t13.5 -30.5q0 -10 -9.5 -16.5 t-19.5 -6.5q-12 0 -23.5 4t-21.5 8l-283 105q-33 12 -55.5 31.5t-22.5 58.5t26 68.5t67 29.5q29 0 47 -12t39 -31z" />
<glyph unicode="&#xed;" horiz-adv-x="655" d="M270 739q0 53 -3 87t-10 52.5t-18.5 25.5t-27.5 7q-27 0 -49.5 -6t-44.5 -6q-31 0 -50.5 19.5t-19.5 48.5q0 35 21.5 55t50.5 20q41 0 69.5 -11t65.5 -11q39 0 63.5 11t53.5 11q35 0 46 -28.5t11 -59.5v-761q0 -37 12.5 -60.5t40.5 -23.5q16 0 38 7t44 5q31 0 50.5 -19.5 t19.5 -48.5q0 -35 -27.5 -55.5t-60.5 -20.5q-53 0 -99.5 11.5t-111.5 11.5q-66 0 -115 -11.5t-102 -11.5q-27 0 -48.5 24t-21.5 52q0 29 19.5 48.5t50.5 19.5q23 0 45 -6t49 -6q35 0 47 37.5t12 134.5v458zM234 1171q-10 -4 -21.5 -8t-23.5 -4q-10 0 -18.5 6t-8.5 17 q0 18 12.5 30.5t24.5 22.5l217 186q20 18 40 30.5t48 12.5q39 0 65.5 -29.5t26.5 -68.5t-23.5 -58.5t-53.5 -31.5z" />
<glyph unicode="&#xee;" horiz-adv-x="655" d="M270 739q0 53 -3 87t-10 52.5t-18.5 25.5t-27.5 7q-27 0 -49.5 -6t-44.5 -6q-31 0 -50.5 19.5t-19.5 48.5q0 35 21.5 55t50.5 20q41 0 69.5 -11t65.5 -11q39 0 63.5 11t53.5 11q35 0 46 -28.5t11 -59.5v-761q0 -37 12.5 -60.5t40.5 -23.5q16 0 38 7t44 5q31 0 50.5 -19.5 t19.5 -48.5q0 -35 -27.5 -55.5t-60.5 -20.5q-53 0 -99.5 11.5t-111.5 11.5q-66 0 -115 -11.5t-102 -11.5q-27 0 -48.5 24t-21.5 52q0 29 19.5 48.5t50.5 19.5q23 0 45 -6t49 -6q35 0 47 37.5t12 134.5v458zM262 1425q6 4 19.5 14.5t23.5 10.5q8 0 22.5 -10t18.5 -15 l287 -200l21 -17q11 -8 11 -24q0 -25 -26 -25q-12 0 -34 5t-43 14l-43 16q-22 8 -34 12l-94 33q-47 16 -92 39q-20 -10 -68 -30l-100 -40q-53 -20 -99.5 -35.5t-62.5 -15.5q-31 0 -31 27q0 12 16.5 23.5t24.5 17.5z" />
<glyph unicode="&#xef;" horiz-adv-x="655" d="M270 739q0 53 -3 87t-10 52.5t-18.5 25.5t-27.5 7q-27 0 -49.5 -6t-44.5 -6q-31 0 -50.5 19.5t-19.5 48.5q0 35 21.5 55t50.5 20q41 0 69.5 -11t65.5 -11q39 0 63.5 11t53.5 11q35 0 46 -28.5t11 -59.5v-761q0 -37 12.5 -60.5t40.5 -23.5q16 0 38 7t44 5q31 0 50.5 -19.5 t19.5 -48.5q0 -35 -27.5 -55.5t-60.5 -20.5q-53 0 -99.5 11.5t-111.5 11.5q-66 0 -115 -11.5t-102 -11.5q-27 0 -48.5 24t-21.5 52q0 29 19.5 48.5t50.5 19.5q23 0 45 -6t49 -6q35 0 47 37.5t12 134.5v458zM475 1395q47 0 82 -35t35 -84t-35 -83t-82 -34q-49 0 -84 34 t-35 83t35 84t84 35zM98 1395q49 0 84 -35t35 -84t-35 -83t-84 -34q-47 0 -82 34t-35 83t34 84t83 35z" />
<glyph unicode="&#xf0;" horiz-adv-x="1146" d="M565 88q94 0 158.5 37t103.5 98.5t55.5 139t16.5 157.5q0 72 -16.5 152t-57.5 141q-41 66 -107.5 92.5t-139.5 26.5q-86 0 -151 -32t-110 -107q-35 -59 -52 -135t-17 -146q0 -76 16.5 -151.5t53 -136t97 -98.5t150.5 -38zM78 508q0 113 29.5 216t90 180t152.5 122t215 45 q33 0 56.5 -1t43 -4t38 -8t42.5 -14l5 5q-27 41 -64 73.5t-92 71.5l-262 -90q-35 -12 -59.5 -5t-35 22.5t-2 35t38.5 29.5l213 74q-47 29 -88 47t-73 30q-35 12 -47.5 30.5t-7.5 35t24.5 28t46.5 11.5q29 0 64 -15q41 -16 102 -43.5t133 -72.5l270 92q33 12 56.5 4t32 -24.5 t-1 -35t-44.5 -30.5l-215 -74q63 -49 124 -114.5t106 -153.5t72.5 -202t27.5 -259q0 -117 -32.5 -220.5t-96 -180t-158 -120.5t-219.5 -44q-123 0 -214 45t-151.5 122t-90 178t-29.5 214z" />
<glyph unicode="&#xf1;" d="M264 737q0 106 -12 140t-47 34q-27 0 -49.5 -6t-44.5 -6q-31 0 -50.5 19.5t-19.5 48.5t24.5 52t51.5 23q16 0 27.5 -3t23.5 -8t25.5 -8t33.5 -3q23 0 38.5 3t29.5 8t28.5 8t32.5 3q33 0 39 -31.5t6 -90.5h5q59 80 152 115.5t190 35.5q82 0 158.5 -27.5t137.5 -82.5 q68 -61 81.5 -137t13.5 -162v-381q0 -94 12 -134.5t47 -40.5q27 0 49.5 6.5t44.5 6.5q31 0 50.5 -19.5t19.5 -48.5q0 -74 -88 -74q-51 0 -95 11.5t-114 11.5q-74 0 -119 -11.5t-100 -11.5q-88 0 -88 74q0 29 19.5 48.5t49.5 19.5q23 0 45.5 -6.5t49.5 -6.5q39 0 49 38 t10 137v303q0 49 -1 82.5t-4 60.5t-9 47.5t-19 44.5q-31 59 -94 86t-129 27q-70 0 -140.5 -30t-109.5 -89q-10 -14 -19.5 -32.5t-16.5 -49.5t-12 -81t-5 -126v-241q0 -94 12 -134t47 -40q27 0 49.5 6t44.5 6q31 0 50.5 -19.5t19.5 -48.5q0 -76 -88 -76q-51 0 -95 11.5 t-114 11.5q-74 0 -119 -11.5t-100 -11.5q-88 0 -88 76q0 29 19.5 48.5t50.5 19.5q23 0 45 -6t49 -6q39 0 49 37.5t10 136.5v454zM748 1339l59 -21q31 -11 62 -11q27 0 45 10t30.5 23.5t20.5 23.5t18 10q25 0 25 -28q0 -27 -9.5 -53.5t-21.5 -49.5q-29 -45 -69.5 -64.5 t-94.5 -19.5q-37 0 -80 12.5t-86 27.5t-85 27.5t-78 12.5q-51 0 -82 -43l-12 -18q-5 -8 -17 -9q-27 0 -27 33q0 27 12.5 57.5t26.5 53.5q29 43 71 60.5t93 17.5q47 0 101.5 -18t97.5 -34z" />
<glyph unicode="&#xf2;" horiz-adv-x="1146" d="M248 514q0 -76 16.5 -151.5t53 -137t97 -99.5t150.5 -38q94 0 158.5 37t103.5 98.5t55.5 139t16.5 159.5q0 72 -16.5 151t-57.5 140q-41 66 -107.5 92.5t-139.5 26.5q-86 0 -151 -32t-110 -107q-35 -59 -52 -135t-17 -144zM78 508q0 113 29.5 215t90 179t152.5 123 t215 46q111 0 207 -33.5t168 -122.5q68 -84 98.5 -190.5t30.5 -210.5q0 -117 -32.5 -220.5t-96 -180t-158 -120.5t-219.5 -44q-123 0 -214 45t-151.5 122t-90 178t-29.5 214zM721 1235q12 -10 25.5 -22.5t13.5 -30.5q0 -10 -9.5 -16.5t-19.5 -6.5q-12 0 -23.5 4t-21.5 8 l-283 105q-33 12 -55.5 31.5t-22.5 58.5t26 68.5t67 29.5q29 0 47 -12t39 -31z" />
<glyph unicode="&#xf3;" horiz-adv-x="1146" d="M248 514q0 -76 16.5 -151.5t53 -137t97 -99.5t150.5 -38q94 0 158.5 37t103.5 98.5t55.5 139t16.5 159.5q0 72 -16.5 151t-57.5 140q-41 66 -107.5 92.5t-139.5 26.5q-86 0 -151 -32t-110 -107q-35 -59 -52 -135t-17 -144zM78 508q0 113 29.5 215t90 179t152.5 123 t215 46q111 0 207 -33.5t168 -122.5q68 -84 98.5 -190.5t30.5 -210.5q0 -117 -32.5 -220.5t-96 -180t-158 -120.5t-219.5 -44q-123 0 -214 45t-151.5 122t-90 178t-29.5 214zM477 1171q-10 -4 -21.5 -8t-23.5 -4q-10 0 -18.5 6t-8.5 17q0 18 12.5 30.5t24.5 22.5l217 186 q20 18 40 30.5t48 12.5q39 0 65.5 -29.5t26.5 -68.5t-23.5 -58.5t-53.5 -31.5z" />
<glyph unicode="&#xf4;" horiz-adv-x="1146" d="M248 514q0 -76 16.5 -151.5t53 -137t97 -99.5t150.5 -38q94 0 158.5 37t103.5 98.5t55.5 139t16.5 159.5q0 72 -16.5 151t-57.5 140q-41 66 -107.5 92.5t-139.5 26.5q-86 0 -151 -32t-110 -107q-35 -59 -52 -135t-17 -144zM78 508q0 113 29.5 215t90 179t152.5 123 t215 46q111 0 207 -33.5t168 -122.5q68 -84 98.5 -190.5t30.5 -210.5q0 -117 -32.5 -220.5t-96 -180t-158 -120.5t-219.5 -44q-123 0 -214 45t-151.5 122t-90 178t-29.5 214zM547 1425q6 4 19.5 14.5t23.5 10.5q8 0 22.5 -10t18.5 -15l287 -200l21 -17q11 -8 11 -24 q0 -25 -26 -25q-12 0 -34 5t-43 14l-43 16q-22 8 -34 12l-94 33q-47 16 -92 39q-20 -10 -68 -30l-100 -40q-53 -20 -99.5 -35.5t-62.5 -15.5q-31 0 -31 27q0 12 16.5 23.5t24.5 17.5z" />
<glyph unicode="&#xf5;" horiz-adv-x="1146" d="M248 514q0 -76 16.5 -151.5t53 -137t97 -99.5t150.5 -38q94 0 158.5 37t103.5 98.5t55.5 139t16.5 159.5q0 72 -16.5 151t-57.5 140q-41 66 -107.5 92.5t-139.5 26.5q-86 0 -151 -32t-110 -107q-35 -59 -52 -135t-17 -144zM78 508q0 113 29.5 215t90 179t152.5 123 t215 46q111 0 207 -33.5t168 -122.5q68 -84 98.5 -190.5t30.5 -210.5q0 -117 -32.5 -220.5t-96 -180t-158 -120.5t-219.5 -44q-123 0 -214 45t-151.5 122t-90 178t-29.5 214zM645 1339l59 -21q31 -11 62 -11q27 0 45 10t30.5 23.5t20.5 23.5t18 10q25 0 25 -28 q0 -27 -9.5 -53.5t-21.5 -49.5q-29 -45 -69.5 -64.5t-94.5 -19.5q-37 0 -80 12.5t-86 27.5t-85 27.5t-78 12.5q-51 0 -82 -43l-12 -18q-5 -8 -17 -9q-27 0 -27 33q0 27 12.5 57.5t26.5 53.5q29 43 71 60.5t93 17.5q47 0 101.5 -18t97.5 -34z" />
<glyph unicode="&#xf6;" horiz-adv-x="1146" d="M248 514q0 -76 16.5 -151.5t53 -137t97 -99.5t150.5 -38q94 0 158.5 37t103.5 98.5t55.5 139t16.5 159.5q0 72 -16.5 151t-57.5 140q-41 66 -107.5 92.5t-139.5 26.5q-86 0 -151 -32t-110 -107q-35 -59 -52 -135t-17 -144zM78 508q0 113 29.5 215t90 179t152.5 123 t215 46q111 0 207 -33.5t168 -122.5q68 -84 98.5 -190.5t30.5 -210.5q0 -117 -32.5 -220.5t-96 -180t-158 -120.5t-219.5 -44q-123 0 -214 45t-151.5 122t-90 178t-29.5 214zM770 1395q47 0 82 -35t35 -84t-35 -83t-82 -34q-49 0 -84 34t-35 83t35 84t84 35zM393 1395 q49 0 84 -35t35 -84t-35 -83t-84 -34q-47 0 -82 34t-35 83t34 84t83 35z" />
<glyph unicode="&#xf7;" horiz-adv-x="1269" d="M618 1067q55 0 94.5 -39t39.5 -94t-39 -94t-95 -39q-55 0 -94 39t-39 94t39 94t94 39zM618 309q55 0 94.5 -39t39.5 -94t-39 -94t-95 -39q-55 0 -94 39t-39 94t39 94t94 39zM104 633h1033v-156h-1033v156z" />
<glyph unicode="&#xf8;" horiz-adv-x="1146" d="M393 137q33 -27 85 -38t95 -11q92 0 153.5 42t99.5 107.5t53.5 146.5t15.5 159q0 35 -2 74.5t-9 77.5t-21.5 74t-41.5 62zM745 889q-37 23 -73.5 33t-79.5 10q-94 0 -159.5 -37t-106.5 -98.5t-59.5 -140t-18.5 -162.5q0 -37 2 -77t9 -78t20.5 -73t37.5 -61zM236 70 q-158 166 -158 399q0 113 30.5 221.5t93 193.5t157 136t219.5 51q59 0 123.5 -10t113.5 -43l35 55q2 6 9 18l14 23l15 24l11 17q8 10 24.5 9t26.5 -1q4 0 14.5 1t19.5 0t16.5 -6t7.5 -15t-7.5 -19.5t-11.5 -15.5l-90 -143q90 -82 128 -197t38 -231q0 -119 -30.5 -225.5 t-93 -187.5t-157 -128t-223.5 -47q-68 0 -125 15.5t-117 43.5l-88 -141l-8 -10q-10 -10 -23 -11h-28q-6 0 -15.5 -1t-18.5 -1t-16 4.5t-7 14.5t6 18t10 17z" />
<glyph unicode="&#xf9;" horiz-adv-x="1310" d="M217 739q0 98 -18.5 135t-51.5 37q-27 0 -49 -6t-45 -6q-31 0 -50 19.5t-19 48.5q0 35 29.5 55t70.5 20q29 0 58.5 -11t60.5 -11q29 0 58.5 11t57.5 11q43 0 55.5 -23.5t12.5 -60.5q0 -63 -2 -107t-4 -83l-4 -77q-2 -38 -2 -89v-92q0 -29 1 -65.5t3 -74.5t6 -73t12 -61 q12 -39 36 -67t54.5 -46.5t67.5 -26.5t74 -8q92 0 165.5 42t102.5 134q10 33 17.5 76t10.5 89t4 90t1 81v139q0 92 -21.5 132t-52.5 40q-27 0 -49.5 -6t-44.5 -6q-31 0 -50.5 19.5t-19.5 48.5q0 35 29 55t67 20q35 0 66 -11t61 -11q29 0 59 11t58 11q35 0 48.5 -19t13.5 -50 q0 -78 -3.5 -151.5t-3.5 -155.5v-385q0 -53 4.5 -87t11.5 -52.5t18.5 -25.5t25.5 -7q27 0 49.5 6t44.5 6q31 0 50.5 -19.5t19.5 -48.5q0 -35 -28 -55.5t-60 -20.5q-29 0 -58.5 11.5t-58.5 11.5q-31 0 -60.5 -11.5t-58.5 -11.5q-33 0 -42 32q-8 26 -7 72v21h-4 q-57 -88 -143 -120.5t-189 -32.5q-72 0 -143.5 20.5t-128.5 63.5q-66 49 -88.5 119.5t-24.5 148.5v438zM762 1235q12 -10 25.5 -22.5t13.5 -30.5q0 -10 -9.5 -16.5t-19.5 -6.5q-12 0 -23.5 4t-21.5 8l-283 105q-33 12 -55.5 31.5t-22.5 58.5t26 68.5t67 29.5q29 0 47 -12 t39 -31z" />
<glyph unicode="&#xfa;" horiz-adv-x="1310" d="M217 739q0 98 -18.5 135t-51.5 37q-27 0 -49 -6t-45 -6q-31 0 -50 19.5t-19 48.5q0 35 29.5 55t70.5 20q29 0 58.5 -11t60.5 -11q29 0 58.5 11t57.5 11q43 0 55.5 -23.5t12.5 -60.5q0 -63 -2 -107t-4 -83l-4 -77q-2 -38 -2 -89v-92q0 -29 1 -65.5t3 -74.5t6 -73t12 -61 q12 -39 36 -67t54.5 -46.5t67.5 -26.5t74 -8q92 0 165.5 42t102.5 134q10 33 17.5 76t10.5 89t4 90t1 81v139q0 92 -21.5 132t-52.5 40q-27 0 -49.5 -6t-44.5 -6q-31 0 -50.5 19.5t-19.5 48.5q0 35 29 55t67 20q35 0 66 -11t61 -11q29 0 59 11t58 11q35 0 48.5 -19t13.5 -50 q0 -78 -3.5 -151.5t-3.5 -155.5v-385q0 -53 4.5 -87t11.5 -52.5t18.5 -25.5t25.5 -7q27 0 49.5 6t44.5 6q31 0 50.5 -19.5t19.5 -48.5q0 -35 -28 -55.5t-60 -20.5q-29 0 -58.5 11.5t-58.5 11.5q-31 0 -60.5 -11.5t-58.5 -11.5q-33 0 -42 32q-8 26 -7 72v21h-4 q-57 -88 -143 -120.5t-189 -32.5q-72 0 -143.5 20.5t-128.5 63.5q-66 49 -88.5 119.5t-24.5 148.5v438zM559 1171q-10 -4 -21.5 -8t-23.5 -4q-10 0 -18.5 6t-8.5 17q0 18 12.5 30.5t24.5 22.5l217 186q20 18 40 30.5t48 12.5q39 0 65.5 -29.5t26.5 -68.5t-23.5 -58.5 t-53.5 -31.5z" />
<glyph unicode="&#xfb;" horiz-adv-x="1310" d="M217 739q0 98 -18.5 135t-51.5 37q-27 0 -49 -6t-45 -6q-31 0 -50 19.5t-19 48.5q0 35 29.5 55t70.5 20q29 0 58.5 -11t60.5 -11q29 0 58.5 11t57.5 11q43 0 55.5 -23.5t12.5 -60.5q0 -63 -2 -107t-4 -83l-4 -77q-2 -38 -2 -89v-92q0 -29 1 -65.5t3 -74.5t6 -73t12 -61 q12 -39 36 -67t54.5 -46.5t67.5 -26.5t74 -8q92 0 165.5 42t102.5 134q10 33 17.5 76t10.5 89t4 90t1 81v139q0 92 -21.5 132t-52.5 40q-27 0 -49.5 -6t-44.5 -6q-31 0 -50.5 19.5t-19.5 48.5q0 35 29 55t67 20q35 0 66 -11t61 -11q29 0 59 11t58 11q35 0 48.5 -19t13.5 -50 q0 -78 -3.5 -151.5t-3.5 -155.5v-385q0 -53 4.5 -87t11.5 -52.5t18.5 -25.5t25.5 -7q27 0 49.5 6t44.5 6q31 0 50.5 -19.5t19.5 -48.5q0 -35 -28 -55.5t-60 -20.5q-29 0 -58.5 11.5t-58.5 11.5q-31 0 -60.5 -11.5t-58.5 -11.5q-33 0 -42 32q-8 26 -7 72v21h-4 q-57 -88 -143 -120.5t-189 -32.5q-72 0 -143.5 20.5t-128.5 63.5q-66 49 -88.5 119.5t-24.5 148.5v438zM588 1425q6 4 19.5 14.5t23.5 10.5q8 0 22.5 -10t18.5 -15l287 -200l21 -17q11 -8 11 -24q0 -25 -26 -25q-12 0 -34 5t-43 14l-43 16q-22 8 -34 12l-94 33 q-47 16 -92 39q-20 -10 -68 -30l-100 -40q-53 -20 -99.5 -35.5t-62.5 -15.5q-31 0 -31 27q0 12 16.5 23.5t24.5 17.5z" />
<glyph unicode="&#xfc;" horiz-adv-x="1310" d="M217 739q0 98 -18.5 135t-51.5 37q-27 0 -49 -6t-45 -6q-31 0 -50 19.5t-19 48.5q0 35 29.5 55t70.5 20q29 0 58.5 -11t60.5 -11q29 0 58.5 11t57.5 11q43 0 55.5 -23.5t12.5 -60.5q0 -63 -2 -107t-4 -83l-4 -77q-2 -38 -2 -89v-92q0 -29 1 -65.5t3 -74.5t6 -73t12 -61 q12 -39 36 -67t54.5 -46.5t67.5 -26.5t74 -8q92 0 165.5 42t102.5 134q10 33 17.5 76t10.5 89t4 90t1 81v139q0 92 -21.5 132t-52.5 40q-27 0 -49.5 -6t-44.5 -6q-31 0 -50.5 19.5t-19.5 48.5q0 35 29 55t67 20q35 0 66 -11t61 -11q29 0 59 11t58 11q35 0 48.5 -19t13.5 -50 q0 -78 -3.5 -151.5t-3.5 -155.5v-385q0 -53 4.5 -87t11.5 -52.5t18.5 -25.5t25.5 -7q27 0 49.5 6t44.5 6q31 0 50.5 -19.5t19.5 -48.5q0 -35 -28 -55.5t-60 -20.5q-29 0 -58.5 11.5t-58.5 11.5q-31 0 -60.5 -11.5t-58.5 -11.5q-33 0 -42 32q-8 26 -7 72v21h-4 q-57 -88 -143 -120.5t-189 -32.5q-72 0 -143.5 20.5t-128.5 63.5q-66 49 -88.5 119.5t-24.5 148.5v438zM821 1395q47 0 82 -35t35 -84t-35 -83t-82 -34q-49 0 -84 34t-35 83t35 84t84 35zM444 1395q49 0 84 -35t35 -84t-35 -83t-84 -34q-47 0 -82 34t-35 83t34 84t83 35z " />
<glyph unicode="&#xfd;" horiz-adv-x="1310" d="M668 133h4l248 678q8 23 13 39t5 33q0 23 -15.5 29t-33.5 6q-10 0 -21.5 -2.5t-23.5 -6.5q-25 -10 -51 -10q-25 0 -43.5 19.5t-18.5 48.5q0 35 26.5 55t51.5 20q53 0 102.5 -11t114.5 -11q63 0 110.5 11t100.5 11q31 0 50.5 -19t19.5 -48t-20.5 -52.5t-43.5 -23.5 q-20 0 -41 10q-10 4 -17 6.5t-18 2.5q-27 0 -43 -27t-45 -100l-260 -652q-39 -98 -85 -197.5t-110.5 -178t-153.5 -128t-214 -49.5q-49 0 -101.5 14.5t-96.5 43t-71.5 71.5t-27.5 99q0 59 37 102t98 43q47 0 81 -26.5t34 -75.5q0 -29 -16.5 -53.5t-45.5 -28.5q16 -31 51 -41 t66 -10q119 0 199 79q35 35 64.5 86.5t29.5 102.5q0 55 -26 113l-48 112l-223 567q-33 82 -52.5 109t-41.5 27q-23 0 -47.5 -10.5t-59.5 -10.5q-23 0 -40 19.5t-17 48.5q0 35 26.5 55t53.5 20q53 0 104.5 -11t112.5 -11q59 0 108.5 11t102.5 11q33 0 60.5 -20.5t27.5 -54.5 q0 -29 -17.5 -48.5t-35.5 -19.5q-23 0 -53 10q-14 4 -27.5 6.5t-24.5 2.5q-24 0 -23 -23q0 -11 5 -27zM559 1171q-10 -4 -21.5 -8t-23.5 -4q-10 0 -18.5 6t-8.5 17q0 18 12.5 30.5t24.5 22.5l217 186q20 18 40 30.5t48 12.5q39 0 65.5 -29.5t26.5 -68.5t-23.5 -58.5 t-53.5 -31.5z" />
<glyph unicode="&#xfe;" horiz-adv-x="1269" d="M729 932q-88 0 -162.5 -43t-109.5 -127q-12 -29 -18.5 -68t-10.5 -81t-5 -83t-1 -71q0 -72 7 -136.5t48 -123.5t98.5 -85t126.5 -26q94 0 158 36t101.5 96.5t53 137t15.5 158.5q0 74 -13 148.5t-47 134t-92.5 96.5t-148.5 37zM422 920h4q61 78 134 114.5t171 36.5 q121 0 209 -42t146.5 -114.5t86 -171t27.5 -211.5q0 -96 -24.5 -202.5t-79.5 -186.5q-66 -96 -168.5 -145t-216.5 -49q-84 0 -162 30.5t-123 96.5h-4v-162q0 -104 15.5 -136t43.5 -32q27 0 49.5 6t44.5 6q31 0 50.5 -19.5t19.5 -47.5q0 -35 -27.5 -55.5t-62.5 -20.5 q-57 0 -110.5 11.5t-106.5 11.5q-55 0 -107.5 -11.5t-99.5 -11.5q-35 0 -62.5 20.5t-27.5 55.5q0 29 19.5 48t50.5 19q23 0 45 -6t49 -6q35 0 47 37t12 135v1198q0 61 -5 95t-12 51.5t-18.5 21.5t-23.5 4q-27 0 -49.5 -6t-44.5 -6q-31 0 -50.5 19.5t-19.5 47.5 q0 35 26.5 55.5t51.5 20.5q29 0 57.5 -11t75.5 -11q41 0 77 11t50 11q29 0 36 -10t7 -47v-442z" />
<glyph unicode="&#xff;" horiz-adv-x="1310" d="M668 133h4l248 678q8 23 13 39t5 33q0 23 -15.5 29t-33.5 6q-10 0 -21.5 -2.5t-23.5 -6.5q-25 -10 -51 -10q-25 0 -43.5 19.5t-18.5 48.5q0 35 26.5 55t51.5 20q53 0 102.5 -11t114.5 -11q63 0 110.5 11t100.5 11q31 0 50.5 -19t19.5 -48t-20.5 -52.5t-43.5 -23.5 q-20 0 -41 10q-10 4 -17 6.5t-18 2.5q-27 0 -43 -27t-45 -100l-260 -652q-39 -98 -85 -197.5t-110.5 -178t-153.5 -128t-214 -49.5q-49 0 -101.5 14.5t-96.5 43t-71.5 71.5t-27.5 99q0 59 37 102t98 43q47 0 81 -26.5t34 -75.5q0 -29 -16.5 -53.5t-45.5 -28.5q16 -31 51 -41 t66 -10q119 0 199 79q35 35 64.5 86.5t29.5 102.5q0 55 -26 113l-48 112l-223 567q-33 82 -52.5 109t-41.5 27q-23 0 -47.5 -10.5t-59.5 -10.5q-23 0 -40 19.5t-17 48.5q0 35 26.5 55t53.5 20q53 0 104.5 -11t112.5 -11q59 0 108.5 11t102.5 11q33 0 60.5 -20.5t27.5 -54.5 q0 -29 -17.5 -48.5t-35.5 -19.5q-23 0 -53 10q-14 4 -27.5 6.5t-24.5 2.5q-24 0 -23 -23q0 -11 5 -27zM842 1395q47 0 82 -35t35 -84t-35 -83t-82 -34q-49 0 -84 34t-35 83t35 84t84 35zM465 1395q49 0 84 -35t35 -84t-35 -83t-84 -34q-47 0 -82 34t-35 83t34 84t83 35z" />
<glyph unicode="&#x131;" horiz-adv-x="655" d="M270 739q0 53 -3 87t-10 52.5t-18.5 25.5t-27.5 7q-27 0 -49.5 -6t-44.5 -6q-31 0 -50.5 19.5t-19.5 48.5q0 35 21.5 55t50.5 20q41 0 69.5 -11t65.5 -11q39 0 63.5 11t53.5 11q35 0 46 -28.5t11 -59.5v-761q0 -37 12.5 -60.5t40.5 -23.5q16 0 38 7t44 5q31 0 50.5 -19.5 t19.5 -48.5q0 -35 -27.5 -55.5t-60.5 -20.5q-53 0 -99.5 11.5t-111.5 11.5q-66 0 -115 -11.5t-102 -11.5q-27 0 -48.5 24t-21.5 52q0 29 19.5 48.5t50.5 19.5q23 0 45 -6t49 -6q35 0 47 37.5t12 134.5v458z" />
<glyph unicode="&#x152;" horiz-adv-x="2129" d="M688 109q121 0 199 57t123 145t62.5 194.5t17.5 203.5q0 98 -17.5 201.5t-63.5 189.5t-124 140t-197 54q-123 0 -205 -53t-131 -138t-69.5 -189.5t-20.5 -208.5t19.5 -210t68.5 -192t131 -140t207 -54zM1253 901q0 -53 15.5 -68.5t62.5 -15.5h135q100 0 101 92 q0 35 -6.5 67t-6.5 66q0 35 18.5 58.5t57.5 23.5q37 0 54.5 -23.5t17.5 -58.5q0 -63 -9.5 -125.5t-9.5 -158.5q0 -59 3.5 -102.5l6.5 -78.5l6 -69q3 -33 3 -68t-21.5 -56.5t-56.5 -21.5q-41 0 -55.5 27t-14.5 62t5.5 67.5t5.5 65.5q0 94 -115 94h-113q-53 0 -68.5 -20.5 t-15.5 -90.5v-331q0 -68 27 -91.5t109 -23.5h337q59 0 96.5 13t59 37t29.5 56.5t8 71.5q0 45 -3 88t-3 88q0 59 17.5 83t54.5 24q35 0 57 -19.5t22 -68.5q0 -53 -4 -103.5t-4 -103.5q0 -51 4 -102.5t4 -102.5q0 -59 -31.5 -82t-121.5 -23q-121 0 -227.5 11.5t-198.5 11.5 q-104 0 -177 -11.5t-153 -11.5q-45 0 -64.5 18.5t-19.5 47.5t6 58.5t13 56.5l-5 4q-72 -104 -174 -154.5t-231 -50.5q-137 0 -252 47t-201 160q-41 53 -69.5 115.5t-47 130t-26.5 135t-8 133.5q0 61 7 130t23.5 136.5t41 130t59.5 115.5q78 119 201.5 181.5t265.5 62.5 q129 0 236.5 -47.5t187.5 -145.5l4 6q-4 23 -13.5 48.5t-9.5 50.5q0 27 18.5 43t59.5 16q78 0 149.5 -11.5t168.5 -11.5q111 0 227.5 11.5t236.5 11.5q47 0 74 -21.5t27 -72.5q0 -53 -6 -106.5t-6 -106.5q0 -51 6 -100.5t6 -98.5q0 -39 -15.5 -65.5t-60.5 -26.5 q-35 0 -56.5 25.5t-21.5 66.5q0 59 2 99t2 77q0 57 -10 92t-37.5 54.5t-76 26.5t-126.5 7h-196q-55 0 -91 -3t-58.5 -17t-32 -47t-9.5 -90v-197z" />
<glyph unicode="&#x153;" horiz-adv-x="1925" d="M578 932q-88 0 -153 -33t-110 -111q-33 -59 -50 -133.5t-17 -146.5q0 -76 16.5 -150.5t54 -134t99 -97.5t151.5 -38q94 0 155.5 39t98.5 99.5t51.5 137t14.5 154.5q0 76 -16.5 150.5t-53.5 133t-96 94.5t-145 36zM1659 635v22q0 49 -19.5 97.5t-48.5 87.5 q-41 53 -95 71.5t-120 18.5q-68 0 -122 -22.5t-95 -61.5t-64.5 -94.5t-29.5 -118.5h594zM1047 492v-60q0 -68 23.5 -129t65.5 -109.5t100 -77t128 -28.5q98 0 180 51t107 152q10 35 22.5 60.5t57.5 25.5q39 0 59 -24.5t20 -61.5q0 -31 -11 -62.5t-29.5 -61.5t-40 -55.5 t-41.5 -43.5q-72 -63 -158 -91t-178 -28q-137 0 -232.5 55t-167.5 172q-49 -123 -154.5 -175t-232.5 -52q-123 0 -214 43t-151.5 116.5t-91 173t-30.5 214.5t31.5 219t95 183t156 126t214.5 47q129 0 232.5 -53t161.5 -174q55 115 166.5 171t236.5 56q113 0 199 -38 t144.5 -105.5t87 -159.5t28.5 -201q0 -49 -13.5 -62t-62.5 -13h-708z" />
<glyph unicode="&#x178;" horiz-adv-x="1556" d="M797 672l315 528l17 29q7 12 8 26q0 14 -13.5 16.5t-36.5 2.5q-39 0 -77.5 -6t-77.5 -6q-29 0 -47.5 20.5t-18.5 48.5q0 31 26 52.5t66 21.5q74 0 135.5 -11.5t139.5 -11.5t146.5 11.5t127.5 11.5q41 0 64.5 -18.5t23.5 -55.5q0 -29 -18 -49t-47 -20t-60.5 7t-54.5 7 q-43 0 -61.5 -18.5t-40.5 -51.5l-436 -686v-90v-57q0 -33 1 -67t3 -65.5t6 -54.5q8 -41 33.5 -58t66.5 -17q25 0 49.5 5t48.5 5q35 0 62 -18.5t27 -55.5q0 -29 -18.5 -49.5t-47.5 -20.5q-37 0 -70.5 3.5t-70.5 8.5t-80 8t-99 3q-49 0 -84.5 -3t-67.5 -8t-62.5 -8.5 t-69.5 -3.5q-55 0 -78 20.5t-23 49.5q0 37 27 55.5t62 18.5q27 0 52 -5t52 -5q35 0 60.5 17t31.5 50q4 20 7 51t4 63t1 63v55v98l-424 672q-31 49 -55 69.5t-59 20.5q-27 0 -54.5 -4t-62.5 -4q-29 0 -47 20.5t-18 48.5q0 31 22.5 52.5t63.5 21.5q66 0 131 -11.5t143 -11.5 t142.5 11.5t131.5 11.5q41 0 64.5 -19.5t23.5 -54.5q0 -29 -18 -49t-47 -20q-45 0 -78 6t-57 6q-25 0 -34 -5t-9 -16q0 -10 7 -20t19 -33zM975 1757q47 0 82 -35t35 -84t-35 -83t-82 -34q-49 0 -84 34t-35 83t35 84t84 35zM598 1757q49 0 84 -35t35 -84t-35 -83t-84 -34 q-47 0 -82 34t-35 83t34 84t83 35z" />
<glyph unicode="&#x2c6;" horiz-adv-x="1024" d="M465 1425q6 4 19.5 14.5t23.5 10.5q8 0 22.5 -10t18.5 -15l287 -200l21 -17q11 -8 11 -24q0 -25 -26 -25q-12 0 -34 5t-43 14l-43 16q-22 8 -34 12l-94 33q-47 16 -92 39q-20 -10 -68 -30l-100 -40q-53 -20 -99.5 -35.5t-62.5 -15.5q-31 0 -31 27q0 12 16.5 23.5 t24.5 17.5z" />
<glyph unicode="&#x2da;" horiz-adv-x="614" d="M305 1409q-35 0 -60.5 -24.5t-25.5 -59.5q0 -37 25.5 -61.5t60.5 -24.5t60.5 24.5t25.5 61.5q0 35 -25.5 59.5t-60.5 24.5zM305 1489q68 0 116 -48t48 -116q0 -70 -48 -118t-116 -48t-116 48t-48 118q0 68 48 116t116 48z" />
<glyph unicode="&#x2dc;" horiz-adv-x="942" d="M543 1339l59 -21q31 -11 62 -11q27 0 45 10t30.5 23.5t20.5 23.5t18 10q25 0 25 -28q0 -27 -9.5 -53.5t-21.5 -49.5q-29 -45 -69.5 -64.5t-94.5 -19.5q-37 0 -80 12.5t-86 27.5t-85 27.5t-78 12.5q-51 0 -82 -43l-12 -18q-5 -8 -17 -9q-27 0 -27 33q0 27 12.5 57.5 t26.5 53.5q29 43 71 60.5t93 17.5q47 0 101.5 -18t97.5 -34z" />
<glyph unicode="&#x2000;" horiz-adv-x="913" />
<glyph unicode="&#x2001;" horiz-adv-x="1826" />
<glyph unicode="&#x2002;" horiz-adv-x="913" />
<glyph unicode="&#x2003;" horiz-adv-x="1826" />
<glyph unicode="&#x2004;" horiz-adv-x="608" />
<glyph unicode="&#x2005;" horiz-adv-x="456" />
<glyph unicode="&#x2006;" horiz-adv-x="303" />
<glyph unicode="&#x2007;" horiz-adv-x="303" />
<glyph unicode="&#x2008;" horiz-adv-x="227" />
<glyph unicode="&#x2009;" horiz-adv-x="364" />
<glyph unicode="&#x200a;" horiz-adv-x="100" />
<glyph unicode="&#x2010;" horiz-adv-x="655" d="M477 627q39 0 74 -13.5t35 -60.5q0 -49 -35 -62.5t-74 -13.5h-299q-18 0 -37.5 2t-35 10.5t-25.5 23.5t-10 40q0 49 34.5 61.5t73.5 12.5h299z" />
<glyph unicode="&#x2011;" horiz-adv-x="655" d="M477 627q39 0 74 -13.5t35 -60.5q0 -49 -35 -62.5t-74 -13.5h-299q-18 0 -37.5 2t-35 10.5t-25.5 23.5t-10 40q0 49 34.5 61.5t73.5 12.5h299z" />
<glyph unicode="&#x2012;" horiz-adv-x="655" d="M477 627q39 0 74 -13.5t35 -60.5q0 -49 -35 -62.5t-74 -13.5h-299q-18 0 -37.5 2t-35 10.5t-25.5 23.5t-10 40q0 49 34.5 61.5t73.5 12.5h299z" />
<glyph unicode="&#x2013;" horiz-adv-x="1024" d="M997 629q39 0 74 -13.5t35 -62.5t-35 -62.5t-74 -13.5h-970q-39 0 -74 13.5t-35 62.5t35 62.5t74 13.5h970z" />
<glyph unicode="&#x2014;" horiz-adv-x="2048" d="M2021 629q39 0 74 -13.5t35 -62.5t-35 -62.5t-74 -13.5h-1994q-39 0 -74 13.5t-35 62.5t35 62.5t74 13.5h1994z" />
<glyph unicode="&#x2018;" horiz-adv-x="655" d="M369 1083q57 -2 91 -35.5t34 -91.5q0 -66 -43 -103.5t-107 -37.5q-43 0 -73.5 19.5t-50 49t-30 67.5t-10.5 75q0 78 28 153.5t71 141.5q8 14 21 33.5t28.5 37t34 30t36.5 12.5q14 0 25.5 -12.5t11.5 -28.5q0 -12 -8 -24.5l-14 -22.5q-12 -16 -32 -46t-36 -63t-28.5 -64.5 t-12.5 -52.5q0 -31 20.5 -34t43.5 -3z" />
<glyph unicode="&#x2019;" horiz-adv-x="655" d="M305 1167q-57 2 -91 36t-34 91q0 66 43 103t107 37q43 0 73.5 -18.5t50 -49.5t30 -67.5t10.5 -73.5q0 -78 -28 -154t-71 -141l-20 -32q-12 -19 -27.5 -37.5t-33 -32t-35.5 -13.5q-16 0 -28.5 13.5t-12.5 29.5q0 12 8 24.5l14 22.5q12 16 31.5 46t36 63t29 63.5t12.5 52.5 q0 31 -21 33z" />
<glyph unicode="&#x201a;" horiz-adv-x="696" d="M305 -45q-57 2 -91 36t-34 91q0 66 43 102.5t107 36.5q43 0 73.5 -18.5t50 -49t30 -67.5t10.5 -74q0 -78 -28 -153.5t-71 -141.5l-20 -30q-12 -18 -27.5 -37t-33 -32t-35.5 -13q-16 0 -28.5 12t-12.5 29q0 12 8 24.5l14 22.5q12 16 31.5 46t36 62.5t29 63.5t12.5 53 q0 31 -20.5 34t-43.5 3z" />
<glyph unicode="&#x201c;" horiz-adv-x="1064" d="M369 1083q57 -4 91 -36.5t34 -92.5q0 -66 -43 -102.5t-105 -36.5q-43 0 -74.5 18.5t-51 49t-30 68.5t-10.5 75q0 78 28 153.5t71 141.5l21 32q13 19 28.5 37.5t34 31t36.5 12.5q16 0 26.5 -13.5t10.5 -27.5q0 -12 -8 -25.5t-14 -21.5q-12 -16 -32 -46t-36 -63 t-28.5 -64.5t-12.5 -52.5q0 -31 20.5 -34t43.5 -3zM756 1081q55 -2 90 -35.5t35 -91.5q0 -66 -44 -102.5t-106 -36.5q-43 0 -73.5 18.5t-50 49t-30 67.5t-10.5 74q0 78 28 153.5t69 141.5q8 14 21 33.5t28.5 38t34 31t36.5 12.5q16 0 27.5 -13.5t11.5 -29.5q0 -10 -8 -23.5 t-16 -24.5q-12 -16 -31.5 -45.5t-36 -62.5t-29 -64.5t-12.5 -52.5q0 -31 22 -33z" />
<glyph unicode="&#x201d;" horiz-adv-x="1064" d="M690 1165q-55 4 -90 37t-35 92q0 66 44 103t106 37q43 0 73.5 -19.5t50 -49.5t30 -67.5t10.5 -74.5q0 -78 -28 -154t-71 -141l-21 -32q-13 -19 -28.5 -37.5t-33 -31t-35.5 -12.5q-16 0 -27.5 13.5t-11.5 27.5q0 12 8 25.5t16 21.5q12 16 31.5 46t36 62.5t29 63.5t12.5 53 q0 31 -21.5 34t-44.5 3zM305 1165q-55 4 -90 37t-35 92q0 66 44 103t106 37q43 0 73.5 -19.5t50 -49.5t30 -67.5t10.5 -74.5q0 -78 -28 -154t-71 -141l-21 -32q-13 -19 -28.5 -37.5t-33 -31t-36.5 -12.5q-16 0 -27 13.5t-11 27.5q0 12 8 25.5t16 21.5q12 16 31.5 46t36 62.5 t29 63.5t12.5 53q0 31 -21.5 34t-44.5 3z" />
<glyph unicode="&#x201e;" horiz-adv-x="1064" d="M690 -43q-55 2 -90 35t-35 92q0 66 44 102.5t106 36.5q43 0 73.5 -18.5t50 -49t30 -68.5t10.5 -75q0 -78 -28 -153.5t-71 -141.5l-21 -31q-13 -19 -28.5 -38t-33 -31t-35.5 -12q-16 0 -27.5 13t-11.5 28q0 12 8 25.5t16 23.5q12 16 31.5 45t36 61.5t29 63.5t12.5 53 q0 31 -21.5 34t-44.5 5zM305 -45q-57 2 -91 36t-34 91q0 66 43 102.5t107 36.5q43 0 73.5 -18.5t50 -49t30 -67.5t10.5 -74q0 -78 -28 -153.5t-71 -141.5l-20 -30q-12 -18 -27.5 -37t-33 -32t-35.5 -13q-16 0 -28.5 12t-12.5 29q0 12 8 24.5l14 22.5q12 16 31.5 46t36 62.5 t29 63.5t12.5 53q0 31 -20.5 34t-43.5 3z" />
<glyph unicode="&#x2022;" horiz-adv-x="1228" d="M623 1051q74 0 137 -28t111.5 -76t76 -113.5t27.5 -139.5t-27.5 -137t-76 -111.5t-112 -76t-136.5 -27.5q-74 0 -139.5 27.5t-113.5 76t-76 112t-28 136.5q0 74 28 139.5t76 113.5t113.5 76t139.5 28z" />
<glyph unicode="&#x2026;" horiz-adv-x="2048" d="M1706 240q53 0 92 -39t39 -92q0 -55 -39 -94.5t-92 -39.5q-55 0 -94 39t-39 95q0 53 39 92t94 39zM1022 240q55 0 94 -39t39 -92q0 -55 -39 -94.5t-94 -39.5q-53 0 -92 39t-39 95q0 53 39 92t92 39zM342 240q53 0 92 -39t39 -92q0 -55 -39 -94.5t-92 -39.5q-55 0 -94 39 t-39 95q0 53 39 92t94 39z" />
<glyph unicode="&#x202f;" horiz-adv-x="364" />
<glyph unicode="&#x2039;" horiz-adv-x="450" d="M303 250q4 -12 9 -25.5t5 -25.5q0 -14 -9 -21.5t-21 -7.5q-18 0 -28 14l-17 27l-189 307q-4 4 -11 16.5t-7 20.5t8 20l12 19l185 293l16 26q10 16 27 17q14 0 24 -8.5t10 -22.5q0 -16 -7 -27.5t-13 -27.5l-98 -289z" />
<glyph unicode="&#x203a;" horiz-adv-x="450" d="M158 844q-4 16 -11.5 27.5t-7.5 27.5q0 14 10.5 22.5t24.5 8.5q16 0 27 -17l16 -26l184 -293l13 -19q8 -12 8 -20t-7 -20.5t-12 -16.5l-188 -307l-18 -29q-8 -12 -29 -12q-29 0 -29 29q0 12 5.5 25.5t9.5 25.5l104 305z" />
<glyph unicode="&#x205f;" horiz-adv-x="456" />
<glyph unicode="&#x2122;" horiz-adv-x="1884" d="M229 578v40q27 0 57.5 1.5t49.5 11.5q20 10 21 34.5t1 43.5v647h-84q-45 0 -74.5 -6.5t-48 -22.5t-26.5 -45t-8 -74h-47v62v135h692v-135v-62h-47q0 90 -35 119t-123 29h-84v-647q0 -18 1 -43t22 -35q18 -10 48.5 -11.5t57.5 -1.5v-40h-373zM1905 1368h-43 q-23 0 -39.5 -7t-16.5 -34v-612q0 -31 3 -49.5t13.5 -27.5t30 -13t52.5 -7v-40h-318v40h23q57 4 69.5 24t12.5 71v610h-4l-308 -745h-16l-309 745h-4v-635q0 -18 1 -28.5t17 -22.5q16 -14 32.5 -15t37.5 -4h14v-40h-252v40q25 0 43.5 1.5t31.5 7.5t19 19t4 40v606 q0 47 -4 60.5t-49 15.5h-28v37h223l264 -631l270 631h230v-37z" />
<glyph unicode="&#xe000;" horiz-adv-x="1040" d="M0 1040h1040v-1040h-1040v1040z" />
<glyph unicode="&#xfb01;" horiz-adv-x="1310" d="M391 223q0 -115 60 -114q27 0 49 6t45 6q31 0 50 -19.5t19 -48.5q0 -35 -27.5 -55.5t-60.5 -20.5q-25 0 -45 3.5t-42.5 8.5t-52.5 8t-71 3q-68 0 -115.5 -11.5t-101.5 -11.5q-35 0 -61.5 24t-26.5 52q0 29 19.5 48.5t50.5 19.5q23 0 45 -6t49 -6q25 0 42 24.5t17 91.5 v580q0 25 -2 39t-11 21t-25.5 8t-47.5 1q-61 0 -94 11.5t-33 60.5q0 41 19.5 57.5t48.5 16.5h55q35 0 53.5 2t29 11t14.5 28.5t8 54.5q8 57 24.5 115.5t55.5 103.5q25 29 59.5 47.5t73.5 29.5t79 16.5t76 5.5q70 0 142.5 -11.5t138.5 -36.5q61 -23 110.5 -78t49.5 -126 q0 -41 -31 -72t-70 -31q-43 0 -75.5 32t-32.5 75q0 16 8 30.5t18 26.5q-51 41 -114.5 56.5t-126.5 15.5q-238 0 -238 -240q0 -41 16.5 -48t55.5 -7q57 0 112.5 -5t110.5 -5q33 0 75 2t87 3t90 3t82 2q47 0 58.5 -12.5t11.5 -53.5v-761q0 -37 12 -60.5t41 -23.5q16 0 39.5 7 t60.5 5q31 0 50.5 -19.5t19.5 -48.5q0 -35 -27.5 -55.5t-60.5 -20.5q-66 0 -115 11.5t-115 11.5t-114.5 -11.5t-102.5 -11.5q-27 0 -48 24t-21 52q0 29 19.5 48.5t49.5 19.5q23 0 45.5 -6t49.5 -6q35 0 47 37.5t12 134.5v354q0 72 -3 117t-12.5 69.5t-25.5 34.5t-43 14 l-38 4q-19 2 -47 4.5t-68 3.5t-101 1q-29 0 -59.5 -1t-67.5 -8q-53 -8 -66.5 -39.5t-13.5 -103.5v-508z" />
<glyph unicode="&#xfb02;" horiz-adv-x="1310" d="M236 805q0 37 -8.5 50t-34.5 13h-93q-47 0 -66.5 21.5t-19.5 56.5t20.5 54.5t51.5 19.5h80q49 0 59.5 5t10.5 38q0 178 82.5 274.5t267.5 96.5q43 0 88 -8l91 -14l90 -14q44 -7 81 -7q35 0 67.5 3t65.5 3q23 0 36 -11.5t13 -23.5q0 -29 -9 -61.5t-9 -88.5v-931 q0 -55 4 -89t12 -52.5t19.5 -24.5t23.5 -6q27 0 49.5 6t44.5 6q31 0 50.5 -19.5t19.5 -48.5q0 -35 -27.5 -55.5t-60.5 -20.5q-27 0 -48.5 3.5t-45 8.5t-52 8t-65.5 3q-35 0 -63.5 -3t-53 -8t-49 -8.5t-51.5 -3.5q-33 0 -60.5 20.5t-27.5 55.5q0 29 19.5 48.5t49.5 19.5 q23 0 45.5 -6t49.5 -6q37 0 48 42t11 130v835q0 39 -3 63.5t-17.5 40t-44 28t-84.5 28.5q-37 12 -85.5 19.5t-107.5 7.5q-117 0 -162 -67t-45 -165q0 -35 6.5 -43t24.5 -8h137q94 0 94 -74q0 -47 -27.5 -62.5t-68.5 -15.5h-129q-37 0 -37 -34v-611q0 -115 60 -114q27 0 49 6 t45 6q31 0 50 -19.5t19 -48.5q0 -35 -27.5 -55.5t-60.5 -20.5q-25 0 -45 3.5t-42.5 8.5t-52.5 8t-71 3q-68 0 -115.5 -11.5t-101.5 -11.5q-35 0 -61.5 24t-26.5 52q0 29 19.5 48.5t50.5 19.5q23 0 45.5 -6t48.5 -6q25 0 42.5 24.5t17.5 91.5v580z" />
<glyph unicode="&#xfb03;" horiz-adv-x="2375" d="M2033 1382q49 0 84 -33.5t35 -82.5t-35 -84t-84 -35q-47 0 -81.5 35t-34.5 84t34.5 82.5t81.5 33.5zM1990 739q0 53 -3 87t-10 52.5t-18.5 25.5t-27.5 7q-27 0 -49.5 -6t-44.5 -6q-31 0 -50.5 19.5t-19.5 48.5q0 35 21.5 55t50.5 20q41 0 69.5 -11t65.5 -11q39 0 63.5 11 t53.5 11q35 0 46 -28.5t11 -59.5v-761q0 -37 12.5 -60.5t40.5 -23.5q16 0 38 7t44 5q31 0 50.5 -19.5t19.5 -48.5q0 -35 -27.5 -55.5t-60.5 -20.5q-53 0 -99.5 11.5t-111.5 11.5q-66 0 -115 -11.5t-102 -11.5q-27 0 -48.5 24t-21.5 52q0 29 19.5 48.5t50.5 19.5q23 0 45 -6 t49 -6q35 0 47 37.5t12 134.5v458zM1120 805q0 37 -8 50t-35 13h-92q-47 0 -66.5 21.5t-19.5 56.5t20.5 54.5t51.5 19.5h79q49 0 59.5 5t10.5 38q0 178 83 274.5t267 96.5q45 0 95.5 -10.5t93.5 -33t70.5 -59.5t27.5 -92q0 -49 -28.5 -77.5t-77.5 -28.5q-37 0 -66 25.5 t-29 64.5q0 27 21 53q-20 23 -49 28t-58 5q-53 0 -90 -18.5t-59.5 -51.5t-32.5 -76t-10 -92q0 -35 6 -43t25 -8h137q94 0 94 -74q0 -47 -27.5 -62.5t-68.5 -15.5h-129q-37 0 -37 -34v-611q0 -115 59 -114q27 0 49.5 6t44.5 6q31 0 50.5 -19.5t19.5 -48.5q0 -35 -27.5 -55.5 t-60.5 -20.5q-25 0 -45.5 3.5t-43 8.5t-52 8t-70.5 3q-68 0 -116 -11.5t-101 -11.5q-35 0 -61.5 24t-26.5 52q0 29 19.5 48.5t49.5 19.5q23 0 45.5 -6t49.5 -6q25 0 42 24.5t17 91.5v580zM260 805q0 37 -8 50t-35 13h-92q-47 0 -66.5 21.5t-19.5 56.5t20.5 54.5t51.5 19.5 h79q49 0 59.5 5t10.5 38q0 178 83 274.5t267 96.5q45 0 95.5 -10.5t93.5 -33t70.5 -59.5t27.5 -92q0 -49 -28.5 -77.5t-77.5 -28.5q-37 0 -66 25.5t-29 64.5q0 27 21 53q-20 23 -49 28t-58 5q-53 0 -90 -18.5t-59.5 -51.5t-32.5 -76t-10 -92q0 -35 6 -43t25 -8h137 q94 0 94 -74q0 -47 -27.5 -62.5t-68.5 -15.5h-129q-37 0 -37 -34v-611q0 -115 59 -114q27 0 49.5 6t44.5 6q31 0 50.5 -19.5t19.5 -48.5q0 -35 -27.5 -55.5t-60.5 -20.5q-25 0 -45.5 3.5t-43 8.5t-52 8t-70.5 3q-68 0 -116 -11.5t-101 -11.5q-35 0 -61.5 24t-26.5 52 q0 29 19.5 48.5t49.5 19.5q23 0 45.5 -6t49.5 -6q25 0 42 24.5t17 91.5v580z" />
<glyph unicode="&#xfb04;" horiz-adv-x="2375" d="M2003 1116q0 63 -5.5 98t-13.5 51.5t-19.5 19.5t-21.5 3q-27 0 -52.5 -6t-59.5 -6q-31 0 -50.5 19.5t-19.5 47.5q0 35 28.5 55.5t65.5 20.5q47 0 77 -11t60 -11q39 0 60.5 11t50.5 11q39 0 48 -25.5t9 -80.5v-1032q0 -55 4.5 -89t12.5 -52.5t19 -24.5t24 -6q27 0 49 6 t45 6q31 0 50.5 -19.5t19.5 -48.5q0 -35 -28 -55.5t-61 -20.5q-27 0 -48 3.5t-44.5 8.5t-52.5 8t-65 3q-35 0 -64 -3t-53.5 -8t-49 -8.5t-51.5 -3.5q-33 0 -60.5 20.5t-27.5 55.5q0 29 19.5 48.5t50.5 19.5q23 0 45.5 -6t48.5 -6q37 0 48.5 42t11.5 130v835zM1120 805 q0 37 -8 50t-35 13h-92q-47 0 -66.5 21.5t-19.5 56.5t20.5 54.5t51.5 19.5h79q49 0 59.5 5t10.5 38q0 178 83 274.5t267 96.5q45 0 95.5 -10.5t93.5 -33t70.5 -59.5t27.5 -92q0 -49 -28.5 -77.5t-77.5 -28.5q-37 0 -66 25.5t-29 64.5q0 27 21 53q-20 23 -49 28t-58 5 q-53 0 -90 -18.5t-59.5 -51.5t-32.5 -76t-10 -92q0 -35 6 -43t25 -8h137q94 0 94 -74q0 -47 -27.5 -62.5t-68.5 -15.5h-129q-37 0 -37 -34v-611q0 -115 59 -114q27 0 49.5 6t44.5 6q31 0 50.5 -19.5t19.5 -48.5q0 -35 -27.5 -55.5t-60.5 -20.5q-25 0 -45.5 3.5t-43 8.5 t-52 8t-70.5 3q-68 0 -116 -11.5t-101 -11.5q-35 0 -61.5 24t-26.5 52q0 29 19.5 48.5t49.5 19.5q23 0 45.5 -6t49.5 -6q25 0 42 24.5t17 91.5v580zM260 805q0 37 -8 50t-35 13h-92q-47 0 -66.5 21.5t-19.5 56.5t20.5 54.5t51.5 19.5h79q49 0 59.5 5t10.5 38q0 178 83 274.5 t267 96.5q45 0 95.5 -10.5t93.5 -33t70.5 -59.5t27.5 -92q0 -49 -28.5 -77.5t-77.5 -28.5q-37 0 -66 25.5t-29 64.5q0 27 21 53q-20 23 -49 28t-58 5q-53 0 -90 -18.5t-59.5 -51.5t-32.5 -76t-10 -92q0 -35 6 -43t25 -8h137q94 0 94 -74q0 -47 -27.5 -62.5t-68.5 -15.5h-129 q-37 0 -37 -34v-611q0 -115 59 -114q27 0 49.5 6t44.5 6q31 0 50.5 -19.5t19.5 -48.5q0 -35 -27.5 -55.5t-60.5 -20.5q-25 0 -45.5 3.5t-43 8.5t-52 8t-70.5 3q-68 0 -116 -11.5t-101 -11.5q-35 0 -61.5 24t-26.5 52q0 29 19.5 48.5t49.5 19.5q23 0 45.5 -6t49.5 -6 q25 0 42 24.5t17 91.5v580z" />
</font>
</defs>
</svg>
